<svg id="Layer_1" data-name="Layer 1" xmlns="http://www.w3.org/2000/svg" viewBox="0 0 196 45"><defs><style>.cls-1{fill:#e5e5e5;}.cls-2{fill:#f5f5f5;}</style></defs><path class="cls-1" d="M197.94,47H1.94V2h196Zm-195-1h194V3H2.94Z" transform="translate(-1.94 -2.01)"/><path class="cls-2" d="M41.28,29.47v1.68H31.16V16.24h9.93v1.68h-8v4.83h7v1.57h-7v5.15Z" transform="translate(-1.94 -2.01)"/><path class="cls-2" d="M50.17,31.15V16.24h5.16a7.48,7.48,0,0,1,4,1,6.26,6.26,0,0,1,2.41,2.69,8.72,8.72,0,0,1,.8,3.75,8.37,8.37,0,0,1-.89,3.95,6.21,6.21,0,0,1-2.5,2.6,7.51,7.51,0,0,1-3.82.93Zm10.45-7.48a6.76,6.76,0,0,0-.62-3,4.74,4.74,0,0,0-1.79-2,5.31,5.31,0,0,0-2.88-.73H52.06V29.47h3.27a5.2,5.2,0,0,0,2.9-.77A5,5,0,0,0,60,26.62,7,7,0,0,0,60.62,23.67Z" transform="translate(-1.94 -2.01)"/><path class="cls-2" d="M71.5,31.15V16.24h1.89V31.15Z" transform="translate(-1.94 -2.01)"/><path class="cls-2" d="M83.26,31.15V16.24h9.85v1.68h-8v5h6.7v1.58h-6.7v6.68Z" transform="translate(-1.94 -2.01)"/><path class="cls-2" d="M101.81,31.15V16.24h1.88V31.15Z" transform="translate(-1.94 -2.01)"/><path class="cls-2" d="M112.6,23.56a7.9,7.9,0,0,1,.47-2.67,7.81,7.81,0,0,1,1.39-2.4,6.64,6.64,0,0,1,5.24-2.36,6.19,6.19,0,0,1,3.42.91,5.69,5.69,0,0,1,2.12,2.35l-1.49,1a4.16,4.16,0,0,0-1.12-1.5,4.39,4.39,0,0,0-1.47-.79,5.65,5.65,0,0,0-1.55-.23,4.6,4.6,0,0,0-2.19.51,4.86,4.86,0,0,0-1.61,1.34,5.9,5.9,0,0,0-1,1.88,6.86,6.86,0,0,0-.33,2.09,6.41,6.41,0,0,0,.39,2.22A6.05,6.05,0,0,0,116,27.76a5.33,5.33,0,0,0,1.64,1.31,4.46,4.46,0,0,0,2.06.48,5,5,0,0,0,3.12-1.12,4.05,4.05,0,0,0,1.14-1.51l1.57.87a4.69,4.69,0,0,1-1.42,1.89,7.07,7.07,0,0,1-2.16,1.17,7.2,7.2,0,0,1-2.34.4,6,6,0,0,1-2.81-.66,7.3,7.3,0,0,1-2.22-1.76,8.69,8.69,0,0,1-1.45-2.48A8,8,0,0,1,112.6,23.56Z" transform="translate(-1.94 -2.01)"/><path class="cls-2" d="M144.31,29.47v1.68H134.19V16.24h9.93v1.68h-8v4.83h7v1.57h-7v5.15Z" transform="translate(-1.94 -2.01)"/><path class="cls-2" d="M162,19.36a3.25,3.25,0,0,0-.67-.56,6.5,6.5,0,0,0-.95-.5,7.25,7.25,0,0,0-1.14-.35,6.14,6.14,0,0,0-1.29-.14,4.12,4.12,0,0,0-2.55.65,2.16,2.16,0,0,0-.81,1.78,1.72,1.72,0,0,0,.42,1.25,3,3,0,0,0,1.29.76c.58.19,1.32.4,2.21.61a14.88,14.88,0,0,1,2.69.81A4.06,4.06,0,0,1,162.89,25a3.45,3.45,0,0,1,.61,2.15,3.88,3.88,0,0,1-.41,1.85,3.64,3.64,0,0,1-1.14,1.3,5.16,5.16,0,0,1-1.72.75,9.13,9.13,0,0,1-2.15.24,10.18,10.18,0,0,1-2.21-.24,9.91,9.91,0,0,1-2.05-.7,9.05,9.05,0,0,1-1.8-1.16l.9-1.6a4.36,4.36,0,0,0,.87.71,8.66,8.66,0,0,0,1.22.64,8.85,8.85,0,0,0,1.48.47,7.43,7.43,0,0,0,1.64.18A4.42,4.42,0,0,0,160.6,29a1.88,1.88,0,0,0,.89-1.68A1.83,1.83,0,0,0,161,26a3.85,3.85,0,0,0-1.46-.84c-.64-.22-1.42-.44-2.35-.67a16.2,16.2,0,0,1-2.54-.82,3.52,3.52,0,0,1-1.54-1.19,3.17,3.17,0,0,1-.52-1.9,4,4,0,0,1,.7-2.41,4.21,4.21,0,0,1,1.91-1.49,7.25,7.25,0,0,1,2.75-.5,8,8,0,0,1,1.88.21,7.6,7.6,0,0,1,1.62.59,6.9,6.9,0,0,1,1.39.9Z" transform="translate(-1.94 -2.01)"/></svg>