<?xml version="1.0" encoding="UTF-8"?>
<svg id="Ebene_1" data-name="Ebene 1" xmlns="http://www.w3.org/2000/svg" viewBox="0 0 217.75 78.7">
  <defs>
    <style>
      .cls-1 {
        fill: #577ebf;
      }

      .cls-2 {
        fill: #1d1d1b;
        font-family: Monarcha-Book, Monarcha;
        font-size: 72px;
      }

      .cls-3 {
        letter-spacing: -.03em;
      }
    </style>
  </defs>
  <g>
    <path class="cls-1" d="m38.87,30.85v26.92h.59V3.93h-.59v26.92Z"/>
    <path class="cls-1" d="m31.19,14.73c-.12.02-.21.13-.21.22,0,.25,6.14,46.74,6.17,46.78.06.07.78-.11.77-.19,0-.04-1.39-10.59-3.09-23.45-2.53-19.14-3.12-23.38-3.26-23.39-.09-.01-.27,0-.38.04Z"/>
    <path class="cls-1" d="m46.53,14.83c0,.18-5.95,45.57-6.08,46.38q-.07.45.35.45c.24,0,.42-.02.42-.05s1.38-10.55,3.06-23.41c2.4-18.27,3.03-23.37,2.92-23.45-.26-.15-.68-.11-.68.08Z"/>
    <path class="cls-1" d="m25.71,23.97c-.21.06-.39.18-.39.26,0,.18,9.06,34.15,9.12,34.21.02.04.27-.01.54-.08.45-.12.48-.15.41-.46-.32-1.48-9.12-34-9.2-34.01-.06-.01-.28.02-.48.08Z"/>
    <path class="cls-1" d="m52.03,24.16s-2.08,7.64-4.56,16.88c-2.46,9.24-4.51,16.88-4.55,16.99-.05.15.06.24.44.33.26.07.51.11.53.08.14-.14,9.12-34.05,9.03-34.12-.15-.14-.84-.26-.9-.15Z"/>
    <path class="cls-1" d="m21.47,31.71l-.26.2,6.05,14.61c3.33,8.03,6.2,14.94,6.37,15.34.31.74.46.85.86.62.2-.11-.37-1.51-6.17-15.51-3.51-8.47-6.43-15.41-6.49-15.43-.06-.01-.22.06-.37.18Z"/>
    <path class="cls-1" d="m56.22,31.93c-3.09,7.33-12.6,30.51-12.55,30.57.05.04.21.11.38.14.29.07.38-.14,6.66-15.31,3.5-8.47,6.37-15.43,6.4-15.47.02-.08-.48-.37-.64-.37-.04,0-.14.2-.25.44Z"/>
    <path class="cls-1" d="m17.96,37.47c-.19.09-.37.2-.39.21-.05.04,12.78,22.32,12.95,22.49.13.14.95-.29.91-.48-.07-.31-12.89-22.4-12.99-22.4-.06,0-.27.08-.47.19Z"/>
    <path class="cls-1" d="m53.34,48.45c-3.56,6.15-6.46,11.24-6.46,11.31,0,.19.8.55.92.41.21-.24,12.86-22.29,12.86-22.4,0-.13-.59-.49-.79-.49-.05,0-2.99,5.03-6.54,11.18Z"/>
    <path class="cls-1" d="m15.09,42.82l-.27.22.33.45c1.05,1.39,15.77,20.61,15.91,20.78.16.19.2.19.47.01.15-.11.26-.26.22-.34-.06-.14-15.97-20.92-16.26-21.21-.09-.11-.2-.08-.41.09Z"/>
    <path class="cls-1" d="m54.77,53.17c-4.48,5.84-8.16,10.67-8.2,10.77-.07.19.4.62.53.47.26-.27,16.3-21.19,16.35-21.32.02-.07-.08-.21-.25-.32l-.29-.2-8.14,10.6Z"/>
    <path class="cls-1" d="m12.6,47.1l-.28.31,7.64,7.64c4.55,4.55,7.69,7.61,7.75,7.55.07-.07-2.87-3.24-7.22-7.81-4.04-4.23-7.4-7.76-7.48-7.85-.11-.12-.19-.08-.41.15Z"/>
    <path class="cls-1" d="m58,54.59c-4.13,4.22-7.54,7.72-7.56,7.75-.01.05.11.21.27.37l.29.28,5.87-5.82c3.22-3.19,6.68-6.62,7.68-7.62l1.83-1.8-.42-.41-.41-.42-7.54,7.68Z"/>
    <path class="cls-1" d="m9.91,51.71l-.24.31.55.44c.31.24,4.65,3.58,9.67,7.43l9.12,6.99.22-.26c.12-.15.21-.31.21-.35-.01-.04-3.84-3-8.52-6.58-4.68-3.57-9.02-6.9-9.65-7.39l-1.14-.88-.24.31Z"/>
    <path class="cls-1" d="m58.52,58.8c-5.29,4.06-9.62,7.44-9.62,7.52-.01.07.09.22.21.33.22.2.54-.02,9.84-7.19,5.29-4.06,9.61-7.44,9.61-7.53s-.09-.22-.21-.33c-.19-.18-.87.33-9.82,7.2Z"/>
    <path class="cls-1" d="m7.54,55.82c-.14.24-.24.45-.2.48s3.99,2.33,8.79,5.11l8.73,5.04.24-.39c.13-.21.24-.42.24-.48-.01-.08-13.24-7.79-16.74-9.74l-.79-.44-.26.41Z"/>
    <path class="cls-1" d="m61.82,60.46c-4.78,2.77-8.72,5.07-8.76,5.1-.09.09.41.94.53.9.11-.05,17.37-10.01,17.43-10.06.07-.06-.24-.73-.39-.85-.08-.07-3.06,1.58-8.81,4.91Z"/>
    <path class="cls-1" d="m5.06,59.95c-.07.16-.12.34-.12.39s5.08,2.18,11.28,4.76l11.27,4.66.16-.34c.09-.2.15-.37.12-.4-.02-.02-4.76-1.99-10.53-4.37-5.77-2.38-10.85-4.49-11.28-4.66l-.8-.33-.11.29Z"/>
    <path class="cls-1" d="m61.63,64.4c-10.94,4.55-11.11,4.62-11.04,4.91.05.16.11.33.15.37.05.05,5.15-2.01,11.34-4.58l11.26-4.65-.13-.33c-.07-.19-.2-.34-.31-.33-.09,0-5.17,2.08-11.28,4.62Z"/>
    <path class="cls-1" d="m2.53,64.37c-.05.2-.04.4.01.45.11.09,20.38,5.55,20.61,5.55.11,0,.45-.82.37-.9-.05-.05-5.23-1.51-9.21-2.59-4.13-1.13-11.08-2.87-11.46-2.87-.18,0-.26.09-.32.37Z"/>
    <path class="cls-1" d="m75.21,64.15c-.26.07-2.06.52-4,.99-4.42,1.11-15.65,4.18-15.81,4.33-.11.09.21.9.35.9.2-.01,20.58-5.49,20.64-5.56.04-.04,0-.22-.07-.42-.14-.41-.28-.44-1.11-.24Z"/>
    <path class="cls-1" d="m.08,68.67c-.11.11-.11.75-.01.75.13,0,26.13,3.4,26.47,3.47.29.05.32.02.32-.35,0-.22-.02-.41-.05-.41-.08,0-25.81-3.42-26.22-3.47-.24-.04-.46-.04-.51.01Z"/>
    <path class="cls-1" d="m64.74,70.38c-7.26.97-13.2,1.78-13.22,1.79-.02.02,0,.19.06.39.06.25.15.33.32.32.12-.02,6.05-.8,13.18-1.74,7.14-.94,13.03-1.71,13.11-1.71.15,0,.19-.33.07-.64-.04-.11-.13-.18-.21-.18-.07.01-6.07.8-13.31,1.77Z"/>
  </g>
  <text class="cls-2" transform="translate(79.44 59.98)"><tspan class="cls-3" x="0" y="0">Q</tspan><tspan x="49.32" y="0">AF</tspan></text>
</svg>