<?xml version="1.0" encoding="UTF-8" standalone="no"?>
<!-- Created with Inkscape (http://www.inkscape.org/) -->

<svg
   width="118.78613mm"
   height="44.836918mm"
   viewBox="0 0 118.78613 44.836918"
   version="1.1"
   id="svg1"
   inkscape:export-filename="logo_text.svg"
   inkscape:export-xdpi="96"
   inkscape:export-ydpi="96"
   xmlns:inkscape="http://www.inkscape.org/namespaces/inkscape"
   xmlns:sodipodi="http://sodipodi.sourceforge.net/DTD/sodipodi-0.dtd"
   xmlns="http://www.w3.org/2000/svg"
   xmlns:svg="http://www.w3.org/2000/svg">
  <sodipodi:namedview
     id="namedview1"
     pagecolor="#ffffff"
     bordercolor="#000000"
     borderopacity="0.25"
     inkscape:showpageshadow="2"
     inkscape:pageopacity="0.0"
     inkscape:pagecheckerboard="0"
     inkscape:deskcolor="#d1d1d1"
     inkscape:document-units="mm" />
  <defs
     id="defs1" />
  <g
     inkscape:label="Ebene 1"
     inkscape:groupmode="layer"
     id="layer1"
     transform="translate(-11.236086,-15.347165)">
    <g
       id="g1"
       transform="matrix(0.28425667,0,0,0.28425667,11.988182,8.8039313)">
      <g
         id="layer1-3"
         transform="translate(-9.2556228,-26.274881)">
        <path
           id="path51"
           style="fill:#6bbf66;fill-opacity:1;stroke-width:0.264583"
           d="m 167.56323,92.856163 -0.12919,10.332707 -9.72421,-7.758601 -50.29506,50.519801 -0.0363,48.8049 17.60461,0.0377 c 2.49448,-4.67147 5.17759,-7.56059 9.99242,-9.71682 1.25886,-0.48964 2.50624,-0.96039 3.70416,-1.5875 2.19602,-1.86432 2.98258,-5.30231 3.55224,-7.99383 0.47319,-2.35137 0.61931,-6.40752 2.79776,-7.88117 0.35543,-0.0287 0.67309,-0.0331 0.98857,-0.006 v 5.2e-4 c 0.31548,0.0267 0.62858,0.0839 0.97359,0.1757 0.2286,0.0822 0.45043,0.16205 0.67231,0.24185 0.26099,0.093 0.51409,0.18316 0.76739,0.27336 0.27833,0.1022 0.54893,0.20156 0.81907,0.30076 0.57347,0.20925 1.14673,0.41907 1.71979,0.62942 0.90155,0.33515 1.80332,0.66803 2.70888,0.99219 0.59184,0.21175 1.18235,0.42662 1.77199,0.6444 0.426,0.15833 0.4263,0.15848 0.84387,0.31368 0.76379,0.26924 1.51015,0.54722 2.25051,0.8754 0.58902,0.30196 0.58899,0.30206 0.79892,1.10174 -0.009,0.27442 -0.0184,0.54084 -0.0274,0.80719 0.54472,3.69198 0.86445,7.35645 0.86145,11.08614 -10e-4,0.18874 -0.002,0.37233 -0.002,0.55552 -0.003,1.41286 -0.0309,2.8203 -0.0661,4.23334 -0.0845,1.60606 -0.16656,3.16473 -0.24856,4.72374 h -0.0372 v 0.0289 l 19.62154,0.0419 0.12868,-57.08798 26.08988,-0.25839 -26.34775,-24.41091 0.12919,-19.761077 z m -31.51539,42.474417 v 5.2e-4 c 1.05946,0.0142 2.08754,0.0845 3.16053,0.26717 0.0291,0.58289 0.0291,0.58289 -0.27078,1.30534 -0.18058,0.46817 -0.18059,0.46821 -0.3576,0.92708 -0.35438,0.9274 -0.67222,1.70286 -1.2237,2.53008 -1.0795,-0.80963 -2.12725,-1.59545 -3.175,-2.38125 0.26988,-0.89958 0.53182,-1.77272 0.79375,-2.64584 0.36292,-0.006 0.71964,-0.007 1.0728,-0.003 z m 5.01313,0.004 c 0.90991,0.1126 0.91078,0.11262 1.76992,0.46302 0.17724,0.0705 0.34939,0.13934 0.52142,0.20774 l 1.13326,0.44493 c 2.92519,1.1543 5.85233,2.30371 8.79895,3.40238 0.24603,0.0915 0.48467,0.18043 0.72347,0.26923 1.16926,0.43516 2.33834,0.87023 3.50934,1.3007 1.22933,0.45186 2.45691,0.90758 3.67678,1.38441 3.57934,1.42446 4.76546,3.18228 6.27352,6.6735 0.31615,0.7325 0.63831,1.4623 0.96066,2.19211 0.0834,0.18868 0.16447,0.37187 0.24547,0.555 0.82936,1.88426 1.71711,3.73529 2.63136,5.58003 0.81605,1.60624 1.46202,2.95502 1.50482,4.77903 -0.17991,0.17992 -0.35455,0.35454 -0.52917,0.52917 -1.27399,0.0695 -2.16199,-0.0757 -3.34295,-0.53795 -0.28123,-0.11278 -0.55438,-0.22179 -0.82734,-0.33125 -0.30484,-0.12211 -0.60071,-0.24063 -0.89658,-0.35915 -0.31819,-0.12774 -0.62702,-0.25171 -0.93586,-0.37569 -0.88773,-0.35578 -1.77533,-0.71201 -2.66289,-1.06815 -0.20216,-0.0811 -0.39857,-0.15943 -0.59479,-0.23823 -0.50958,0.99614 -1.00398,1.99185 -1.45108,3.01791 -0.11386,0.27831 -0.22435,0.54842 -0.33486,0.81855 -0.19918,0.48476 -0.39788,0.96972 -0.59531,1.45521 0.44978,0.0899 0.88634,0.17728 1.32291,0.26458 0.19152,0.58405 0.28656,0.96115 0.14883,1.56683 -0.07,0.17701 -0.13777,0.34909 -0.20567,0.5209 -0.11091,0.28706 -0.11092,0.28706 -0.21963,0.56844 -0.11926,0.29541 -0.11926,0.29542 -0.23616,0.58498 -0.26717,0.68481 -0.53659,1.36826 -0.81028,2.05052 -0.80299,0.0455 -0.8028,0.0452 -1.54565,-0.27544 -1.72455,-0.71798 -3.45573,-1.40978 -5.20691,-2.06034 -0.2359,-0.0872 -0.46506,-0.17161 -0.69402,-0.25631 -0.94067,-0.34913 -1.88145,-0.69799 -2.82257,-1.04593 -0.72308,-0.26619 -1.44604,-0.53264 -2.16834,-0.80099 -0.23156,-0.0861 -0.45634,-0.16961 -0.68109,-0.25321 -1.01032,-0.36944 -1.98228,-0.61905 -2.75642,-1.3932 0.93529,-2.40501 0.9353,-2.40506 1.85208,-4.7625 0.76242,-0.0405 0.76242,-0.0404 1.33428,0.17363 0.19292,0.0759 0.38017,0.14955 0.56741,0.22325 0.19503,0.0759 0.38432,0.14954 0.57361,0.22324 0.14794,0.059 0.29153,0.11633 0.43512,0.17363 -0.17029,-0.58288 -0.26785,-1.11058 -0.30645,-1.71824 -0.006,-0.37762 -0.006,-0.37761 -0.0124,-0.74776 -0.008,-0.42951 -0.007,-0.42959 -0.0155,-0.85059 -0.004,-0.31041 -0.009,-0.61134 -0.0129,-0.91261 -0.0172,-0.96672 -0.0343,-1.93388 -0.0496,-2.9006 -0.0106,-0.67291 -0.0216,-1.34558 -0.0331,-2.01848 -0.0313,-1.80254 -0.0613,-3.60534 -0.0899,-5.40794 -0.004,-0.26525 -0.004,-0.26504 -0.008,-0.52503 -0.44979,-0.17992 -0.88635,-0.35453 -1.32291,-0.52916 -3.67438,5.39674 -9.09218,9.86937 -15.30553,12.00856 -1.6396,0.49974 -3.68793,1.24888 -5.33197,0.42685 -0.0113,-0.44083 -0.0107,-0.88208 0,-1.32291 0.32045,-0.34249 0.32045,-0.3425 1.06556,-0.73691 2.79607,-1.62402 5.30301,-3.30071 7.41867,-5.78673 0.25836,-0.31316 0.25836,-0.31315 0.5116,-0.62011 1.76524,-2.09519 3.5386,-4.28527 4.49792,-6.87917 -0.6297,-0.26988 -1.2409,-0.53182 -1.85209,-0.79375 0.12948,-0.57318 0.28463,-1.11289 0.48886,-1.6645 0.13359,-0.33078 0.13365,-0.33052 0.26458,-0.65474 0.0975,-0.24247 0.19221,-0.47779 0.28681,-0.71313 0.10173,-0.2509 0.20051,-0.49442 0.29921,-0.73794 0.34656,-0.86018 0.6934,-1.72025 1.04179,-2.57969 z" />
        <path
           id="path56"
           style="fill:#409dd7;fill-opacity:1;stroke-width:0.264583"
           d="m 52.45661,96.180485 -16.9447,15.189775 c 0.0667,0.5216 0.20867,0.85533 0.8356,2.28668 0.0886,0.19848 0.17445,0.39129 0.26045,0.58394 0.28956,0.65756 0.57961,1.31483 0.87127,1.97146 0.21101,0.47495 0.42143,0.94987 0.63148,1.42523 0.67437,1.52803 1.35074,3.05524 2.02882,4.58164 0.11873,0.26716 0.23409,0.52672 0.34933,0.786 1.02141,2.29818 2.0428,4.59645 3.06648,6.89363 1.32817,2.98023 2.64308,5.96502 3.93,8.96328 1.19645,2.78825 2.43286,5.53734 3.85144,8.22017 0.52771,-0.0965 1.05727,-0.18298 1.5875,-0.26458 4.41867,-0.3218 8.30148,1.10691 11.64167,3.96875 -0.97763,0.40341 -0.97777,0.40313 -2.00557,0.66662 -0.21215,0.0551 -0.41781,0.10877 -0.62373,0.16227 -0.69046,0.1809 -1.38102,0.36157 -2.07171,0.54156 -0.49437,0.12881 -0.98884,0.25784 -1.48311,0.38706 -1.29339,0.33839 -2.58676,0.67645 -3.88039,1.01389 -1.34129,0.34987 -2.6824,0.7 -4.02352,1.05058 -2.88843,0.75512 -5.77733,1.50975 -8.66614,2.26343 0.12148,-0.90827 0.23838,-1.76591 0.5054,-2.64376 1.12629,-2.81769 2.54059,-4.62957 5.34024,-5.88182 0.2547,-0.10387 0.2547,-0.10386 0.50436,-0.20567 0,-1.0365 -0.19892,-1.6395 -0.6041,-2.57503 -0.0982,-0.221 -0.19357,-0.43507 -0.28887,-0.64958 -0.34795,-0.79715 -0.69659,-1.59416 -1.04748,-2.39003 -0.31878,-0.72277 -0.63638,-1.44614 -0.95291,-2.1699 -2.1341,-4.88122 -4.28145,-9.75619 -6.44974,-14.62236 -1.76869,-3.96859 -3.50576,-7.95061 -5.225,-11.94087 -0.0743,-0.17263 -0.14645,-0.3399 -0.21859,-0.50746 l -26.7653002,23.99285 26.1198602,0.18241 -0.18242,56.98877 69.77455,0.36536 0.54829,-48.76912 z m 15.01975,57.516385 c 0.29006,0.39109 0.57576,0.78581 0.83923,1.19528 0.11385,0.18385 0.22438,0.36261 0.33486,0.54105 1.25684,2.01865 2.28636,4.12025 3.29334,6.27197 1.08104,2.31049 2.22209,4.58122 3.44837,6.81819 0.1447,0.2622 0.14445,0.26234 0.28629,0.51935 1.23772,2.25262 2.75858,3.99275 4.63382,5.72626 0.13366,0.12208 0.26353,0.24063 0.39326,0.35915 1.36279,1.24902 2.63383,2.16696 4.34909,2.87735 0.85129,0.31742 1.50516,0.58451 2.26549,1.0914 -2.12562,0.59369 -4.23591,1.21509 -6.33501,1.89756 -0.6244,0.20429 -1.24943,0.40754 -1.8743,0.6103 -1.17758,0.38189 -2.35475,0.76454 -3.53157,1.14877 -0.84168,0.27494 -1.68363,0.54916 -2.52595,0.82217 -0.32708,0.10594 -0.64475,0.20878 -0.96221,0.31161 -1.6938,0.5563 -3.35376,1.18226 -5.14387,1.29501 -7.04405,-5.82049 -7.04414,-5.8206 -11.47837,-14.29474 -0.14548,-0.26742 -0.28667,-0.52696 -0.42788,-0.78651 0.94925,5.88531 2.8128,12.82155 7.60367,16.73076 0.20347,0.15884 0.40093,0.313 0.59841,0.46716 -2.79036,0.37456 -5.58206,0.76727 -8.39225,0.95704 -0.19957,0.0119 -0.39335,0.0235 -0.58705,0.0351 -0.626,0.0392 -1.2408,0.0631 -1.86862,0.0661 -0.95281,-1.45426 -0.95292,-1.45473 -1.57303,-3.12487 -0.0781,-0.17462 -0.15374,-0.34366 -0.22944,-0.51315 -3.50945,-7.84946 -7.25342,-15.89294 -8.78086,-24.40781 0.52175,-0.1295 1.04305,-0.26062 1.56321,-0.39636 0.18119,-0.048 0.3569,-0.0945 0.53279,-0.14108 0.20944,-0.0554 0.41271,-0.1095 0.61598,-0.1633 0.45922,-0.12168 0.91844,-0.24327 1.37769,-0.36483 0.25357,-0.0671 0.50009,-0.13231 0.74621,-0.19741 1.33682,-0.35394 2.67365,-0.70751 4.01061,-1.06091 1.71779,-0.45405 3.43557,-0.9079 5.15317,-1.36271 1.41485,-0.37478 2.83011,-0.74961 4.24522,-1.12345 0.53653,-0.14168 1.07271,-0.28299 1.60921,-0.42478 0.77362,-0.2052 1.54743,-0.41068 2.3213,-0.61495 0.35689,-0.094 0.35661,-0.0943 0.70642,-0.18655 v 5.2e-4 c 0.91495,-0.24348 1.83183,-0.57878 2.78277,-0.57878 z m 17.50953,4.20853 a 4.5753689,4.5753689 0 0 1 4.57543,4.57543 4.5753689,4.5753689 0 0 1 -4.57543,4.57492 4.5753689,4.5753689 0 0 1 -4.57543,-4.57492 4.5753689,4.5753689 0 0 1 4.57543,-4.57543 z m 9.72912,11.53831 a 2.2505271,2.2505271 0 0 1 2.25051,2.25051 2.2505271,2.2505271 0 0 1 -2.25051,2.25051 2.2505271,2.2505271 0 0 1 -2.25051,-2.25051 2.2505271,2.2505271 0 0 1 2.25051,-2.25051 z" />
      </g>
      <path
         id="path52"
         style="fill:#ee5868;fill-opacity:1;stroke-width:0.264583"
         d="M 95.442897,23.018751 46.104305,67.190732 69.600546,90.442029 c 0.0501,-0.1033 0.0977,-0.20665 0.152445,-0.3111 0.24151,-0.5151 0.427478,-1.05317 0.623218,-1.58698 0.15883,-0.43065 0.326716,-0.85448 0.508496,-1.27589 0.32926,-0.76826 0.631087,-1.5274 0.848527,-2.33577 0.0762,-0.21784 0.07641,-0.21754 0.290938,-0.43202 0.11566,-0.32182 0.218167,-0.6452 0.318327,-0.97203 0.11765,-0.37081 0.250228,-0.71335 0.429948,-1.05885 0.23201,-0.44819 0.387129,-0.90708 0.538468,-1.38752 0.32826,-1.01616 0.328462,-1.01599 0.536402,-1.5012 0.25898,-0.6198 0.436101,-1.26658 0.622701,-1.91099 0.11761,-0.40368 0.237831,-0.80062 0.392741,-1.19166 0.230759,-0.59902 0.375564,-1.22236 0.532784,-1.84381 0.0328,-0.12833 0.06552,-0.25691 0.09922,-0.38913 0.065,-0.25482 0.129734,-0.50987 0.194304,-0.764809 0.0753,-0.296469 0.151877,-0.592299 0.228926,-0.888318 0.0381,-0.148149 0.07609,-0.296247 0.114205,-0.444417 0.0318,-0.123169 0.0629,-0.246711 0.0956,-0.37362 0.0607,-0.27858 0.103479,-0.543054 0.135909,-0.825273 0.0494,-0.390009 0.0493,-0.389887 0.156579,-0.497127 0.0294,-0.1662 0.0533,-0.333226 0.0739,-0.500745 0.0131,-0.10375 0.02629,-0.20781 0.03979,-0.314709 0.0136,-0.11135 0.02631,-0.222718 0.04031,-0.337448 0.16962,-1.353606 0.169747,-1.353572 0.281637,-2.01073 0.304589,-1.948034 0.351081,-3.917318 0.375171,-5.884912 0.0593,-4.303447 0.05961,-4.3031 0.348816,-5.475634 0.0188,-0.08007 0.03754,-0.160387 0.05684,-0.24288 0.191259,-0.784962 0.426849,-1.636635 0.928108,-2.284098 0.2346,-0.08713 0.235062,-0.08738 0.429431,-0.107487 v -0.214457 c 0.4614,-0.03619 0.84138,-0.05736 1.26659,0.141077 0.563379,0.692152 0.739343,1.650456 0.844393,2.519742 0.0129,0.10285 0.02597,0.206158 0.03927,0.312126 0.0858,0.792397 0.126579,1.589992 0.153479,2.389002 h 0.05529 c 0.003,0.099 0.0053,0.19822 0.0083,0.30024 0.0102,0.367559 0.02052,0.735236 0.03152,1.102775 0.005,0.159039 0.009,0.317924 0.01344,0.476973 0.006,0.22868 0.01325,0.457604 0.02015,0.686263 0.004,0.13759 0.008,0.274753 0.01189,0.416512 0.005,0.219821 0.007,0.299844 0.03979,0.411861 0.227359,-0.62572 0.414594,-1.259465 0.588594,-1.905826 0.0559,-0.20526 0.111939,-0.410218 0.167949,-0.615467 0.136799,-0.501919 0.272474,-1.00418 0.408243,-1.506368 0.0765,-0.282909 0.153267,-0.565797 0.230477,-0.848527 0.0723,-0.264829 0.144321,-0.529645 0.215491,-0.794783 0.1782,-0.651528 0.376981,-1.278275 0.640271,-1.90066 0.1216,-0.294879 0.206785,-0.596042 0.291455,-0.903304 0.21298,-0.711856 0.524245,-1.342663 0.871265,-1.997294 0.0763,-0.15845 0.152343,-0.317114 0.227893,-0.47594 0.24884,-0.49564 0.559667,-0.976507 1.059367,-1.240234 0.487129,-0.05413 0.731849,-0.0697 1.159619,0.167948 0.518309,0.577542 0.610596,1.163048 0.596346,1.909961 -10e-4,0.08437 -0.0021,0.168873 -0.0031,0.255799 -0.0396,1.533643 -0.446036,2.988145 -0.842326,4.461743 -0.165669,0.618898 -0.313051,1.241241 -0.450101,1.867069 -0.0605,0.268439 -0.11674,0.517949 -0.24288,0.763778 -0.211819,0.433899 -0.286087,0.9161 -0.391707,1.384928 -0.0246,0.10431 -0.04901,0.208801 -0.07441,0.31626 -0.0439,0.19321 -0.07269,0.376868 -0.103353,0.56224 h 0.02997 v 0.643371 c 0.0345,0.01724 0.06971,0.03483 0.104387,0.05219 0.11887,-0.223653 0.228025,-0.450153 0.325045,-0.695565 0.0995,-0.185799 0.0994,-0.186148 0.201021,-0.375688 0.25104,-0.493668 0.400652,-1.009036 0.557072,-1.538924 0.0795,-0.269109 0.163191,-0.534461 0.253731,-0.799951 0.14715,-0.435908 0.285267,-0.874923 0.422197,-1.314132 0.0228,-0.073 0.04575,-0.145925 0.06925,-0.221175 0.1189,-0.381669 0.237307,-0.763621 0.355017,-1.145667 0.0233,-0.07533 0.04628,-0.150278 0.07028,-0.227893 0.0646,-0.208846 0.129457,-0.417899 0.193787,-0.626835 0.11291,-0.346753 0.235592,-0.686255 0.365352,-1.02681 0.19663,-0.525564 0.374752,-1.057876 0.557072,-1.588534 0.26677,-0.769143 0.510609,-1.436071 1.030428,-2.073258 0.0332,-0.09069 0.066,-0.181486 0.100252,-0.274919 0.23718,-0.544106 0.627834,-0.725412 1.107944,-0.733289 0.16004,-0.0026 0.32983,0.014 0.50746,0.04289 0.39238,0.11394 0.65388,0.269908 0.86816,0.623734 0.60549,1.532028 -0.01,3.139356 -0.43925,4.631242 -0.0367,0.128079 -0.0733,0.256129 -0.1111,0.38809 -0.0379,0.132364 -0.0762,0.264633 -0.11524,0.401009 -0.0571,0.199363 -0.0569,0.199685 -0.11524,0.403077 -0.0743,0.258185 -0.14964,0.515802 -0.22531,0.773596 -0.1806,0.620368 -0.33736,1.234665 -0.4563,1.869653 -0.0751,0.364649 -0.18949,0.709599 -0.30386,1.064018 -0.3233,1.043967 -0.489083,2.110265 -0.661453,3.187402 -0.0395,0.222911 -0.09041,0.441049 -0.142627,0.660425 l 0.307991,0.153996 c -0.006,0.04452 -0.01272,0.09031 -0.01912,0.134875 0.0332,-0.062 0.0661,-0.124275 0.100249,-0.188102 0.15615,-0.315259 0.27843,-0.636294 0.40153,-0.965833 0.23918,-0.633898 0.49481,-1.234003 0.85679,-1.809191 0.21636,-0.377219 0.34008,-0.769021 0.47698,-1.18029 0.11363,-0.280299 0.25,-0.473655 0.43563,-0.710034 0.0741,-0.17645 0.14769,-0.353377 0.21962,-0.530717 0.16704,-0.361579 0.38403,-0.692576 0.59325,-1.030945 0.13349,-0.22983 0.2374,-0.449995 0.33331,-0.697115 0.0464,-0.103949 0.0927,-0.20812 0.14056,-0.315226 0.10617,-0.03539 0.21257,-0.07103 0.32195,-0.107487 0.006,-0.07506 0.0122,-0.150038 0.0186,-0.227377 0.11726,-0.409581 0.35763,-0.657674 0.64492,-0.958598 0.0504,-0.05537 0.10054,-0.110906 0.15245,-0.167948 0.55411,-0.593409 1.11304,-1.081162 1.97197,-0.898136 0.47317,0.1913 0.78111,0.425611 1.0728,0.844909 0.4583,1.374916 -0.024,2.750607 -0.63045,3.981153 -0.11151,0.214579 -0.22295,0.428991 -0.33486,0.643371 -0.10971,0.223309 -0.21944,0.446704 -0.32867,0.670244 -0.22205,0.445828 -0.46443,0.86493 -0.73483,1.282609 -0.18132,0.299359 -0.30495,0.619349 -0.4377,0.942578 -0.0704,0.14355 -0.14239,0.286485 -0.21498,0.428914 -0.19644,0.386839 -0.36903,0.779335 -0.53588,1.179773 -0.32173,0 -0.32159,-6.2e-5 -0.47491,-0.152962 -0.0511,-0.0668 -0.10233,-0.133265 -0.15503,-0.202055 -0.32229,-0.420039 -0.64068,-0.67589 -1.1715,-0.771529 -0.59538,-0.01178 -1.02077,0.06194 -1.44023,0.310058 0.0437,0.02184 0.087,0.04325 0.13178,0.06563 -0.22277,0.228559 -0.44624,0.45633 -0.67024,0.683679 -0.0944,0.097 -0.0945,0.09732 -0.19069,0.19637 -0.0615,0.0622 -0.12317,0.12452 -0.18655,0.188619 -0.0562,0.0573 -0.11216,0.114613 -0.17002,0.173633 -0.039,0.03361 -0.0782,0.06368 -0.117301,0.0925 l -0.05943,0.05943 c -0.002,-0.0043 -0.0047,-0.0086 -0.0067,-0.01292 -0.13112,0.08832 -0.267067,0.15748 -0.422197,0.227376 l -0.0072,-0.0067 c -0.0847,0.412209 -0.343043,0.739418 -0.596862,1.105876 -0.11899,0.179559 -0.237424,0.359868 -0.355534,0.540018 -0.0855,0.129809 -0.0855,0.129581 -0.1726,0.262 -0.457439,0.717858 -0.789525,1.499576 -1.120345,2.281514 -0.0706,0.143449 -0.142087,0.286355 -0.214457,0.428915 -0.335269,0.664178 -0.59832,1.345992 -0.84801,2.04587 -0.11391,0.304299 -0.24107,0.599317 -0.37207,0.896586 -0.28711,0.676108 -0.492289,1.370926 -0.695048,2.075842 -0.14041,0.48633 -0.295074,0.96012 -0.476974,1.43247 -0.30487,0.80986 -0.504046,1.61557 -0.577226,2.47685 -0.104959,0.83778 -0.509696,1.23393 -1.105875,1.79627 -0.11341,0.13035 -0.22547,0.26252 -0.33538,0.39584 -0.39923,0.45802 -0.825934,0.88864 -1.253154,1.32034 -0.072,0.0734 -0.143914,0.14662 -0.218074,0.22221 -0.1021,0.10229 -0.102029,0.10234 -0.206189,0.2067 -0.0922,0.0929 -0.09239,0.0928 -0.186552,0.18759 -0.16011,0.13404 -0.160175,0.13384 -0.374654,0.13384 v 0.21446 c -0.58727,0.5362 -0.587169,0.5364 -0.857829,0.5364 v 0.21445 c -0.47943,0.42897 -0.479609,0.42892 -0.750859,0.42892 v 0.21446 c -0.241729,0.21017 -0.483626,0.40829 -0.736906,0.60358 -0.0698,0.0553 -0.139953,0.11045 -0.211873,0.16743 -0.524599,0.40885 -0.524448,0.40876 -0.766878,0.40876 v 0.21446 c -0.17695,0.0708 -0.354092,0.14153 -0.536402,0.21445 v 0.21446 c -0.141549,0.0354 -0.283064,0.071 -0.428914,0.10749 v 0.21446 c -0.15667,0.13823 -0.156465,0.13785 -0.361735,0.28111 -0.0672,0.0478 -0.134385,0.096 -0.203605,0.14522 -0.18516,0.10976 -0.184979,0.10955 -0.399459,0.10955 v 0.21446 c -0.15667,0.13824 -0.156982,0.13836 -0.362252,0.28163 -0.0672,0.0478 -0.134385,0.096 -0.203605,0.14521 -0.18516,0.10975 -0.184979,0.10956 -0.399459,0.10956 v 0.21446 c -0.14155,0.0354 -0.283064,0.071 -0.428914,0.10748 v 0.21446 c -0.21557,0.16741 -0.431508,0.32206 -0.656808,0.47542 -0.564969,0.39334 -1.116003,0.7994 -1.655712,1.2268 -0.0612,0.0484 -0.122479,0.0969 -0.185519,0.14676 -0.27002,0.21451 -0.537865,0.43053 -0.802535,0.65164 -0.23836,0.18013 -0.238722,0.18035 -0.453202,0.18035 v 0.21446 c -0.12871,0.11357 -0.17929,0.14803 -0.29714,0.23099 l 0.479041,0.47388 c 0.0288,-0.0365 0.04187,-0.0707 0.08217,-0.11111 0.0655,-0.0472 0.130988,-0.0945 0.198438,-0.14314 0.0713,-0.0518 0.142071,-0.10369 0.215491,-0.1571 0.0749,-0.0527 0.149729,-0.1049 0.226859,-0.15916 0.0744,-0.0543 0.149126,-0.10888 0.225826,-0.16485 0.55462,-0.39838 0.554672,-0.39842 0.799951,-0.39842 v -0.21446 c 0.15884,-0.14892 0.158712,-0.14888 0.379822,-0.31833 0.0798,-0.0612 0.159596,-0.12242 0.241846,-0.18552 0.0845,-0.0637 0.169215,-0.12762 0.256315,-0.19327 0.0825,-0.0637 0.164637,-0.12761 0.249597,-0.19327 0.40188,-0.30564 0.75367,-0.54436 1.231449,-0.7183 v -0.21446 c 0.15667,-0.13823 0.156982,-0.13836 0.362252,-0.28163 0.0672,-0.0478 0.134385,-0.0954 0.203605,-0.1447 0.18516,-0.10975 0.184979,-0.10955 0.399459,-0.10955 v -0.21497 c 0.14156,-0.0354 0.283065,-0.0705 0.428915,-0.10697 v -0.21446 c 0.156669,-0.13825 0.156992,-0.13838 0.362251,-0.28164 0.0672,-0.0478 0.134386,-0.0954 0.203606,-0.14469 0.185159,-0.10976 0.184979,-0.11007 0.399458,-0.11007 v -0.21446 c 0.14156,-0.0354 0.283065,-0.0705 0.428915,-0.10697 v -0.21446 c 0.22189,-0.19024 0.443731,-0.36788 0.676961,-0.54312 0.0638,-0.0493 0.12754,-0.0986 0.19327,-0.14934 0.27951,-0.21267 0.509987,-0.3755 0.845426,-0.48731 v -0.21446 c 0.17695,-0.0708 0.354092,-0.14154 0.536402,-0.21446 v -0.21445 c 0.479429,-0.42896 0.479609,-0.42892 0.750858,-0.42892 v -0.21445 c 0.14942,-0.1286 0.305104,-0.25026 0.462504,-0.36897 1.490349,-1.19536 2.802608,-2.59918 3.934127,-4.13515 l 0.107487,-0.10749 c 0.009,-0.1518 0.01515,-0.30381 0.02015,-0.45579 0.052,-0.6481 0.215695,-1.24813 0.395325,-1.87017 0.0275,-0.0955 0.0549,-0.191 0.0832,-0.28938 0.168049,-0.56821 0.357988,-1.12255 0.573608,-1.67432 0.31332,-0.81616 0.624075,-1.627257 0.871265,-2.466514 0.13642,-0.458879 0.296055,-0.864934 0.522965,-1.285192 0.12753,-0.25808 0.22017,-0.520848 0.31471,-0.792717 0.207749,-0.586318 0.471816,-1.123851 0.757576,-1.67535 0.15498,-0.307909 0.308714,-0.616509 0.462504,-0.925008 0.0755,-0.1511 0.150783,-0.302133 0.226343,-0.453202 0.0557,-0.11142 0.111592,-0.223174 0.168982,-0.337964 h 0.214457 c 0.009,-0.0934 0.01777,-0.186898 0.02687,-0.283187 0.24484,-1.096677 1.506432,-2.277893 2.332672,-3.00085 0.44506,-0.20399 0.8066,-0.254538 1.28674,-0.147278 0.56706,0.289749 0.93226,0.814195 1.1927,1.382344 0.29972,1.059036 0.16573,2.215317 -0.22738,3.228744 -0.0517,0.16522 -0.10347,0.330654 -0.15451,0.496093 -0.12968,0.385659 -0.29131,0.741403 -0.48266,1.100192 -0.12428,0.239049 -0.12402,0.238988 -0.23978,0.548287 -0.25613,0.604808 -0.62161,1.152398 -0.96635,1.709456 -0.10524,0.17138 -0.10555,0.171383 -0.21291,0.346232 -0.0146,0.02379 -0.0293,0.04753 -0.0439,0.07131 0.0207,0.04147 0.0413,0.08255 0.0625,0.125057 -0.0354,0.106159 -0.071,0.212554 -0.10749,0.321944 0.0329,0.01645 0.0666,0.03305 0.0997,0.04961 0.11653,-0.07385 0.16592,-0.106488 0.40979,-0.237195 0.77295,-0.434659 1.48671,-0.94386 2.20607,-1.461409 0.0896,-0.064 0.17897,-0.127877 0.2713,-0.193787 0.0805,-0.0581 0.16093,-0.116327 0.24391,-0.176216 0.20081,-0.12591 0.20099,-0.125574 0.41548,-0.125574 v -0.214466 c 0.14155,-0.0354 0.28306,-0.07105 0.42891,-0.107487 v -0.214458 c 0.15667,-0.138239 0.15647,-0.138367 0.36174,-0.281636 0.0672,-0.0478 0.13438,-0.09544 0.2036,-0.144694 0.18515,-0.10975 0.18549,-0.110071 0.39998,-0.110071 v -0.214457 c 0.47943,-0.428959 0.47909,-0.428914 0.75034,-0.428914 v -0.214458 c 0.17695,-0.0708 0.35409,-0.141537 0.5364,-0.214457 V 68.5214 c 0.18013,-0.18516 0.18005,-0.185017 0.41548,-0.388607 0.0771,-0.0677 0.15463,-0.135365 0.2341,-0.205155 0.20862,-0.15668 0.20823,-0.157097 0.42271,-0.157097 0.0354,-0.10616 0.071,-0.212038 0.10749,-0.321427 h 0.214453 v -0.214457 c 0.17625,-0.146039 0.35572,-0.288385 0.5364,-0.428915 0.2883,-0.273879 0.5494,-0.552209 0.80409,-0.857828 0.25449,-0.305389 0.52273,-0.577807 0.80408,-0.858346 0.68061,-0.709588 1.33186,-1.434793 1.9389,-2.208651 1.02959,-1.286986 2.36252,-2.936502 4.13515,-2.868558 0.11818,0.0045 0.23857,0.0168 0.3607,0.03721 v -5.17e-4 c 0.43243,0.23965 0.70101,0.494857 0.85783,0.965316 0.0738,1.069617 -0.28618,1.853148 -0.90485,2.707845 -0.0512,0.073 -0.10226,0.145965 -0.15503,0.221175 -0.27753,0.392879 -0.56543,0.773864 -0.87023,1.146183 -0.0748,0.0925 -0.14981,0.184796 -0.22686,0.280086 -1.42182,1.745065 -1.42186,1.745212 -1.91823,2.18643 h -0.21446 c -0.025,0.0603 -0.0502,0.120318 -0.076,0.182418 -0.17291,0.307159 -0.38735,0.511797 -0.64131,0.756026 -0.40125,0.392609 -0.77802,0.793115 -1.14256,1.219564 -0.18348,0.207709 -0.37548,0.402604 -0.57309,0.596863 -0.58893,0.574468 -0.58891,0.574395 -0.89142,1.320333 0.0904,-0.0542 0.18073,-0.108501 0.27388,-0.164331 0.17626,-0.10451 0.17624,-0.10422 0.35605,-0.21084 0.11695,-0.0697 0.23401,-0.139577 0.3545,-0.211357 0.30245,-0.164209 0.30229,-0.164331 0.51677,-0.164331 v -0.214457 c 0.20904,-0.151229 0.20915,-0.150946 0.50281,-0.328145 0.60753,-0.373809 1.18641,-0.776818 1.76578,-1.192176 0.26081,-0.16671 0.4329,-0.257794 0.73433,-0.302824 v -0.214457 c 0.58035,-0.428968 0.58025,-0.428914 0.85782,-0.428914 v -0.21446 c 0.20661,-0.16077 0.41366,-0.308937 0.62994,-0.455787 0.62271,-0.433239 1.22638,-0.885634 1.82314,-1.353922 0.16419,-0.12821 0.32876,-0.256314 0.493,-0.384473 0.23962,-0.1871 0.47907,-0.374113 0.7183,-0.561723 2.4597,-1.922064 2.45949,-1.922165 3.91449,-1.898075 0.37494,0.0642 0.59723,0.217229 0.8661,0.481108 0.24738,0.376849 0.22172,0.740026 0.13436,1.169954 -0.16086,0.382049 -0.16108,0.382489 -0.32195,0.643888 h -0.21446 c -0.0225,0.0751 -0.045,0.150037 -0.0682,0.227377 -0.18678,0.394429 -0.4593,0.660448 -0.76946,0.958598 -0.0559,0.0554 -0.11189,0.110898 -0.1695,0.167948 -0.91624,0.897927 -0.91633,0.898136 -1.24489,0.898136 v 0.214458 c -0.16169,0.147449 -0.33048,0.286666 -0.50229,0.422196 l -0.32401,0.258899 c -0.0573,0.0458 -0.11457,0.09133 -0.17363,0.138493 -0.36913,0.298799 -0.72896,0.608701 -1.09038,0.91674 -0.16061,0.13658 -0.3219,0.272434 -0.48317,0.408243 -0.0976,0.0823 -0.19556,0.164341 -0.29611,0.249081 -0.24046,0.179719 -0.24028,0.179834 -0.45475,0.179834 v 0.214457 c -0.15744,0.14065 -0.32202,0.273343 -0.48938,0.402043 -0.34596,0.268919 -0.68416,0.540534 -1.01182,0.831473 -0.32172,0.2681 -0.32191,0.268201 -0.5364,0.268201 v 0.214457 c -0.14997,0.14368 -0.14977,0.143381 -0.36174,0.31471 -0.7586,0.646377 -1.47485,1.343126 -1.89032,2.258776 0.21234,-0.0708 0.4246,-0.14154 0.64337,-0.21446 v -0.21445 c 0.21574,-0.15416 0.21586,-0.15387 0.50281,-0.32143 0.0933,-0.0553 0.18652,-0.11098 0.28267,-0.16795 0.26941,-0.14474 0.5371,-0.26123 0.82321,-0.36845 v -0.21446 c 0.20359,-0.161689 0.20363,-0.16195 0.46922,-0.33538 0.0871,-0.0578 0.17433,-0.115648 0.26407,-0.175183 0.23207,-0.133209 0.23199,-0.132808 0.44648,-0.132808 v -0.214457 c 0.14155,-0.0354 0.28307,-0.07106 0.42892,-0.107487 v -0.214458 c 0.14325,-0.1 0.28758,-0.198452 0.43511,-0.291971 0.52882,-0.347199 1.02406,-0.746745 1.52807,-1.128614 3.79073,-2.860432 3.79072,-2.860638 5.75831,-2.654618 0.28821,0.160859 0.28816,0.160815 0.42891,0.428914 0.0907,0.679958 -0.0418,1.153367 -0.42891,1.716175 -0.24127,0.287549 -0.49049,0.563325 -0.74828,0.836124 -0.231,0.238829 -0.23101,0.23885 -0.43149,0.557589 h -0.21446 c -0.0354,0.10616 -0.071,0.212555 -0.10749,0.321944 -0.1906,0.19563 -0.19055,0.195505 -0.4222,0.395325 -0.11426,0.100159 -0.1139,0.100402 -0.23047,0.202572 -0.20484,0.152909 -0.20514,0.152962 -0.41961,0.152962 -0.0354,0.10617 -0.0705,0.212037 -0.10698,0.321427 -0.1432,0.14141 -0.14339,0.141634 -0.32401,0.282153 -0.0655,0.0512 -0.13099,0.102261 -0.19843,0.155031 -0.0688,0.0526 -0.1374,0.10549 -0.20826,0.15968 -0.10129,0.0795 -0.1013,0.079 -0.20464,0.1602 -0.32199,0.24968 -0.62555,0.46248 -0.99529,0.63717 v 0.21445 c -0.14155,0.0354 -0.28306,0.071 -0.42891,0.10749 v 0.21446 c -0.15667,0.13824 -0.15647,0.13785 -0.36174,0.28112 -0.0672,0.0478 -0.13438,0.096 -0.2036,0.14521 -0.18515,0.10976 -0.18549,0.10955 -0.39998,0.10955 v 0.21446 c -0.151,0.10579 -0.30268,0.21079 -0.45837,0.30954 -0.29774,0.19255 -0.57539,0.4116 -0.85524,0.6289 -0.09,0.0693 -0.0897,0.0693 -0.18139,0.14005 -0.4764,0.3684 -0.94435,0.74706 -1.40818,1.13119 -0.20652,0.14997 -0.20667,0.14987 -0.42116,0.14987 v 0.21445 c -0.47943,0.42896 -0.47909,0.42892 -0.75034,0.42892 v 0.21445 c 1.10389,-0.40765 2.20173,-0.82296 3.27732,-1.30173 0.75682,-0.33 1.53045,-0.59923 2.31252,-0.86299 0.10869,-0.037 0.2172,-0.0739 0.32918,-0.11214 0.96869,-0.32198 1.89702,-0.54963 2.92126,-0.54467 0.0743,-0.002 0.14875,-0.004 0.22531,-0.005 0.53206,-4.1e-4 0.53202,-6e-4 0.79065,0.18811 0.29078,0.42834 0.31386,0.84723 0.22428,1.35185 -0.17429,0.29494 -0.37629,0.53567 -0.64337,0.75086 h -0.21446 v 0.21446 c -0.36259,0.3286 -0.76619,0.5795 -1.18339,0.83147 -0.21556,0.13183 -0.21572,0.13174 -0.42116,0.29817 -0.23111,0.16602 -0.44181,0.25902 -0.70797,0.35812 -0.38824,0.14962 -0.76829,0.30851 -1.14618,0.48266 -0.87225,0.40097 -1.75252,0.78491 -2.64739,1.13275 -0.73235,0.2903 -1.44207,0.63106 -2.1518,0.97203 -0.10933,0.0524 -0.10912,0.0526 -0.22066,0.10594 -0.84889,0.40865 -1.6593,0.82877 -2.435,1.36839 -0.23962,0.13405 -0.23972,0.13436 -0.66869,0.13436 v 0.21445 c -0.37159,0.10617 -0.37177,0.10615 -0.75086,0.21446 v 0.21446 c -0.11115,0.0582 -0.22189,0.11626 -0.33641,0.17622 -0.14691,0.0775 -0.29391,0.15502 -0.4408,0.23254 -0.0731,0.0382 -0.14635,0.0763 -0.22169,0.11575 -0.37095,0.19628 -0.70319,0.40202 -1.0387,0.65526 h -0.21446 v 0.21446 c -0.61663,0.32172 -0.61654,0.32143 -0.85783,0.32143 v 0.21445 c -0.18013,0.13824 -0.18004,0.13837 -0.41547,0.28164 -0.0771,0.0478 -0.1541,0.096 -0.23358,0.14521 -0.208623,0.10976 -0.208753,0.10956 -0.423233,0.10956 v 0.21445 c -0.15835,0.12022 -0.15821,0.12031 -0.38861,0.26149 -0.46056,0.29663 -0.8918,0.61893 -1.32085,0.95859 -0.0641,0.0506 -0.12778,0.10081 -0.19378,0.15297 -0.2985,0.23688 -0.59508,0.47589 -0.89039,0.71675 -0.0955,0.0778 -0.19097,0.15597 -0.28939,0.23616 -0.12524,0.10347 -0.12543,0.10321 -0.25321,0.20877 -0.20275,0.14621 -0.20254,0.14625 -0.41703,0.14625 v 0.21445 c -0.47943,0.42896 -0.47961,0.42892 -0.75086,0.42892 v 0.21445 c -0.58728,0.53621 -0.58718,0.53641 -0.85783,0.53641 v 0.21445 c -0.47943,0.42896 -0.4796,0.42892 -0.75086,0.42892 -0.0354,0.10617 -0.0711,0.21255 -0.10748,0.32194 -0.18306,0.18809 -0.18296,0.18794 -0.40876,0.38189 -0.11052,0.0964 -0.11051,0.0964 -0.22325,0.19482 -0.2258,0.17384 -0.22563,0.17352 -0.46147,0.2837 -0.23128,0.0965 -0.23116,0.0968 -0.30024,0.42633 -0.18683,0.18432 -0.18675,0.18416 -0.41548,0.37518 -0.31945,0.26839 -0.31951,0.26838 -0.61753,0.55965 -0.14662,0.13741 -0.14674,0.13746 -0.361215,0.13746 v 0.21446 c -0.14243,0.13992 -0.142706,0.14011 -0.348816,0.30851 -0.48426,0.40876 -0.924345,0.85317 -1.363225,1.30948 -0.140499,0.14373 -0.286368,0.28218 -0.433048,0.41961 h -0.214457 c -0.0354,0.10617 -0.0705,0.21256 -0.10697,0.32194 h -0.214458 c -0.0354,0.10617 -0.07101,0.21205 -0.107487,0.32143 h -0.214457 v 0.21446 c -0.15374,0.15122 -0.153553,0.15146 -0.368453,0.32866 -0.445279,0.37623 -0.849507,0.78182 -1.252636,1.20251 -0.20192,0.184741 -0.202043,0.185001 -0.416513,0.185001 -0.0354,0.10617 -0.0705,0.21205 -0.10697,0.32143 h -0.214457 v 0.21446 c -0.13489,0.13614 -0.13514,0.13632 -0.33538,0.30179 -0.30994,0.262 -0.611325,0.53024 -0.906405,0.80873 -0.100549,0.0948 -0.100518,0.0945 -0.203088,0.19121 -0.13542,0.12811 -0.270443,0.25664 -0.405143,0.3855 -0.48576,0.45773 -0.485927,0.45786 -0.723987,0.45786 v 0.21445 c -0.0901,0.0926 -0.155819,0.14575 -0.207739,0.19431 l 13.160434,13.02297 49.338593,-49.33807 z m 9.186003,16.685803 a 7.0286917,7.0286917 0 0 0 5.72937,5.675106 7.0286917,7.0286917 0 0 0 -5.75211,5.785693 7.0286917,7.0286917 0 0 0 -5.789823,-5.742802 l 0.078,-0.07855 a 7.0286917,7.0286917 0 0 0 5.734533,-5.639449 z m 11.6396,7.594885 a 8.7713429,8.7713429 0 0 0 7.14995,7.081739 8.7713429,8.7713429 0 0 0 -7.17837,7.220231 8.7713429,8.7713429 0 0 0 -7.22592,-7.166488 l 0.0977,-0.09767 a 8.7713429,8.7713429 0 0 0 7.15667,-7.037814 z m -14.96446,9.287806 a 4.5275283,4.5275283 0 0 0 3.69021,3.65559 4.5275283,4.5275283 0 0 0 -3.7052,3.726905 4.5275283,4.5275283 0 0 0 -3.729483,-3.698999 l 0.0501,-0.05013 a 4.5275283,4.5275283 0 0 0 3.693833,-3.632854 z m 21.11861,5.826001 a 4.05226,4.05226 0 0 0 3.30315,3.271635 4.05226,4.05226 0 0 0 -3.31607,3.335713 4.05226,4.05226 0 0 0 -3.3383,-3.310909 l 0.045,-0.04547 a 4.05226,4.05226 0 0 0 3.30626,-3.250964 z M 92.399667,73.346945 c -3.5e-4,1.4e-4 -7.2e-4,3.77e-4 -10e-4,5.17e-4 h 10e-4 z" />
      <path
         id="rect66"
         style="fill:#ee5868;fill-opacity:1;stroke-width:0.0773583"
         d="m 118.57999,23.819736 a 4.05226,4.05226 0 0 1 -3.31608,3.335713 4.05226,4.05226 0 0 1 3.30316,3.270602 4.05226,4.05226 0 0 1 3.30574,-3.249931 l 0.0455,-0.04547 a 4.05226,4.05226 0 0 1 -3.3383,-3.310909 z m 6.16965,7.419185 a 8.7713429,8.7713429 0 0 1 -7.17838,7.220231 8.7713429,8.7713429 0 0 1 7.14996,7.080705 8.7713429,8.7713429 0 0 1 7.15615,-7.03678 l 0.0982,-0.09767 a 8.7713429,8.7713429 0 0 1 -7.22591,-7.166488 z" />
    </g>
    <text
       xml:space="preserve"
       style="font-size:29.1682px;font-family:'Rethink Sans';-inkscape-font-specification:'Rethink Sans';fill:#142981;fill-opacity:1;stroke-width:2.43068"
       x="63.897934"
       y="42.942818"
       id="text1"><tspan
         sodipodi:role="line"
         id="tspan1"
         style="fill:#ffffff;fill-opacity:1;stroke-width:2.43068"
         x="63.897934"
         y="42.942818">WESI</tspan><tspan
         sodipodi:role="line"
         style="fill:#142981;fill-opacity:1;stroke-width:2.43068"
         x="63.897934"
         y="79.403069"
         id="tspan2" /></text>
    <text
       xml:space="preserve"
       style="font-size:13.7289px;font-family:'Rethink Sans';-inkscape-font-specification:'Rethink Sans';fill:#646464;fill-opacity:1;stroke-width:1.14407"
       x="70.064781"
       y="56.998978"
       id="text3"><tspan
         sodipodi:role="line"
         id="tspan3"
         style="fill:#ffffff;fill-opacity:1;stroke-width:1.14407"
         x="70.064781"
         y="56.998978">Reinigung</tspan></text>
    <path
       style="fill:#000000;fill-opacity:0;stroke-width:0.976312"
       d="m 258.78732,124.7238 c -7.20667,-20.27067 -13.30258,-37.433021 -13.54648,-38.138561 -0.33102,-0.957564 0.61731,-1.205094 3.74041,-0.976311 l 4.18387,0.306487 7.18073,20.990695 c 13.94714,40.77021 16.22174,46.98112 16.91737,46.19382 0.82943,-0.93871 11.72668,-31.65757 11.72133,-33.04188 -0.002,-0.52142 -2.63805,-8.39018 -5.85787,-17.48612 -3.21981,-9.095939 -5.8542,-16.674557 -5.8542,-16.841372 0,-0.166814 1.86719,-0.300625 4.14932,-0.297358 l 4.14933,0.0059 4.31164,13.662421 c 2.3714,7.514329 4.5681,13.659749 4.88156,13.656479 0.31345,-0.003 2.51015,-6.15403 4.88155,-13.668361 l 4.31165,-13.66242 h 4.19245 4.19246 l -6.00547,17.258881 -6.00547,17.25889 5.80002,16.90764 c 3.19001,9.2992 6.07614,16.90961 6.41362,16.91202 0.33748,0.002 5.82924,-15.36909 12.2039,-34.15889 l 11.59029,-34.163273 4.21511,-0.0076 c 3.58353,-0.0065 4.12923,0.248371 3.64198,1.700911 -0.31522,0.9397 -6.39096,17.964132 -13.50164,37.832072 l -12.92851,36.12352 -4.99166,0.29086 c -4.06611,0.23692 -5.11893,-0.0346 -5.67804,-1.46447 -0.3775,-0.96543 -3.10551,-8.56509 -6.06223,-16.88815 -2.95673,-8.32306 -5.66946,-15.44134 -6.02829,-15.8184 -0.35884,-0.37707 -3.45291,7.20155 -6.87572,16.84137 l -6.22328,17.52695 h -5.00835 -5.00836 z"
       id="path3"
       transform="scale(0.26458333)" />
  </g>
</svg>
