<?xml version="1.0" encoding="UTF-8" standalone="no"?>
<!-- Created with Inkscape (http://www.inkscape.org/) -->

<svg
   width="82.502373mm"
   height="20.251207mm"
   viewBox="0 0 82.502373 20.251207"
   version="1.1"
   id="svg22541"
   xmlns="http://www.w3.org/2000/svg"
   xmlns:svg="http://www.w3.org/2000/svg">
  <defs
     id="defs22538" />
  <g
     id="layer1"
     transform="translate(-31.074465,-74.467682)">
    <rect
       x="31.074465"
       y="74.467682"
       class="st1"
       width="82.502373"
       height="20.251209"
       id="rect22229"
       style="fill:#f1f2f2;fill-opacity:0;stroke-width:0.264583" />
    <g
       id="g22298"
       transform="matrix(0.26458333,0,0,0.26458333,-411.21627,-456.7257)">
      <path
         class="st15"
         d="m 1920.01,2022.44 h -81.3 l -1.46,9.02 h 75.5 c 1.47,-3.38 3.94,-6.44 7.26,-9.02 z"
         id="path22258"
         style="fill:#ed1c24" />
      <path
         class="st15"
         d="m 1713.4,2038.07 -4.64,7.43 c -1.99,-1.61 -4.5,-2.89 -8.19,-2.89 -2.56,0 -3.79,0.85 -3.79,2.51 0,1.18 0.85,2.03 5.54,2.84 9.42,1.94 12.02,5.54 12.02,10.84 0,7 -5.11,11.64 -13.72,11.64 -5.44,0 -10.5,-1.66 -14.05,-4.78 l 4.83,-7.48 c 2.22,2.46 6.1,4.07 9.51,4.07 3.08,0 4.45,-0.9 4.45,-2.6 0,-1.23 -0.99,-2.08 -5.68,-2.93 -9.37,-1.99 -11.92,-6.1 -11.92,-11.12 0,-6.34 4.97,-11.17 12.87,-11.17 5.15,-0.01 9.83,1.37 12.77,3.64 z"
         id="path22260"
         style="fill:#ed1c24" />
      <path
         class="st15"
         d="m 1745.43,2070.29 h -0.19 l -7.52,-16.32 -7.52,16.32 h -0.19 l -14.57,-35.25 h 9.98 l 5.54,15.66 6.67,-15.66 h 0.19 l 6.67,15.66 5.54,-15.66 h 9.98 z"
         id="path22262"
         style="fill:#ed1c24" />
      <path
         class="st15"
         d="m 1772.35,2069.82 h -8.99 v -34.78 h 8.99 z"
         id="path22264"
         style="fill:#ed1c24" />
      <path
         class="st15"
         d="m 1802.78,2038.07 -4.64,7.43 c -1.99,-1.61 -4.5,-2.89 -8.19,-2.89 -2.56,0 -3.79,0.85 -3.79,2.51 0,1.18 0.85,2.03 5.54,2.84 9.42,1.94 12.02,5.54 12.02,10.84 0,7 -5.11,11.64 -13.72,11.64 -5.44,0 -10.5,-1.66 -14.05,-4.78 l 4.83,-7.48 c 2.22,2.46 6.1,4.07 9.51,4.07 3.08,0 4.45,-0.9 4.45,-2.6 0,-1.23 -0.99,-2.08 -5.68,-2.93 -9.37,-1.99 -11.92,-6.1 -11.92,-11.12 0,-6.34 4.97,-11.17 12.87,-11.17 5.15,-0.01 9.84,1.37 12.77,3.64 z"
         id="path22266"
         style="fill:#ed1c24" />
      <path
         class="st15"
         d="m 1831.88,2038.07 -4.64,7.43 c -1.99,-1.61 -4.49,-2.89 -8.19,-2.89 -2.56,0 -3.79,0.85 -3.79,2.51 0,1.18 0.85,2.03 5.54,2.84 9.42,1.94 12.02,5.54 12.02,10.84 0,7 -5.11,11.64 -13.72,11.64 -5.44,0 -10.5,-1.66 -14.05,-4.78 l 4.83,-7.48 c 2.22,2.46 6.1,4.07 9.51,4.07 3.08,0 4.45,-0.9 4.45,-2.6 0,-1.23 -0.99,-2.08 -5.68,-2.93 -9.37,-1.99 -11.92,-6.1 -11.92,-11.12 0,-6.34 4.97,-11.17 12.87,-11.17 5.15,-0.01 9.84,1.37 12.77,3.64 z"
         id="path22268"
         style="fill:#ed1c24" />
      <path
         class="st2"
         d="m 1858.95,2041.62 h -14.53 v 8 h 12.07 v 6.15 h -12.07 v 14.05 h -7.24 v -34.78 h 21.77 z"
         id="path22270"
         style="fill:#f19220" />
      <path
         class="st2"
         d="m 1897.13,2052.5 c 0,10.36 -7.67,17.93 -17.89,17.93 -10.27,0 -17.84,-7.57 -17.84,-17.93 0,-10.46 7.57,-18.08 17.84,-18.08 10.23,0 17.89,7.62 17.89,18.08 z m -28.44,0 c 0,6.62 4.35,11.36 10.55,11.36 6.2,0 10.55,-4.73 10.55,-11.36 0,-6.72 -4.35,-11.5 -10.55,-11.5 -6.19,0 -10.55,4.78 -10.55,11.5 z"
         id="path22272"
         style="fill:#f19220" />
      <path
         class="st2"
         d="m 1930.73,2039 c -0.94,2.25 -2.29,4.27 -3.99,5.98 1.48,1.97 2.33,4.55 2.33,7.51 0,6.62 -4.35,11.36 -10.55,11.36 -6.2,0 -10.55,-4.73 -10.55,-11.36 0,-2.53 0.62,-4.78 1.72,-6.61 -0.69,-0.63 -1.32,-1.33 -1.87,-2.1 -1.04,-1.46 -1.56,-2.93 -1.92,-4.38 -3.26,3.22 -5.21,7.79 -5.21,13.09 0,10.36 7.57,17.93 17.84,17.93 10.22,0 17.89,-7.57 17.89,-17.93 -0.02,-5.52 -2.16,-10.25 -5.69,-13.49 z"
         id="path22274"
         style="fill:#f19220" />
      <path
         class="st2"
         d="m 1971.32,2052.4 c 0,10.98 -7.05,17.41 -19.02,17.41 h -11.07 v -34.78 h 11.07 c 11.88,0.01 19.02,6.4 19.02,17.37 z m -22.85,-10.74 v 21.58 h 3.6 c 7.85,0 11.92,-3.97 11.92,-10.79 0,-6.86 -4.12,-10.79 -11.92,-10.79 z"
         id="path22276"
         style="fill:#f19220" />
      <path
         class="st3"
         d="m 1925.1,2026.77 c -3.02,2.6 -5.27,6.17 -6.48,9.89 -0.63,-0.66 -1.33,-1.23 -2.1,-1.73 -0.31,-0.2 -0.63,-0.39 -0.96,-0.57 1.58,-4.92 6.04,-9.76 13.45,-12.95 0.24,5.03 2.41,9.06 1.25,14.15 -1.16,5.1 -4.55,9.39 -9.21,11.68 0.61,-1.71 0.79,-3.52 0.44,-5.32 -0.24,-1.25 -0.72,-2.38 -1.38,-3.41 0.51,-4.19 2.22,-8.41 4.99,-11.74 z"
         id="path22278"
         style="clip-rule:evenodd;fill:#5fb94d;fill-rule:evenodd" />
      <path
         class="st3"
         d="m 1909.94,2035.87 c 5.08,1.64 9.32,6.34 9.73,10.98 2.43,-6.5 -3,-13.26 -13.67,-13.34 1.2,3.28 0.9,6.43 3.02,9.41 2.12,2.95 5.47,4.77 9.1,4.97 -0.3,-4.71 -3.56,-9.63 -8.18,-12.02 z"
         id="path22280"
         style="clip-rule:evenodd;fill:#5fb94d;fill-rule:evenodd" />
      <g
         id="g22296">
        <path
           class="st0"
           d="m 1842.47,2025 -0.18,1.15 h 2.03 l -0.24,1.53 h -2.03 l -0.19,1.21 h 2.14 l -0.24,1.53 h -3.95 l 1.1,-6.94 h 3.95 l -0.25,1.53 h -2.14 z"
           id="path22282"
           style="fill:#ffffff" />
        <path
           class="st0"
           d="m 1847.84,2023.47 h 2.22 l 0.77,1.79 1.34,-1.79 h 2.22 l -2.73,3.23 1.98,3.71 h -2.17 l -1.1,-2.26 -1.95,2.26 h -2.18 l 3.3,-3.71 z"
           id="path22284"
           style="fill:#ffffff" />
        <path
           class="st0"
           d="m 1857.3,2023.47 h 2.75 c 1.5,0 2.41,0.69 2.16,2.28 -0.26,1.65 -1.24,2.36 -2.82,2.36 h -1.02 l -0.37,2.3 h -1.8 z m 1.29,3.19 h 0.3 c 0.65,0 1.31,0 1.43,-0.85 0.15,-0.88 -0.47,-0.88 -1.16,-0.88 h -0.3 z"
           id="path22286"
           style="fill:#ffffff" />
        <path
           class="st0"
           d="m 1870.07,2030.41 h -2.25 l -1.28,-2.67 h -0.02 l -0.42,2.67 h -1.8 l 1.1,-6.94 h 2.69 c 1.38,0 2.3,0.65 2.08,2.13 -0.15,0.96 -0.83,1.78 -1.83,1.96 z m -3.36,-3.83 h 0.17 c 0.6,0 1.27,-0.1 1.39,-0.87 0.12,-0.76 -0.53,-0.87 -1.11,-0.87 h -0.17 z"
           id="path22288"
           style="fill:#ffffff" />
        <path
           class="st0"
           d="m 1875.25,2025 -0.18,1.15 h 2.03 l -0.24,1.53 h -2.03 l -0.19,1.21 h 2.14 l -0.24,1.53 h -3.95 l 1.1,-6.94 h 3.95 l -0.25,1.53 h -2.14 z"
           id="path22290"
           style="fill:#ffffff" />
        <path
           class="st0"
           d="m 1884.31,2025.26 c -0.29,-0.29 -0.68,-0.46 -1.12,-0.46 -0.33,0 -0.82,0.19 -0.86,0.58 -0.07,0.4 0.4,0.57 0.69,0.66 l 0.44,0.14 c 0.91,0.29 1.6,0.77 1.41,1.89 -0.11,0.7 -0.39,1.4 -1.01,1.87 -0.63,0.47 -1.37,0.65 -2.07,0.65 -0.88,0 -1.68,-0.29 -2.32,-0.79 l 1,-1.45 c 0.4,0.4 0.86,0.72 1.49,0.72 0.42,0 0.91,-0.21 0.98,-0.7 0.07,-0.5 -0.59,-0.69 -0.97,-0.79 -1.09,-0.32 -1.79,-0.62 -1.56,-1.96 0.22,-1.41 1.37,-2.33 2.76,-2.33 0.7,0 1.52,0.21 2.08,0.57 z"
           id="path22292"
           style="fill:#ffffff" />
        <path
           class="st0"
           d="m 1892,2025.26 c -0.29,-0.29 -0.68,-0.46 -1.12,-0.46 -0.33,0 -0.82,0.19 -0.86,0.58 -0.07,0.4 0.4,0.57 0.69,0.66 l 0.44,0.14 c 0.91,0.29 1.6,0.77 1.41,1.89 -0.11,0.7 -0.39,1.4 -1.01,1.87 -0.63,0.47 -1.37,0.65 -2.07,0.65 -0.88,0 -1.68,-0.29 -2.32,-0.79 l 1,-1.45 c 0.4,0.4 0.86,0.72 1.49,0.72 0.42,0 0.91,-0.21 0.98,-0.7 0.07,-0.5 -0.59,-0.69 -0.97,-0.79 -1.09,-0.32 -1.79,-0.62 -1.56,-1.96 0.22,-1.41 1.37,-2.33 2.76,-2.33 0.7,0 1.52,0.21 2.08,0.57 z"
           id="path22294"
           style="fill:#ffffff" />
      </g>
    </g>
  </g>
</svg>
