<?xml version="1.0" encoding="UTF-8" standalone="no"?>
<!-- Created with Inkscape (http://www.inkscape.org/) -->

<svg
   width="187.49962mm"
   height="37.49939mm"
   viewBox="0 0 187.49962 37.49939"
   version="1.1"
   id="svg42265"
   xmlns="http://www.w3.org/2000/svg"
   xmlns:svg="http://www.w3.org/2000/svg">
  <defs
     id="defs42262" />
  <g
     id="layer1"
     transform="translate(-7.0972087,-149.32865)">
    <path
       class="st0"
       d="M 159.57393,152.05916 H 107.1441 l -0.94192,5.81554 h 48.68862 c 0.94721,-2.18017 2.54265,-4.15396 4.68313,-5.81554 z"
       id="path20054"
       style="fill:#ffffff;stroke-width:0.264583" />
    <g
       id="g20078"
       transform="matrix(0.26458333,0,0,0.26458333,-485.27121,-105.47303)">
	<path
   class="st1"
   d="m 1933.61,1011.44 -11.3,18.11 c -4.84,-3.92 -10.96,-7.03 -19.95,-7.03 -6.23,0 -9.23,2.08 -9.23,6.11 0,2.88 2.08,4.96 13.49,6.92 22.95,4.73 29.29,13.49 29.29,26.41 0,17.07 -12.46,28.37 -33.45,28.37 -13.26,0 -25.6,-4.04 -34.25,-11.65 l 11.76,-18.22 c 5.42,6 14.88,9.92 23.18,9.92 7.5,0 10.84,-2.19 10.84,-6.34 0,-3 -2.42,-5.08 -13.84,-7.15 -22.84,-4.84 -29.06,-14.88 -29.06,-27.1 0,-15.45 12.11,-27.22 31.37,-27.22 12.58,-0.01 24,3.33 31.15,8.87 z"
   id="path20056"
   style="fill:#f1f2f2" />

	<path
   class="st1"
   d="m 2011.69,1089.98 h -0.46 l -18.34,-39.79 -18.34,39.79 h -0.46 l -35.52,-85.92 h 24.34 l 13.49,38.18 16.26,-38.18 h 0.46 l 16.26,38.18 13.49,-38.18 h 24.34 z"
   id="path20058"
   style="fill:#f1f2f2" />

	<path
   class="st1"
   d="m 2077.31,1088.82 h -21.91 v -84.77 h 21.91 z"
   id="path20060"
   style="fill:#f1f2f2" />

	<path
   class="st1"
   d="m 2151.47,1011.44 -11.3,18.11 c -4.84,-3.92 -10.96,-7.03 -19.95,-7.03 -6.23,0 -9.23,2.08 -9.23,6.11 0,2.88 2.08,4.96 13.49,6.92 22.95,4.73 29.29,13.49 29.29,26.41 0,17.07 -12.46,28.37 -33.45,28.37 -13.26,0 -25.6,-4.04 -34.25,-11.65 l 11.76,-18.22 c 5.42,6 14.88,9.92 23.18,9.92 7.5,0 10.84,-2.19 10.84,-6.34 0,-3 -2.42,-5.08 -13.84,-7.15 -22.84,-4.84 -29.06,-14.88 -29.06,-27.1 0,-15.45 12.11,-27.22 31.37,-27.22 12.58,-0.01 24,3.33 31.15,8.87 z"
   id="path20062"
   style="fill:#f1f2f2" />

	<path
   class="st1"
   d="m 2222.4,1011.44 -11.3,18.11 c -4.84,-3.92 -10.96,-7.03 -19.95,-7.03 -6.23,0 -9.23,2.08 -9.23,6.11 0,2.88 2.08,4.96 13.49,6.92 22.95,4.73 29.3,13.49 29.3,26.41 0,17.07 -12.46,28.37 -33.45,28.37 -13.26,0 -25.6,-4.04 -34.25,-11.65 l 11.76,-18.22 c 5.42,6 14.88,9.92 23.18,9.92 7.5,0 10.84,-2.19 10.84,-6.34 0,-3 -2.42,-5.08 -13.84,-7.15 -22.84,-4.84 -29.06,-14.88 -29.06,-27.1 0,-15.45 12.11,-27.22 31.37,-27.22 12.57,-0.01 23.99,3.33 31.14,8.87 z"
   id="path20064"
   style="fill:#f1f2f2" />

	<path
   class="st2"
   d="m 2288.37,1020.09 h -35.41 v 19.49 h 29.41 v 14.99 h -29.41 v 34.25 h -17.65 v -84.77 h 53.05 v 16.04 z"
   id="path20066"
   style="fill:#f19220" />

	<path
   class="st2"
   d="m 2381.44,1046.61 c 0,25.26 -18.68,43.71 -43.59,43.71 -25.03,0 -43.48,-18.45 -43.48,-43.71 0,-25.49 18.45,-44.06 43.48,-44.06 24.9,0.01 43.59,18.57 43.59,44.06 z m -69.32,0 c 0,16.15 10.61,27.68 25.72,27.68 15.11,0 25.72,-11.53 25.72,-27.68 0,-16.38 -10.61,-28.03 -25.72,-28.03 -15.11,0.01 -25.72,11.66 -25.72,28.03 z"
   id="path20068"
   style="fill:#f19220" />

	<path
   class="st2"
   d="m 2463.34,1013.72 c -2.28,5.48 -5.59,10.42 -9.73,14.58 3.61,4.79 5.68,11.09 5.68,18.31 0,16.15 -10.61,27.68 -25.72,27.68 -15.11,0 -25.72,-11.53 -25.72,-27.68 0,-6.16 1.5,-11.65 4.18,-16.11 -1.68,-1.53 -3.21,-3.23 -4.57,-5.12 -2.54,-3.56 -3.81,-7.15 -4.68,-10.68 -7.94,7.85 -12.69,18.99 -12.69,31.91 0,25.26 18.45,43.71 43.48,43.71 24.91,0 43.6,-18.45 43.6,-43.71 -0.01,-13.47 -5.23,-25.01 -13.83,-32.89 z"
   id="path20070"
   style="fill:#f19220" />

	<path
   class="st2"
   d="m 2562.28,1046.38 c 0,26.76 -17.18,42.44 -46.36,42.44 h -26.99 v -84.77 h 26.99 c 28.94,0 46.36,15.58 46.36,42.33 z m -55.71,-26.18 v 52.59 h 8.77 c 19.15,0 29.06,-9.69 29.06,-26.3 0,-16.72 -10.03,-26.3 -29.06,-26.3 h -8.77 z"
   id="path20072"
   style="fill:#f19220" />

	<path
   class="st3"
   d="m 2449.62,983.91 c -7.36,6.35 -12.85,15.04 -15.78,24.1 -1.55,-1.6 -3.25,-2.99 -5.12,-4.21 -0.75,-0.48 -1.55,-0.96 -2.35,-1.39 3.84,-12 14.72,-23.78 32.79,-31.57 0.59,12.26 5.87,22.08 3.04,34.5 -2.83,12.42 -11.09,22.88 -22.45,28.47 1.49,-4.16 1.92,-8.59 1.07,-12.96 -0.59,-3.04 -1.76,-5.81 -3.36,-8.32 1.23,-10.23 5.39,-20.52 12.16,-28.62 z"
   id="path20074"
   style="clip-rule:evenodd;fill:#5fb94d;fill-rule:evenodd" />

	<path
   class="st3"
   d="m 2412.67,1006.09 c 12.37,4 22.71,15.46 23.73,26.77 5.92,-15.84 -7.3,-32.31 -33.33,-32.53 2.93,8 2.19,15.68 7.36,22.93 5.17,7.2 13.33,11.62 22.18,12.1 -0.75,-11.46 -8.69,-23.46 -19.94,-29.27 z"
   id="path20076"
   style="clip-rule:evenodd;fill:#5fb94d;fill-rule:evenodd" />

</g>
    <g
       id="g20094"
       transform="matrix(0.26458333,0,0,0.26458333,-485.27121,-105.47303)">
	<path
   class="st4"
   d="m 2248.22,979.57 -0.45,2.81 h 4.96 l -0.58,3.73 h -4.96 l -0.47,2.94 h 5.23 l -0.58,3.73 h -9.63 l 2.69,-16.92 h 9.63 l -0.61,3.73 h -5.23 z"
   id="path20080"
   style="fill:#e01f26" />

	<path
   class="st4"
   d="m 2261.3,975.84 h 5.41 l 1.88,4.38 3.28,-4.38 h 5.41 l -6.67,7.88 4.83,9.05 h -5.3 l -2.67,-5.52 -4.76,5.52 h -5.32 l 8.06,-9.05 z"
   id="path20082"
   style="fill:#e01f26" />

	<path
   class="st4"
   d="m 2284.35,975.84 h 6.71 c 3.66,0 5.88,1.68 5.28,5.57 -0.63,4.02 -3.03,5.75 -6.89,5.75 h -2.49 l -0.9,5.61 h -4.4 z m 3.16,7.77 h 0.74 c 1.59,0 3.19,0 3.48,-2.06 0.36,-2.15 -1.14,-2.15 -2.83,-2.15 h -0.74 z"
   id="path20084"
   style="fill:#e01f26" />

	<path
   class="st4"
   d="m 2315.5,992.77 h -5.48 l -3.12,-6.51 h -0.04 l -1.03,6.51 h -4.4 l 2.69,-16.92 h 6.55 c 3.37,0 5.61,1.59 5.07,5.21 -0.36,2.33 -2.02,4.35 -4.47,4.78 z m -8.19,-9.34 h 0.43 c 1.46,0 3.1,-0.25 3.39,-2.11 0.29,-1.86 -1.3,-2.11 -2.72,-2.11 h -0.43 z"
   id="path20086"
   style="fill:#e01f26" />

	<path
   class="st4"
   d="m 2328.11,979.57 -0.45,2.81 h 4.96 l -0.58,3.73 h -4.96 l -0.47,2.94 h 5.23 l -0.58,3.73 h -9.63 l 2.69,-16.92 h 9.63 l -0.61,3.73 h -5.23 z"
   id="path20088"
   style="fill:#e01f26" />

	<path
   class="st4"
   d="m 2350.19,980.2 c -0.72,-0.7 -1.66,-1.12 -2.74,-1.12 -0.81,0 -2,0.47 -2.11,1.41 -0.18,0.97 0.99,1.39 1.68,1.62 l 1.08,0.34 c 2.22,0.7 3.91,1.89 3.43,4.62 -0.27,1.71 -0.94,3.41 -2.47,4.56 -1.53,1.14 -3.34,1.59 -5.05,1.59 -2.15,0 -4.11,-0.7 -5.66,-1.93 l 2.45,-3.55 c 0.96,0.97 2.11,1.75 3.64,1.75 1.03,0 2.22,-0.52 2.4,-1.71 0.18,-1.21 -1.44,-1.68 -2.36,-1.93 -2.65,-0.79 -4.35,-1.5 -3.82,-4.78 0.54,-3.43 3.34,-5.68 6.73,-5.68 1.71,0 3.7,0.52 5.07,1.39 z"
   id="path20090"
   style="fill:#e01f26" />

	<path
   class="st4"
   d="m 2368.95,980.2 c -0.72,-0.7 -1.66,-1.12 -2.74,-1.12 -0.81,0 -2,0.47 -2.11,1.41 -0.18,0.97 0.99,1.39 1.68,1.62 l 1.08,0.34 c 2.22,0.7 3.91,1.89 3.43,4.62 -0.27,1.71 -0.94,3.41 -2.47,4.56 -1.53,1.14 -3.34,1.59 -5.05,1.59 -2.15,0 -4.11,-0.7 -5.66,-1.93 l 2.45,-3.55 c 0.96,0.97 2.11,1.75 3.64,1.75 1.03,0 2.22,-0.52 2.4,-1.71 0.18,-1.21 -1.44,-1.68 -2.36,-1.93 -2.65,-0.79 -4.35,-1.5 -3.82,-4.78 0.54,-3.43 3.34,-5.68 6.73,-5.68 1.71,0 3.7,0.52 5.07,1.39 z"
   id="path20092"
   style="fill:#e01f26" />

</g>
    <rect
       x="7.0972095"
       y="149.32866"
       class="st16"
       width="187.49962"
       height="37.499393"
       id="rect22348"
       style="fill:none;stroke:#000000;stroke-width:0;stroke-miterlimit:10;stroke-dasharray:none" />
  </g>
</svg>
