<?xml version="1.0" encoding="UTF-8" standalone="no"?>
<!-- Created with Inkscape (http://www.inkscape.org/) -->

<svg
   width="52.765842mm"
   height="86.513481mm"
   viewBox="0 0 52.765842 86.513481"
   version="1.1"
   id="svg31975"
   xmlns="http://www.w3.org/2000/svg"
   xmlns:svg="http://www.w3.org/2000/svg">
  <defs
     id="defs31972" />
  <g
     id="layer1"
     transform="translate(-40.479016,-120.01938)">
    <g
       id="g22116"
       transform="matrix(0.26458333,0,0,0.26458333,-502.1126,-524.14839)">
	<g
   id="g21972">
		<g
   id="g21970">
			<path
   class="st11"
   d="m 2194.57,2481.57 c -21.09,18.19 -36.84,43.11 -45.25,69.1 -4.43,-4.59 -9.32,-8.56 -14.67,-12.08 -2.14,-1.38 -4.43,-2.75 -6.73,-3.97 11.01,-34.39 42.19,-68.18 94.01,-90.49 1.68,35.16 16.81,63.28 8.71,98.9 -8.1,35.61 -31.8,65.58 -64.36,81.63 4.28,-11.93 5.5,-24.61 3.06,-37.15 -1.68,-8.71 -5.05,-16.66 -9.63,-23.84 3.53,-29.36 15.45,-58.87 34.86,-82.1 z"
   id="path21966"
   style="clip-rule:evenodd;fill:#a7a9ac;fill-rule:evenodd" />

			<path
   class="st11"
   d="m 2088.64,2545.16 c 35.46,11.46 65.12,44.33 68.02,76.73 16.97,-45.4 -20.94,-92.63 -95.54,-93.24 8.41,22.93 6.27,44.94 21.09,65.73 14.83,20.64 38.21,33.32 63.59,34.7 -2.13,-32.86 -24.9,-67.26 -57.16,-83.92 z"
   id="path21968"
   style="clip-rule:evenodd;fill:#a7a9ac;fill-rule:evenodd" />

		</g>

	</g>

	<g
   id="g22114">
		<g
   id="g22000">
			<g
   id="g21998">
				<g
   id="g21996">
					<path
   class="st12"
   d="m 2056.46,2715.81 c 0,-4 2.11,-6.29 5.97,-6.29 3.86,0 5.97,2.29 5.97,6.29 v 13.01 c 0,4 -2.11,6.29 -5.97,6.29 -3.86,0 -5.97,-2.29 -5.97,-6.29 z m 3.94,13.27 c 0,1.79 0.79,2.47 2.04,2.47 1.25,0 2.04,-0.68 2.04,-2.47 v -13.51 c 0,-1.79 -0.79,-2.47 -2.04,-2.47 -1.25,0 -2.04,0.68 -2.04,2.47 z"
   id="path21974"
   style="fill:#a7a9ac" />

					<path
   class="st12"
   d="m 2079.45,2735.12 c -3.97,0 -6.15,-2.29 -6.15,-6.29 v -1.97 c 0,-2.4 0.71,-4.25 2.43,-5.22 -1.64,-0.89 -2.43,-2.57 -2.43,-5.04 v -0.79 c 0,-4 2.18,-6.29 6.15,-6.29 3.97,0 6.15,2.29 6.15,6.29 v 0.79 c 0,2.47 -0.82,4.15 -2.43,5.04 1.72,0.97 2.43,2.82 2.43,5.22 v 1.97 c 0,4 -2.18,6.29 -6.15,6.29 z m -2.22,-17.77 c 0,2 0.93,2.65 2.22,2.65 1.25,0 2.22,-0.64 2.22,-2.65 v -1.39 c 0,-2.25 -0.96,-2.86 -2.22,-2.86 -1.25,0 -2.22,0.61 -2.22,2.86 z m 2.22,14.19 c 1.25,0 2.18,-0.61 2.22,-2.82 v -2.32 c 0,-1.97 -0.82,-2.82 -2.22,-2.82 -1.39,0 -2.22,0.86 -2.22,2.82 v 2.32 c 0,2.21 0.97,2.82 2.22,2.82 z"
   id="path21976"
   style="fill:#a7a9ac" />

					<path
   class="st12"
   d="m 2094.6,2717.42 v 3.79 h -3.79 v -3.79 z m 0,13.62 v 3.79 h -3.79 v -3.79 z"
   id="path21978"
   style="fill:#a7a9ac" />

					<path
   class="st12"
   d="m 2100,2715.81 c 0,-4 2.11,-6.29 5.97,-6.29 3.86,0 5.97,2.29 5.97,6.29 v 13.01 c 0,4 -2.11,6.29 -5.97,6.29 -3.86,0 -5.97,-2.29 -5.97,-6.29 z m 3.93,13.27 c 0,1.79 0.79,2.47 2.04,2.47 1.25,0 2.04,-0.68 2.04,-2.47 v -13.51 c 0,-1.79 -0.79,-2.47 -2.04,-2.47 -1.25,0 -2.04,0.68 -2.04,2.47 z"
   id="path21980"
   style="fill:#a7a9ac" />

					<path
   class="st12"
   d="m 2117.01,2715.81 c 0,-4 2.11,-6.29 5.97,-6.29 3.86,0 5.97,2.29 5.97,6.29 v 13.01 c 0,4 -2.11,6.29 -5.97,6.29 -3.86,0 -5.97,-2.29 -5.97,-6.29 z m 3.94,13.27 c 0,1.79 0.79,2.47 2.04,2.47 1.25,0 2.04,-0.68 2.04,-2.47 v -13.51 c 0,-1.79 -0.79,-2.47 -2.04,-2.47 -1.25,0 -2.04,0.68 -2.04,2.47 z"
   id="path21982"
   style="fill:#a7a9ac" />

					<path
   class="st12"
   d="m 2142.57,2720.53 h 7.15 v 3.58 h -7.15 z"
   id="path21984"
   style="fill:#a7a9ac" />

					<path
   class="st12"
   d="m 2169.41,2713.09 c -1.25,0 -2.04,0.68 -2.04,2.47 v 2.68 h -3.72 v -2.43 c 0,-4 2,-6.29 5.86,-6.29 3.86,0 5.86,2.29 5.86,6.29 0,7.86 -7.83,10.8 -7.83,14.91 0,0.18 0,0.36 0.04,0.54 h 7.44 v 3.58 h -11.37 v -3.08 c 0,-7.36 7.79,-8.58 7.79,-15.8 0.01,-2.26 -0.77,-2.87 -2.03,-2.87 z"
   id="path21986"
   style="fill:#a7a9ac" />

					<path
   class="st12"
   d="m 2180.35,2715.81 c 0,-4 2.11,-6.29 5.97,-6.29 3.86,0 5.97,2.29 5.97,6.29 v 13.01 c 0,4 -2.11,6.29 -5.97,6.29 -3.86,0 -5.97,-2.29 -5.97,-6.29 z m 3.93,13.27 c 0,1.79 0.79,2.47 2.04,2.47 1.25,0 2.04,-0.68 2.04,-2.47 v -13.51 c 0,-1.79 -0.79,-2.47 -2.04,-2.47 -1.25,0 -2.04,0.68 -2.04,2.47 z"
   id="path21988"
   style="fill:#a7a9ac" />

					<path
   class="st12"
   d="m 2201.48,2717.42 v 3.79 h -3.79 v -3.79 z m 0,13.62 v 3.79 h -3.79 v -3.79 z"
   id="path21990"
   style="fill:#a7a9ac" />

					<path
   class="st12"
   d="m 2206.87,2715.81 c 0,-4 2.11,-6.29 5.97,-6.29 3.86,0 5.97,2.29 5.97,6.29 v 13.01 c 0,4 -2.11,6.29 -5.97,6.29 -3.86,0 -5.97,-2.29 -5.97,-6.29 z m 3.94,13.27 c 0,1.79 0.79,2.47 2.04,2.47 1.25,0 2.04,-0.68 2.04,-2.47 v -13.51 c 0,-1.79 -0.79,-2.47 -2.04,-2.47 -1.25,0 -2.04,0.68 -2.04,2.47 z"
   id="path21992"
   style="fill:#a7a9ac" />

					<path
   class="st12"
   d="m 2223.89,2715.81 c 0,-4 2.11,-6.29 5.97,-6.29 3.86,0 5.97,2.29 5.97,6.29 v 13.01 c 0,4 -2.11,6.29 -5.97,6.29 -3.86,0 -5.97,-2.29 -5.97,-6.29 z m 3.93,13.27 c 0,1.79 0.79,2.47 2.04,2.47 1.25,0 2.04,-0.68 2.04,-2.47 v -13.51 c 0,-1.79 -0.79,-2.47 -2.04,-2.47 -1.25,0 -2.04,0.68 -2.04,2.47 z"
   id="path21994"
   style="fill:#a7a9ac" />

				</g>

			</g>

		</g>

		<g
   id="g22032">
			<g
   id="g22030">
				<path
   class="st12"
   d="m 2055.88,2664.31 c 0,-4 2.11,-6.29 5.97,-6.29 3.86,0 5.97,2.29 5.97,6.29 v 13.01 c 0,4 -2.11,6.29 -5.97,6.29 -3.86,0 -5.97,-2.29 -5.97,-6.29 z m 4.97,-10.76 v 3.43 h -3.43 v -3.43 z m -1.04,24.02 c 0,1.79 0.79,2.47 2.04,2.47 1.25,0 2.04,-0.68 2.04,-2.47 v -13.51 c 0,-1.79 -0.79,-2.47 -2.04,-2.47 -1.25,0 -2.04,0.68 -2.04,2.47 z m 6.47,-24.02 v 3.43 h -3.43 v -3.43 z"
   id="path22002"
   style="fill:#a7a9ac" />

				<path
   class="st12"
   d="m 2074.29,2669.42 h 5.08 v 3.58 h -5.08 v 10.33 h -3.93 v -25.03 h 10.4 v 3.58 h -6.47 z"
   id="path22004"
   style="fill:#a7a9ac" />

				<path
   class="st12"
   d="m 2086.59,2669.42 h 5.08 v 3.58 h -5.08 v 10.33 h -3.93 v -25.03 h 10.4 v 3.58 h -6.47 z"
   id="path22006"
   style="fill:#a7a9ac" />

				<path
   class="st12"
   d="m 2098.45,2665.2 v 18.13 h -3.54 v -25.03 h 4.93 l 4.04,14.98 v -14.98 h 3.5 v 25.03 h -4.04 z"
   id="path22008"
   style="fill:#a7a9ac" />

				<path
   class="st12"
   d="m 2113.97,2658.31 v 19.31 c 0,1.79 0.79,2.43 2.04,2.43 1.25,0 2.04,-0.64 2.04,-2.43 v -19.31 h 3.72 v 19.05 c 0,4 -2,6.29 -5.86,6.29 -3.86,0 -5.86,-2.29 -5.86,-6.29 v -19.05 z"
   id="path22010"
   style="fill:#a7a9ac" />

				<path
   class="st12"
   d="m 2127.94,2665.2 v 18.13 h -3.54 v -25.03 h 4.93 l 4.04,14.98 v -14.98 h 3.5 v 25.03 h -4.04 z"
   id="path22012"
   style="fill:#a7a9ac" />

				<path
   class="st12"
   d="m 2145.6,2669.39 h 5.51 v 7.94 c 0,4 -2,6.29 -5.86,6.29 -3.86,0 -5.86,-2.29 -5.86,-6.29 v -13.01 c 0,-4 2,-6.29 5.86,-6.29 3.86,0 5.86,2.29 5.86,6.29 v 2.43 h -3.72 v -2.68 c 0,-1.79 -0.79,-2.47 -2.04,-2.47 -1.25,0 -2.04,0.68 -2.04,2.47 v 13.51 c 0,1.79 0.79,2.43 2.04,2.43 1.25,0 2.04,-0.64 2.04,-2.43 v -4.61 h -1.79 z"
   id="path22014"
   style="fill:#a7a9ac" />

				<path
   class="st12"
   d="m 2158.93,2658.02 c 3.83,0 5.79,2.29 5.79,6.29 v 0.79 H 2161 v -1.04 c 0,-1.79 -0.71,-2.47 -1.97,-2.47 -1.25,0 -1.97,0.68 -1.97,2.47 0,5.15 7.69,6.11 7.69,13.26 0,4 -2,6.29 -5.86,6.29 -3.86,0 -5.86,-2.29 -5.86,-6.29 v -1.54 h 3.72 v 1.79 c 0,1.79 0.79,2.43 2.04,2.43 1.25,0 2.04,-0.64 2.04,-2.43 0,-5.15 -7.69,-6.11 -7.69,-13.26 0,-4 1.97,-6.29 5.79,-6.29 z"
   id="path22016"
   style="fill:#a7a9ac" />

				<path
   class="st12"
   d="m 2177.91,2658.31 v 3.5 l -7.47,17.95 h 7.47 v 3.58 h -11.51 v -3.5 l 7.47,-17.95 h -7.11 v -3.58 z"
   id="path22018"
   style="fill:#a7a9ac" />

				<path
   class="st12"
   d="m 2184.17,2668.85 h 5.4 v 3.58 h -5.4 v 7.33 h 6.79 v 3.58 h -10.73 v -25.03 h 10.73 v 3.58 h -6.79 z"
   id="path22020"
   style="fill:#a7a9ac" />

				<path
   class="st12"
   d="m 2193.39,2658.31 h 3.93 v 25.03 h -3.93 z"
   id="path22022"
   style="fill:#a7a9ac" />

				<path
   class="st12"
   d="m 2199.03,2658.31 h 12.16 v 3.58 h -4.11 v 21.45 h -3.93 v -21.45 h -4.11 v -3.58 z"
   id="path22024"
   style="fill:#a7a9ac" />

				<path
   class="st12"
   d="m 2216.83,2668.85 h 5.4 v 3.58 h -5.4 v 7.33 h 6.79 v 3.58 h -10.73 v -25.03 h 10.73 v 3.58 h -6.79 z"
   id="path22026"
   style="fill:#a7a9ac" />

				<path
   class="st12"
   d="m 2229.56,2665.2 v 18.13 h -3.54 v -25.03 h 4.93 l 4.04,14.98 v -14.98 h 3.5 v 25.03 h -4.04 z"
   id="path22028"
   style="fill:#a7a9ac" />

			</g>

		</g>

		<line
   class="st13"
   x1="2056.6599"
   y1="2690.1001"
   x2="2238.49"
   y2="2690.1001"
   id="line22034"
   style="fill:none;stroke:#a7a9ac;stroke-width:0.4633;stroke-miterlimit:10" />

		<line
   class="st13"
   x1="2056.6599"
   y1="2704.95"
   x2="2238.49"
   y2="2704.95"
   id="line22036"
   style="fill:none;stroke:#a7a9ac;stroke-width:0.4633;stroke-miterlimit:10" />

		<line
   class="st13"
   x1="2056.6599"
   y1="2739.04"
   x2="2238.49"
   y2="2739.04"
   id="line22038"
   style="fill:none;stroke:#a7a9ac;stroke-width:0.4633;stroke-miterlimit:10" />

		<line
   class="st13"
   x1="2056.6599"
   y1="2752.1599"
   x2="2238.49"
   y2="2752.1599"
   id="line22040"
   style="fill:none;stroke:#a7a9ac;stroke-width:0.4633;stroke-miterlimit:10" />

		<g
   id="g22070">
			<g
   id="g22068">
				<path
   class="st12"
   d="m 2058.32,2694.34 1.42,4.98 h 0.03 l 1.43,-4.98 h 1.1 v 6.1 h -0.84 v -2.34 l 0.08,-2.35 h -0.03 l -1.47,4.69 h -0.56 l -1.46,-4.69 h -0.03 l 0.08,2.34 v 2.34 h -0.84 v -6.1 h 1.09 z"
   id="path22042"
   style="fill:#a7a9ac" />

				<path
   class="st12"
   d="m 2074.72,2698.23 c 0,0.72 -0.19,1.29 -0.56,1.69 -0.37,0.4 -0.88,0.61 -1.5,0.61 -0.62,0 -1.11,-0.2 -1.48,-0.61 -0.37,-0.4 -0.55,-0.97 -0.55,-1.69 v -1.68 c 0,-0.72 0.18,-1.28 0.55,-1.69 0.37,-0.41 0.86,-0.61 1.48,-0.61 0.63,0 1.13,0.2 1.5,0.61 0.38,0.41 0.56,0.97 0.56,1.69 z m -0.85,-1.69 c 0,-0.53 -0.11,-0.93 -0.32,-1.21 -0.21,-0.27 -0.51,-0.41 -0.9,-0.41 -0.38,0 -0.68,0.14 -0.88,0.41 -0.2,0.28 -0.31,0.68 -0.31,1.21 v 1.69 c 0,0.54 0.1,0.94 0.31,1.22 0.21,0.28 0.5,0.42 0.88,0.42 0.39,0 0.69,-0.14 0.9,-0.41 0.21,-0.28 0.32,-0.68 0.32,-1.22 z"
   id="path22044"
   style="fill:#a7a9ac" />

				<path
   class="st12"
   d="m 2087.11,2700.44 h -0.85 l -2.31,-4.54 -0.02,0.01 v 4.53 h -0.85 v -6.1 h 0.85 l 2.31,4.52 0.03,-0.01 v -4.52 h 0.85 v 6.11 z"
   id="path22046"
   style="fill:#a7a9ac" />

				<path
   class="st12"
   d="m 2099.08,2694.98 h -1.57 v 5.45 h -0.85 v -5.45 h -1.56 v -0.65 h 3.98 z"
   id="path22048"
   style="fill:#a7a9ac" />

				<path
   class="st12"
   d="m 2109.64,2698.89 h -1.94 l -0.44,1.54 h -0.86 l 1.88,-6.1 h 0.82 l 1.86,6.1 h -0.86 z m -1.75,-0.67 h 1.55 l -0.76,-2.66 h -0.02 z"
   id="path22050"
   style="fill:#a7a9ac" />

				<path
   class="st12"
   d="m 2122.81,2699.57 c -0.14,0.25 -0.37,0.47 -0.68,0.66 -0.31,0.2 -0.72,0.29 -1.2,0.29 -0.64,0 -1.16,-0.19 -1.55,-0.58 -0.39,-0.39 -0.59,-0.94 -0.59,-1.66 v -1.81 c 0,-0.71 0.19,-1.25 0.56,-1.64 0.37,-0.39 0.86,-0.58 1.48,-0.58 0.62,0 1.1,0.16 1.43,0.47 0.33,0.31 0.5,0.75 0.53,1.32 l -0.01,0.03 h -0.8 c -0.01,-0.38 -0.11,-0.67 -0.3,-0.87 -0.19,-0.2 -0.46,-0.3 -0.83,-0.3 -0.37,0 -0.67,0.13 -0.88,0.4 -0.21,0.27 -0.32,0.66 -0.32,1.16 v 1.82 c 0,0.52 0.11,0.92 0.35,1.19 0.23,0.27 0.54,0.41 0.94,0.41 0.29,0 0.52,-0.05 0.68,-0.15 0.16,-0.1 0.28,-0.23 0.36,-0.38 v -1.39 h -1.04 v -0.62 h 1.89 v 2.23 z"
   id="path22052"
   style="fill:#a7a9ac" />

				<path
   class="st12"
   d="m 2161.88,2698.9 c 0,-0.29 -0.08,-0.52 -0.24,-0.71 -0.16,-0.18 -0.45,-0.35 -0.85,-0.49 -0.58,-0.18 -1.03,-0.41 -1.34,-0.69 -0.31,-0.28 -0.46,-0.66 -0.46,-1.12 0,-0.48 0.17,-0.87 0.52,-1.18 0.34,-0.31 0.79,-0.46 1.33,-0.46 0.56,0 1.02,0.18 1.36,0.53 0.35,0.36 0.51,0.78 0.5,1.29 l -0.01,0.03 h -0.82 c 0,-0.36 -0.09,-0.65 -0.27,-0.87 -0.18,-0.22 -0.44,-0.33 -0.77,-0.33 -0.32,0 -0.56,0.09 -0.73,0.28 -0.17,0.19 -0.26,0.42 -0.26,0.71 0,0.26 0.09,0.48 0.28,0.66 0.18,0.18 0.49,0.34 0.91,0.48 0.56,0.17 0.98,0.41 1.27,0.71 0.29,0.3 0.44,0.69 0.44,1.16 0,0.5 -0.17,0.9 -0.51,1.19 -0.34,0.29 -0.79,0.44 -1.35,0.44 -0.54,0 -1.02,-0.16 -1.43,-0.48 -0.41,-0.32 -0.6,-0.78 -0.59,-1.36 l 0.01,-0.03 h 0.82 c 0,0.42 0.11,0.73 0.33,0.93 0.22,0.2 0.51,0.3 0.86,0.3 0.32,0 0.57,-0.09 0.75,-0.27 0.16,-0.18 0.25,-0.42 0.25,-0.72 z"
   id="path22054"
   style="fill:#a7a9ac" />

				<path
   class="st12"
   d="m 2173.8,2698.89 h -1.94 l -0.44,1.54 h -0.86 l 1.88,-6.1 h 0.82 l 1.86,6.1 h -0.86 z m -1.75,-0.67 h 1.55 l -0.76,-2.66 h -0.02 z"
   id="path22056"
   style="fill:#a7a9ac" />

				<path
   class="st12"
   d="m 2184.24,2694.34 1.42,4.98 h 0.03 l 1.43,-4.98 h 1.1 v 6.1 h -0.84 v -2.34 l 0.08,-2.35 h -0.03 l -1.47,4.69 h -0.56 l -1.46,-4.69 h -0.03 l 0.08,2.34 v 2.34 h -0.84 v -6.1 h 1.09 z"
   id="path22058"
   style="fill:#a7a9ac" />

				<path
   class="st12"
   d="m 2199.54,2698.9 c 0,-0.29 -0.08,-0.52 -0.24,-0.71 -0.16,-0.18 -0.45,-0.35 -0.85,-0.49 -0.58,-0.18 -1.03,-0.41 -1.34,-0.69 -0.31,-0.28 -0.46,-0.66 -0.46,-1.12 0,-0.48 0.17,-0.87 0.52,-1.18 0.34,-0.31 0.79,-0.46 1.33,-0.46 0.56,0 1.02,0.18 1.36,0.53 0.35,0.36 0.51,0.78 0.5,1.29 l -0.01,0.03 h -0.82 c 0,-0.36 -0.09,-0.65 -0.27,-0.87 -0.18,-0.22 -0.44,-0.33 -0.77,-0.33 -0.32,0 -0.56,0.09 -0.73,0.28 -0.17,0.19 -0.26,0.42 -0.26,0.71 0,0.26 0.09,0.48 0.28,0.66 0.18,0.18 0.49,0.34 0.91,0.48 0.56,0.17 0.98,0.41 1.27,0.71 0.29,0.3 0.44,0.69 0.44,1.16 0,0.5 -0.17,0.9 -0.51,1.19 -0.34,0.29 -0.8,0.44 -1.35,0.44 -0.54,0 -1.02,-0.16 -1.43,-0.48 -0.41,-0.32 -0.6,-0.78 -0.59,-1.36 l 0.01,-0.03 h 0.82 c 0,0.42 0.11,0.73 0.33,0.93 0.22,0.2 0.51,0.3 0.86,0.3 0.32,0 0.57,-0.09 0.75,-0.27 0.16,-0.18 0.25,-0.42 0.25,-0.72 z"
   id="path22060"
   style="fill:#a7a9ac" />

				<path
   class="st12"
   d="m 2212.22,2694.98 h -1.57 v 5.45 h -0.85 v -5.45 h -1.56 v -0.65 h 3.98 z"
   id="path22062"
   style="fill:#a7a9ac" />

				<path
   class="st12"
   d="m 2222.77,2698.89 h -1.94 l -0.44,1.54 h -0.86 l 1.88,-6.1 h 0.82 l 1.86,6.1 h -0.86 z m -1.75,-0.67 h 1.55 l -0.76,-2.66 h -0.02 z"
   id="path22064"
   style="fill:#a7a9ac" />

				<path
   class="st12"
   d="m 2235.94,2699.57 c -0.14,0.25 -0.37,0.47 -0.68,0.66 -0.31,0.2 -0.72,0.29 -1.2,0.29 -0.64,0 -1.16,-0.19 -1.55,-0.58 -0.39,-0.39 -0.59,-0.94 -0.59,-1.66 v -1.81 c 0,-0.71 0.19,-1.25 0.56,-1.64 0.37,-0.39 0.86,-0.58 1.48,-0.58 0.62,0 1.1,0.16 1.43,0.47 0.33,0.31 0.5,0.75 0.53,1.32 l -0.01,0.03 h -0.8 c -0.01,-0.38 -0.11,-0.67 -0.3,-0.87 -0.19,-0.2 -0.46,-0.3 -0.83,-0.3 -0.37,0 -0.67,0.13 -0.88,0.4 -0.21,0.27 -0.32,0.66 -0.32,1.16 v 1.82 c 0,0.52 0.12,0.92 0.35,1.19 0.23,0.27 0.54,0.41 0.94,0.41 0.29,0 0.52,-0.05 0.68,-0.15 0.16,-0.1 0.28,-0.23 0.36,-0.38 v -1.39 h -1.04 v -0.62 h 1.89 v 2.23 z"
   id="path22066"
   style="fill:#a7a9ac" />

			</g>

		</g>

		<g
   id="g22110">
			<g
   id="g22108">
				<path
   class="st12"
   d="m 2060.6,2747.16 c 0,-0.34 -0.09,-0.61 -0.28,-0.83 -0.19,-0.21 -0.52,-0.4 -0.99,-0.57 -0.68,-0.2 -1.2,-0.47 -1.56,-0.8 -0.36,-0.33 -0.54,-0.77 -0.54,-1.31 0,-0.56 0.2,-1.02 0.6,-1.38 0.4,-0.36 0.92,-0.54 1.55,-0.54 0.66,0 1.19,0.21 1.59,0.62 0.4,0.42 0.6,0.92 0.58,1.5 l -0.01,0.03 h -0.95 c 0,-0.42 -0.11,-0.75 -0.32,-1.01 -0.21,-0.26 -0.51,-0.39 -0.9,-0.39 -0.37,0 -0.65,0.11 -0.85,0.32 -0.2,0.22 -0.3,0.49 -0.3,0.83 0,0.3 0.11,0.56 0.32,0.76 0.21,0.21 0.57,0.39 1.07,0.56 0.65,0.2 1.14,0.48 1.48,0.83 0.34,0.35 0.51,0.8 0.51,1.36 0,0.58 -0.2,1.05 -0.6,1.39 -0.4,0.34 -0.93,0.51 -1.58,0.51 -0.64,0 -1.19,-0.19 -1.66,-0.56 -0.47,-0.38 -0.7,-0.91 -0.69,-1.59 l 0.01,-0.03 h 0.95 c 0,0.49 0.13,0.85 0.38,1.08 0.26,0.23 0.59,0.35 1,0.35 0.37,0 0.66,-0.1 0.87,-0.31 0.21,-0.19 0.32,-0.47 0.32,-0.82 z"
   id="path22072"
   style="fill:#a7a9ac" />

				<path
   class="st12"
   d="m 2071.65,2746.38 c 0,0.84 -0.22,1.5 -0.66,1.97 -0.44,0.47 -1.02,0.71 -1.75,0.71 -0.72,0 -1.3,-0.24 -1.72,-0.71 -0.42,-0.47 -0.64,-1.13 -0.64,-1.97 v -1.96 c 0,-0.84 0.21,-1.5 0.64,-1.97 0.43,-0.48 1,-0.71 1.72,-0.71 0.73,0 1.31,0.24 1.75,0.71 0.44,0.48 0.66,1.13 0.66,1.97 z m -0.99,-1.97 c 0,-0.62 -0.12,-1.09 -0.37,-1.41 -0.25,-0.32 -0.6,-0.48 -1.05,-0.48 -0.45,0 -0.79,0.16 -1.03,0.48 -0.24,0.32 -0.36,0.79 -0.36,1.41 v 1.97 c 0,0.63 0.12,1.1 0.36,1.42 0.24,0.32 0.58,0.48 1.02,0.48 0.46,0 0.81,-0.16 1.05,-0.48 0.25,-0.32 0.37,-0.8 0.37,-1.42 v -1.97 z"
   id="path22074"
   style="fill:#a7a9ac" />

				<path
   class="st12"
   d="m 2081.96,2748.96 h -0.99 l -2.7,-5.29 -0.03,0.01 v 5.28 h -0.99 v -7.12 h 0.99 l 2.7,5.28 0.03,-0.01 v -5.27 h 0.99 z"
   id="path22076"
   style="fill:#a7a9ac" />

				<path
   class="st12"
   d="m 2092.52,2748.96 h -0.99 l -2.7,-5.29 -0.03,0.01 v 5.28 h -0.99 v -7.12 h 0.99 l 2.7,5.28 0.03,-0.01 v -5.27 h 0.99 z"
   id="path22078"
   style="fill:#a7a9ac" />

				<path
   class="st12"
   d="m 2102.35,2742.6 h -1.83 v 6.36 h -0.99 v -6.36 h -1.82 v -0.75 h 4.64 z"
   id="path22080"
   style="fill:#a7a9ac" />

				<path
   class="st12"
   d="m 2110.52,2747.16 h -2.27 l -0.52,1.8 h -1.01 l 2.19,-7.12 h 0.96 l 2.17,7.12 h -1.01 z m -2.04,-0.79 h 1.81 l -0.89,-3.11 h -0.03 z"
   id="path22082"
   style="fill:#a7a9ac" />

				<path
   class="st12"
   d="m 2121.74,2747.95 c -0.16,0.29 -0.43,0.54 -0.79,0.77 -0.37,0.23 -0.83,0.34 -1.4,0.34 -0.75,0 -1.35,-0.23 -1.8,-0.68 -0.46,-0.45 -0.68,-1.1 -0.68,-1.94 v -2.11 c 0,-0.82 0.22,-1.46 0.65,-1.91 0.43,-0.45 1.01,-0.68 1.73,-0.68 0.73,0 1.28,0.18 1.67,0.55 0.39,0.37 0.59,0.88 0.62,1.54 l -0.01,0.03 h -0.94 c -0.02,-0.45 -0.13,-0.79 -0.35,-1.02 -0.22,-0.23 -0.54,-0.35 -0.97,-0.35 -0.43,0 -0.78,0.16 -1.03,0.47 -0.25,0.31 -0.38,0.76 -0.38,1.36 v 2.12 c 0,0.61 0.13,1.07 0.4,1.39 0.27,0.32 0.63,0.48 1.1,0.48 0.34,0 0.6,-0.06 0.79,-0.17 0.19,-0.12 0.33,-0.26 0.42,-0.44 v -1.62 h -1.22 v -0.72 h 2.21 v 2.59 z"
   id="path22084"
   style="fill:#a7a9ac" />

				<path
   class="st12"
   d="m 2138.71,2747.95 c -0.16,0.29 -0.43,0.54 -0.79,0.77 -0.37,0.23 -0.83,0.34 -1.4,0.34 -0.75,0 -1.35,-0.23 -1.8,-0.68 -0.46,-0.45 -0.68,-1.1 -0.68,-1.94 v -2.11 c 0,-0.82 0.22,-1.46 0.65,-1.91 0.43,-0.45 1.01,-0.68 1.73,-0.68 0.73,0 1.28,0.18 1.67,0.55 0.39,0.37 0.59,0.88 0.62,1.54 l -0.01,0.03 h -0.94 c -0.02,-0.45 -0.13,-0.79 -0.35,-1.02 -0.22,-0.23 -0.54,-0.35 -0.97,-0.35 -0.43,0 -0.78,0.16 -1.03,0.47 -0.25,0.31 -0.38,0.76 -0.38,1.36 v 2.12 c 0,0.61 0.13,1.07 0.4,1.39 0.27,0.32 0.63,0.48 1.1,0.48 0.34,0 0.6,-0.06 0.79,-0.17 0.19,-0.12 0.33,-0.26 0.42,-0.44 v -1.62 h -1.22 v -0.72 h 2.21 v 2.59 z"
   id="path22086"
   style="fill:#a7a9ac" />

				<path
   class="st12"
   d="m 2148.16,2745.65 h -2.64 v 2.56 h 3.06 v 0.75 h -4.05 v -7.12 h 4.02 v 0.75 h -3.03 v 2.3 h 2.64 z"
   id="path22088"
   style="fill:#a7a9ac" />

				<path
   class="st12"
   d="m 2157.22,2747.16 c 0,-0.34 -0.09,-0.61 -0.28,-0.83 -0.19,-0.21 -0.52,-0.4 -0.99,-0.57 -0.68,-0.2 -1.2,-0.47 -1.56,-0.8 -0.36,-0.33 -0.54,-0.77 -0.54,-1.31 0,-0.56 0.2,-1.02 0.6,-1.38 0.4,-0.36 0.92,-0.54 1.55,-0.54 0.66,0 1.19,0.21 1.59,0.62 0.4,0.42 0.6,0.92 0.58,1.5 l -0.01,0.03 h -0.95 c 0,-0.42 -0.11,-0.75 -0.32,-1.01 -0.21,-0.26 -0.51,-0.39 -0.9,-0.39 -0.37,0 -0.65,0.11 -0.85,0.32 -0.2,0.22 -0.3,0.49 -0.3,0.83 0,0.3 0.11,0.56 0.32,0.76 0.21,0.21 0.57,0.39 1.07,0.56 0.65,0.2 1.14,0.48 1.48,0.83 0.34,0.35 0.51,0.8 0.51,1.36 0,0.58 -0.2,1.05 -0.6,1.39 -0.4,0.34 -0.93,0.51 -1.58,0.51 -0.64,0 -1.19,-0.19 -1.66,-0.56 -0.47,-0.38 -0.7,-0.91 -0.69,-1.59 l 0.01,-0.03 h 0.95 c 0,0.49 0.13,0.85 0.38,1.08 0.26,0.23 0.59,0.35 1,0.35 0.37,0 0.66,-0.1 0.87,-0.31 0.22,-0.19 0.32,-0.47 0.32,-0.82 z"
   id="path22090"
   style="fill:#a7a9ac" />

				<path
   class="st12"
   d="m 2167.95,2746.8 0.01,0.03 c 0,0.71 -0.19,1.26 -0.57,1.65 -0.38,0.39 -0.9,0.58 -1.59,0.58 -0.7,0 -1.25,-0.23 -1.67,-0.7 -0.42,-0.47 -0.63,-1.12 -0.63,-1.96 v -1.97 c 0,-0.84 0.21,-1.5 0.62,-1.97 0.41,-0.47 0.96,-0.71 1.65,-0.71 0.7,0 1.23,0.19 1.61,0.57 0.37,0.38 0.57,0.94 0.58,1.67 l -0.01,0.03 h -0.94 c -0.01,-0.52 -0.11,-0.91 -0.31,-1.15 -0.2,-0.24 -0.5,-0.37 -0.92,-0.37 -0.41,0 -0.72,0.16 -0.95,0.49 -0.23,0.33 -0.34,0.8 -0.34,1.41 v 1.99 c 0,0.62 0.12,1.09 0.34,1.42 0.23,0.33 0.55,0.5 0.97,0.5 0.41,0 0.71,-0.12 0.9,-0.36 0.19,-0.24 0.29,-0.62 0.29,-1.15 z"
   id="path22092"
   style="fill:#a7a9ac" />

				<path
   class="st12"
   d="m 2178.21,2748.96 h -0.99 v -3.14 h -2.73 v 3.14 h -0.99 v -7.12 h 0.99 v 3.22 h 2.73 v -3.22 h 0.99 z"
   id="path22094"
   style="fill:#a7a9ac" />

				<path
   class="st12"
   d="m 2185.05,2748.21 h 2.78 v 0.75 h -3.77 v -7.12 h 0.99 z"
   id="path22096"
   style="fill:#a7a9ac" />

				<path
   class="st12"
   d="m 2197.38,2746.38 c 0,0.84 -0.22,1.5 -0.66,1.97 -0.44,0.47 -1.02,0.71 -1.75,0.71 -0.72,0 -1.3,-0.24 -1.72,-0.71 -0.42,-0.47 -0.64,-1.13 -0.64,-1.97 v -1.96 c 0,-0.84 0.21,-1.5 0.64,-1.97 0.43,-0.48 1,-0.71 1.72,-0.71 0.73,0 1.31,0.24 1.75,0.71 0.44,0.48 0.66,1.13 0.66,1.97 z m -0.99,-1.97 c 0,-0.62 -0.12,-1.09 -0.37,-1.41 -0.25,-0.32 -0.6,-0.48 -1.05,-0.48 -0.45,0 -0.79,0.16 -1.03,0.48 -0.24,0.32 -0.36,0.79 -0.36,1.41 v 1.97 c 0,0.63 0.12,1.1 0.36,1.42 0.24,0.32 0.58,0.48 1.02,0.48 0.46,0 0.81,-0.16 1.05,-0.48 0.25,-0.32 0.37,-0.8 0.37,-1.42 v -1.97 z"
   id="path22098"
   style="fill:#a7a9ac" />

				<path
   class="st12"
   d="m 2206.24,2747.16 c 0,-0.34 -0.09,-0.61 -0.28,-0.83 -0.19,-0.21 -0.52,-0.4 -0.99,-0.57 -0.68,-0.2 -1.2,-0.47 -1.56,-0.8 -0.36,-0.33 -0.54,-0.77 -0.54,-1.31 0,-0.56 0.2,-1.02 0.6,-1.38 0.4,-0.36 0.92,-0.54 1.55,-0.54 0.66,0 1.19,0.21 1.59,0.62 0.4,0.42 0.6,0.92 0.58,1.5 l -0.01,0.03 h -0.95 c 0,-0.42 -0.11,-0.75 -0.32,-1.01 -0.21,-0.26 -0.51,-0.39 -0.9,-0.39 -0.37,0 -0.65,0.11 -0.85,0.32 -0.2,0.22 -0.3,0.49 -0.3,0.83 0,0.3 0.11,0.56 0.32,0.76 0.21,0.21 0.57,0.39 1.07,0.56 0.65,0.2 1.14,0.48 1.48,0.83 0.34,0.35 0.51,0.8 0.51,1.36 0,0.58 -0.2,1.05 -0.6,1.39 -0.4,0.34 -0.93,0.51 -1.58,0.51 -0.64,0 -1.19,-0.19 -1.66,-0.56 -0.47,-0.38 -0.7,-0.91 -0.69,-1.59 l 0.01,-0.03 h 0.95 c 0,0.49 0.13,0.85 0.38,1.08 0.26,0.23 0.59,0.35 1,0.35 0.37,0 0.66,-0.1 0.87,-0.31 0.21,-0.19 0.32,-0.47 0.32,-0.82 z"
   id="path22100"
   style="fill:#a7a9ac" />

				<path
   class="st12"
   d="m 2216.01,2747.16 c 0,-0.34 -0.09,-0.61 -0.28,-0.83 -0.19,-0.21 -0.52,-0.4 -0.99,-0.57 -0.68,-0.2 -1.2,-0.47 -1.56,-0.8 -0.36,-0.33 -0.54,-0.77 -0.54,-1.31 0,-0.56 0.2,-1.02 0.6,-1.38 0.4,-0.36 0.92,-0.54 1.55,-0.54 0.66,0 1.19,0.21 1.59,0.62 0.4,0.42 0.6,0.92 0.58,1.5 l -0.01,0.03 H 2216 c 0,-0.42 -0.11,-0.75 -0.32,-1.01 -0.21,-0.26 -0.51,-0.39 -0.9,-0.39 -0.37,0 -0.65,0.11 -0.85,0.32 -0.2,0.22 -0.3,0.49 -0.3,0.83 0,0.3 0.11,0.56 0.32,0.76 0.21,0.21 0.57,0.39 1.07,0.56 0.65,0.2 1.14,0.48 1.48,0.83 0.34,0.35 0.51,0.8 0.51,1.36 0,0.58 -0.2,1.05 -0.6,1.39 -0.4,0.34 -0.93,0.51 -1.58,0.51 -0.63,0 -1.19,-0.19 -1.66,-0.56 -0.47,-0.38 -0.7,-0.91 -0.69,-1.59 l 0.01,-0.03 h 0.95 c 0,0.49 0.13,0.85 0.38,1.08 0.26,0.23 0.59,0.35 1,0.35 0.37,0 0.66,-0.1 0.87,-0.31 0.22,-0.19 0.32,-0.47 0.32,-0.82 z"
   id="path22102"
   style="fill:#a7a9ac" />

				<path
   class="st12"
   d="m 2226.17,2745.65 h -2.64 v 2.56 h 3.06 v 0.75 h -4.05 v -7.12 h 4.02 v 0.75 h -3.03 v 2.3 h 2.64 z"
   id="path22104"
   style="fill:#a7a9ac" />

				<path
   class="st12"
   d="m 2236.68,2748.96 h -0.99 l -2.7,-5.29 -0.03,0.01 v 5.28 h -0.99 v -7.12 h 0.99 l 2.7,5.28 0.03,-0.01 v -5.27 h 0.99 z"
   id="path22106"
   style="fill:#a7a9ac" />

			</g>

		</g>

		<line
   class="st13"
   x1="2147.5801"
   y1="2704.95"
   x2="2147.5801"
   y2="2690.1001"
   id="line22112"
   style="fill:none;stroke:#a7a9ac;stroke-width:0.4633;stroke-miterlimit:10" />

	</g>

</g>
  </g>
</svg>
