<?xml version="1.0" encoding="UTF-8" standalone="no"?>
<!-- Created with Inkscape (http://www.inkscape.org/) -->

<svg
   version="1.1"
   id="svg45826"
   width="254.56131"
   height="84.482666"
   viewBox="0 0 254.56131 84.482667"
   xmlns="http://www.w3.org/2000/svg"
   xmlns:svg="http://www.w3.org/2000/svg">
  <defs
     id="defs45830">
    <clipPath
       clipPathUnits="userSpaceOnUse"
       id="clipPath45842">
      <path
         d="M 0,87.874 H 215.433 V 0 H 0 Z"
         id="path45840" />
    </clipPath>
  </defs>
  <g
     id="g45834"
     transform="matrix(1.3333333,0,0,-1.3333333,-16.341333,100.824)">
    <g
       id="g45836">
      <g
         id="g45838"
         clip-path="url(#clipPath45842)">
        <g
           id="g45844"
           transform="translate(58.8358,63.2548)">
          <path
             d="m 0,0 -1.962,-3.143 c -0.84,0.681 -1.901,1.221 -3.463,1.221 -1.08,0 -1.601,-0.36 -1.601,-1.061 0,-0.5 0.36,-0.86 2.342,-1.201 3.983,-0.82 5.084,-2.342 5.084,-4.583 0,-2.963 -2.161,-4.925 -5.804,-4.925 -2.302,0 -4.444,0.701 -5.946,2.022 l 2.042,3.163 c 0.941,-1.041 2.582,-1.722 4.024,-1.722 1.301,0 1.881,0.38 1.881,1.101 0,0.521 -0.42,0.881 -2.402,1.241 -3.963,0.841 -5.044,2.582 -5.044,4.704 0,2.682 2.102,4.724 5.445,4.724 C -3.223,1.541 -1.241,0.961 0,0"
             style="fill:#231f20;fill-opacity:1;fill-rule:nonzero;stroke:none"
             id="path45846" />
        </g>
        <g
           id="g45848"
           transform="translate(72.3871,49.6231)">
          <path
             d="M 0,0 H -0.08 L -3.263,6.906 -6.445,0 h -0.08 l -6.166,14.913 h 4.224 l 2.342,-6.626 2.822,6.626 h 0.08 L -0.4,8.287 1.942,14.913 h 4.223 z"
             style="fill:#231f20;fill-opacity:1;fill-rule:nonzero;stroke:none"
             id="path45850" />
        </g>
        <path
           d="m 83.777,49.823 h -3.803 v 14.713 h 3.803 z"
           style="fill:#231f20;fill-opacity:1;fill-rule:nonzero;stroke:none"
           id="path45852" />
        <g
           id="g45854"
           transform="translate(96.6474,63.2548)">
          <path
             d="m 0,0 -1.962,-3.143 c -0.84,0.681 -1.901,1.221 -3.463,1.221 -1.08,0 -1.601,-0.36 -1.601,-1.061 0,-0.5 0.36,-0.86 2.342,-1.201 3.983,-0.82 5.084,-2.342 5.084,-4.583 0,-2.963 -2.161,-4.925 -5.804,-4.925 -2.303,0 -4.444,0.701 -5.946,2.022 l 2.042,3.163 c 0.941,-1.041 2.582,-1.722 4.024,-1.722 1.301,0 1.881,0.38 1.881,1.101 0,0.521 -0.42,0.881 -2.402,1.241 -3.963,0.841 -5.044,2.582 -5.044,4.704 0,2.682 2.102,4.724 5.445,4.724 C -3.223,1.541 -1.241,0.961 0,0"
             style="fill:#231f20;fill-opacity:1;fill-rule:nonzero;stroke:none"
             id="path45856" />
        </g>
        <g
           id="g45858"
           transform="translate(108.9577,63.2548)">
          <path
             d="m 0,0 -1.962,-3.143 c -0.84,0.681 -1.901,1.221 -3.463,1.221 -1.081,0 -1.601,-0.36 -1.601,-1.061 0,-0.5 0.36,-0.86 2.342,-1.201 3.983,-0.82 5.084,-2.342 5.084,-4.583 0,-2.963 -2.162,-4.925 -5.805,-4.925 -2.302,0 -4.443,0.701 -5.945,2.022 l 2.042,3.163 c 0.941,-1.041 2.582,-1.722 4.024,-1.722 1.301,0 1.881,0.38 1.881,1.101 0,0.521 -0.42,0.881 -2.402,1.241 -3.963,0.841 -5.044,2.582 -5.044,4.704 0,2.682 2.102,4.724 5.444,4.724 C -3.223,1.541 -1.241,0.961 0,0"
             style="fill:#231f20;fill-opacity:1;fill-rule:nonzero;stroke:none"
             id="path45860" />
        </g>
        <g
           id="g45862"
           transform="translate(120.4071,61.7535)">
          <path
             d="m 0,0 h -6.145 v -3.383 h 5.104 V -5.985 H -6.145 V -11.93 H -9.208 V 2.782 H 0 Z"
             style="fill:#231f20;fill-opacity:1;fill-rule:nonzero;stroke:none"
             id="path45864" />
        </g>
        <g
           id="g45866"
           transform="translate(124.5305,57.1495)">
          <path
             d="m 0,0 c 0,-2.802 1.842,-4.804 4.464,-4.804 2.622,0 4.464,2.002 4.464,4.804 0,2.842 -1.842,4.864 -4.464,4.864 C 1.842,4.864 0,2.842 0,0 m 12.03,0 c 0,-4.384 -3.243,-7.587 -7.566,-7.587 -4.344,0 -7.547,3.203 -7.547,7.587 0,4.424 3.203,7.646 7.547,7.646 4.323,0 7.566,-3.222 7.566,-7.646"
             style="fill:#231f20;fill-opacity:1;fill-rule:nonzero;stroke:none"
             id="path45868" />
        </g>
        <g
           id="g45870"
           transform="translate(150.7753,62.8586)">
          <path
             d="m 0,0 c -0.397,-0.95 -0.97,-1.808 -1.689,-2.53 0.626,-0.832 0.986,-1.925 0.986,-3.179 0,-2.803 -1.842,-4.804 -4.464,-4.804 -2.622,0 -4.464,2.001 -4.464,4.804 0,1.069 0.261,2.022 0.726,2.795 -0.291,0.266 -0.558,0.562 -0.793,0.889 -0.44,0.618 -0.661,1.24 -0.813,1.854 -1.378,-1.362 -2.203,-3.295 -2.203,-5.538 0,-4.384 3.203,-7.587 7.547,-7.587 4.324,0 7.566,3.203 7.566,7.587 C 2.399,-3.371 1.493,-1.369 0,0"
             style="fill:#231f20;fill-opacity:1;fill-rule:nonzero;stroke:none"
             id="path45872" />
        </g>
        <g
           id="g45874"
           transform="translate(158.2786,61.7334)">
          <path
             d="m 0,0 v -9.128 h 1.521 c 3.323,0 5.045,1.682 5.045,4.564 C 6.566,-1.661 4.824,0 1.521,0 Z m 9.668,-4.544 c 0,-4.644 -2.982,-7.366 -8.047,-7.366 H -3.063 V 2.802 h 4.684 c 5.025,0 8.047,-2.702 8.047,-7.346"
             style="fill:#231f20;fill-opacity:1;fill-rule:nonzero;stroke:none"
             id="path45876" />
        </g>
        <g
           id="g45878"
           transform="translate(148.3941,68.033)">
          <path
             d="m 0,0 c -1.277,-1.101 -2.23,-2.61 -2.739,-4.183 -0.269,0.277 -0.565,0.518 -0.889,0.731 -0.129,0.083 -0.268,0.167 -0.407,0.241 0.666,2.082 2.554,4.127 5.692,5.478 0.101,-2.128 1.018,-3.831 0.527,-5.987 -0.49,-2.157 -1.925,-3.971 -3.896,-4.942 0.259,0.722 0.333,1.49 0.185,2.249 -0.102,0.527 -0.305,1.008 -0.583,1.443 0.213,1.777 0.935,3.563 2.11,4.97"
             style="fill:#231f20;fill-opacity:1;fill-rule:evenodd;stroke:none"
             id="path45880" />
        </g>
        <g
           id="g45882"
           transform="translate(141.9809,64.1829)">
          <path
             d="m 0,0 c 2.147,-0.694 3.942,-2.684 4.118,-4.646 1.027,2.749 -1.268,5.609 -5.784,5.645 0.509,-1.388 0.379,-2.72 1.277,-3.979 0.898,-1.249 2.314,-2.017 3.85,-2.101 C 3.332,-3.091 1.953,-1.009 0,0"
             style="fill:#231f20;fill-opacity:1;fill-rule:evenodd;stroke:none"
             id="path45884" />
        </g>
        <g
           id="g45886"
           transform="translate(123.8801,68.8467)">
          <path
             d="M 0,0 H -0.074 L -0.19,-0.731 h 0.074 c 0.253,0 0.536,0.043 0.587,0.365 C 0.521,-0.043 0.245,0 0,0"
             style="fill:#231f20;fill-opacity:1;fill-rule:nonzero;stroke:none"
             id="path45888" />
        </g>
        <g
           id="g45890"
           transform="translate(133.8382,68.3448)">
          <path
             d="M 0,0 0.187,-0.058 C 0.572,-0.179 0.864,-0.385 0.782,-0.86 0.735,-1.156 0.619,-1.451 0.354,-1.65 0.09,-1.848 -0.226,-1.926 -0.521,-1.926 c -0.374,0 -0.712,0.121 -0.981,0.335 l 0.425,0.614 c 0.167,-0.167 0.365,-0.303 0.63,-0.303 0.178,0 0.385,0.09 0.416,0.296 0.031,0.21 -0.249,0.292 -0.408,0.334 -0.459,0.136 -0.755,0.261 -0.662,0.829 0.093,0.595 0.58,0.985 1.167,0.985 0.296,0 0.642,-0.09 0.88,-0.242 L 0.549,0.331 C 0.425,0.452 0.261,0.525 0.074,0.525 -0.065,0.525 -0.272,0.444 -0.291,0.28 -0.322,0.113 -0.12,0.039 0,0 m -3.256,0 0.188,-0.058 c 0.384,-0.121 0.676,-0.327 0.594,-0.802 -0.047,-0.296 -0.163,-0.591 -0.427,-0.79 -0.265,-0.198 -0.58,-0.276 -0.876,-0.276 -0.373,0 -0.712,0.121 -0.981,0.335 l 0.425,0.614 c 0.167,-0.167 0.365,-0.303 0.63,-0.303 0.179,0 0.386,0.09 0.416,0.296 0.031,0.21 -0.249,0.292 -0.408,0.334 -0.459,0.136 -0.755,0.261 -0.661,0.829 0.092,0.595 0.579,0.985 1.167,0.985 0.295,0 0.641,-0.09 0.879,-0.242 L -2.707,0.331 C -2.831,0.452 -2.995,0.525 -3.182,0.525 -3.321,0.525 -3.528,0.444 -3.547,0.28 -3.578,0.113 -3.376,0.039 -3.256,0 m -2.376,0.44 h -0.907 l -0.077,-0.486 h 0.859 l -0.1,-0.646 h -0.861 l -0.081,-0.51 h 0.906 l -0.101,-0.646 h -1.669 l 0.467,2.933 h 1.669 z m -3.097,-2.288 h -0.949 l -0.541,1.128 h -0.008 l -0.178,-1.128 h -0.763 l 0.467,2.933 h 1.137 c 0.583,0 0.972,-0.275 0.878,-0.902 -0.062,-0.405 -0.35,-0.755 -0.774,-0.829 z m -4.519,0.973 h -0.433 l -0.155,-0.973 h -0.763 l 0.467,2.933 h 1.163 c 0.635,0 1.02,-0.291 0.915,-0.964 -0.109,-0.697 -0.525,-0.996 -1.194,-0.996 m -2.432,-0.973 h -0.919 l -0.463,0.957 -0.825,-0.957 h -0.922 l 1.398,1.568 -0.721,1.365 h 0.939 l 0.326,-0.758 0.568,0.758 h 0.938 l -1.156,-1.365 z m -3.816,2.288 h -0.907 l -0.077,-0.486 h 0.859 l -0.101,-0.646 h -0.86 l -0.081,-0.51 h 0.906 l -0.101,-0.646 h -1.669 l 0.466,2.933 h 1.669 z m -2.494,1.08 -0.618,-3.815 H 9.33 c 0.622,1.43 1.669,2.725 3.072,3.815 z"
             style="fill:#231f20;fill-opacity:1;fill-rule:nonzero;stroke:none"
             id="path45892" />
        </g>
        <g
           id="g45894"
           transform="translate(120.4964,68.8155)">
          <path
             d="m 0,0 h -0.129 l -0.112,-0.731 h 0.128 c 0.276,0 0.552,0 0.603,0.357 C 0.553,0 0.292,0 0,0"
             style="fill:#231f20;fill-opacity:1;fill-rule:nonzero;stroke:none"
             id="path45896" />
        </g>
        <g
           id="g45898"
           transform="translate(67.4817,37.7955)">
          <path
             d="M 0,0 H -0.026 L -0.964,1.941 -1.909,0 h -0.026 l -1.453,3.336 h 0.717 l 0.795,-1.896 0.898,1.896 h 0.027 L -0.052,1.44 0.743,3.336 h 0.71 z"
             style="fill:#231f20;fill-opacity:1;fill-rule:nonzero;stroke:none"
             id="path45900" />
        </g>
        <g
           id="g45902"
           transform="translate(72.7844,37.7955)">
          <path
             d="M 0,0 H -0.026 L -0.964,1.941 -1.909,0 h -0.026 l -1.453,3.336 h 0.717 l 0.795,-1.896 0.898,1.896 h 0.027 L -0.052,1.44 0.743,3.336 h 0.71 z"
             style="fill:#231f20;fill-opacity:1;fill-rule:nonzero;stroke:none"
             id="path45904" />
        </g>
        <g
           id="g45906"
           transform="translate(78.0872,37.7955)">
          <path
             d="M 0,0 H -0.026 L -0.964,1.941 -1.909,0 h -0.026 l -1.453,3.336 h 0.717 l 0.795,-1.896 0.898,1.896 h 0.027 L -0.052,1.44 0.743,3.336 h 0.71 z"
             style="fill:#231f20;fill-opacity:1;fill-rule:nonzero;stroke:none"
             id="path45908" />
        </g>
        <g
           id="g45910"
           transform="translate(80.6087,38.2447)">
          <path
             d="m 0,0 c 0,-0.26 -0.188,-0.449 -0.449,-0.449 -0.261,0 -0.449,0.189 -0.449,0.449 0,0.261 0.188,0.45 0.449,0.45 C -0.188,0.45 0,0.267 0,0"
             style="fill:#231f20;fill-opacity:1;fill-rule:nonzero;stroke:none"
             id="path45912" />
        </g>
        <g
           id="g45914"
           transform="translate(83.9055,40.8511)">
          <path
             d="m 0,0 -0.312,-0.58 c -0.197,0.156 -0.457,0.287 -0.802,0.287 -0.326,0 -0.522,-0.098 -0.522,-0.326 0,-0.222 0.157,-0.287 0.646,-0.404 0.729,-0.176 1.075,-0.489 1.075,-0.984 0,-0.632 -0.528,-1.049 -1.375,-1.049 -0.495,0 -0.965,0.15 -1.251,0.398 l 0.325,0.586 c 0.236,-0.196 0.555,-0.332 0.932,-0.332 0.352,0 0.574,0.111 0.574,0.351 0,0.222 -0.157,0.32 -0.633,0.43 -0.749,0.176 -1.074,0.437 -1.074,0.952 0,0.638 0.495,1.029 1.303,1.029 C -0.665,0.358 -0.254,0.215 0,0"
             style="fill:#231f20;fill-opacity:1;fill-rule:nonzero;stroke:none"
             id="path45916" />
        </g>
        <g
           id="g45918"
           transform="translate(87.9573,37.7955)">
          <path
             d="M 0,0 H -0.026 L -0.932,1.798 -1.837,0 h -0.026 l -1.512,3.349 h 0.88 l 0.71,-1.746 0.841,1.746 h 0.025 l 0.841,-1.746 0.717,1.746 h 0.873 z"
             style="fill:#231f20;fill-opacity:1;fill-rule:nonzero;stroke:none"
             id="path45920" />
        </g>
        <path
           d="m 91.117,37.86 h -0.782 v 3.284 h 0.782 z m 0.098,4.333 c 0,-0.28 -0.209,-0.482 -0.489,-0.482 -0.274,0 -0.482,0.202 -0.482,0.482 0,0.28 0.208,0.482 0.482,0.482 0.28,0 0.489,-0.202 0.489,-0.482"
           style="fill:#231f20;fill-opacity:1;fill-rule:nonzero;stroke:none"
           id="path45922" />
        <g
           id="g45924"
           transform="translate(94.6419,40.8511)">
          <path
             d="m 0,0 -0.312,-0.58 c -0.197,0.156 -0.457,0.287 -0.802,0.287 -0.326,0 -0.522,-0.098 -0.522,-0.326 0,-0.222 0.157,-0.287 0.646,-0.404 0.729,-0.176 1.075,-0.489 1.075,-0.984 0,-0.632 -0.528,-1.049 -1.375,-1.049 -0.495,0 -0.965,0.15 -1.251,0.398 l 0.325,0.586 c 0.236,-0.196 0.555,-0.332 0.932,-0.332 0.352,0 0.574,0.111 0.574,0.351 0,0.222 -0.157,0.32 -0.633,0.43 -0.749,0.176 -1.074,0.437 -1.074,0.952 0,0.638 0.495,1.029 1.303,1.029 C -0.665,0.358 -0.254,0.215 0,0"
             style="fill:#231f20;fill-opacity:1;fill-rule:nonzero;stroke:none"
             id="path45926" />
        </g>
        <g
           id="g45928"
           transform="translate(97.9837,40.8511)">
          <path
             d="m 0,0 -0.312,-0.58 c -0.197,0.156 -0.457,0.287 -0.802,0.287 -0.326,0 -0.522,-0.098 -0.522,-0.326 0,-0.222 0.157,-0.287 0.646,-0.404 0.729,-0.176 1.075,-0.489 1.075,-0.984 0,-0.632 -0.528,-1.049 -1.375,-1.049 -0.495,0 -0.965,0.15 -1.251,0.398 l 0.325,0.586 c 0.236,-0.196 0.555,-0.332 0.932,-0.332 0.352,0 0.574,0.111 0.574,0.351 0,0.222 -0.157,0.32 -0.633,0.43 -0.749,0.176 -1.074,0.437 -1.074,0.952 0,0.638 0.495,1.029 1.303,1.029 C -0.665,0.358 -0.254,0.215 0,0"
             style="fill:#231f20;fill-opacity:1;fill-rule:nonzero;stroke:none"
             id="path45930" />
        </g>
        <g
           id="g45932"
           transform="translate(101.2473,42.5972)">
          <path
             d="m 0,0 -0.293,-0.632 c -0.092,0.098 -0.228,0.156 -0.404,0.156 -0.3,0 -0.469,-0.215 -0.469,-0.547 v -0.43 h 0.801 v -0.665 h -0.801 v -2.619 h -0.789 v 2.619 h -0.58 v 0.665 h 0.58 v 0.391 c 0,0.743 0.463,1.277 1.212,1.277 C -0.431,0.215 -0.183,0.137 0,0"
             style="fill:#231f20;fill-opacity:1;fill-rule:nonzero;stroke:none"
             id="path45934" />
        </g>
        <g
           id="g45936"
           transform="translate(102.3089,39.4957)">
          <path
             d="m 0,0 c 0,-0.586 0.384,-1.01 0.912,-1.01 0.527,0 0.919,0.424 0.919,1.01 0,0.593 -0.392,1.023 -0.919,1.023 C 0.384,1.023 0,0.593 0,0 m 2.619,0 c 0,-0.984 -0.723,-1.7 -1.707,-1.7 -0.984,0 -1.707,0.716 -1.707,1.7 0,0.991 0.723,1.714 1.707,1.714 0.984,0 1.707,-0.723 1.707,-1.714"
             style="fill:#231f20;fill-opacity:1;fill-rule:nonzero;stroke:none"
             id="path45938" />
        </g>
        <g
           id="g45940"
           transform="translate(106.511,39.4957)">
          <path
             d="m 0,0 c 0,-0.586 0.384,-1.01 0.912,-1.01 0.527,0 0.919,0.424 0.919,1.01 0,0.593 -0.392,1.023 -0.919,1.023 C 0.384,1.023 0,0.593 0,0 m 2.619,0 c 0,-0.984 -0.723,-1.7 -1.707,-1.7 -0.984,0 -1.707,0.716 -1.707,1.7 0,0.991 0.723,1.714 1.707,1.714 0.984,0 1.707,-0.723 1.707,-1.714"
             style="fill:#231f20;fill-opacity:1;fill-rule:nonzero;stroke:none"
             id="path45942" />
        </g>
        <g
           id="g45944"
           transform="translate(110.7132,39.5025)">
          <path
             d="m 0,0 c 0,-0.619 0.364,-1.017 0.873,-1.017 0.391,0 0.625,0.209 0.801,0.489 V 0.527 C 1.498,0.808 1.264,1.016 0.873,1.016 0.364,1.016 0,0.619 0,0 M 2.456,-1.642 H 1.753 l -0.04,0.384 c -0.182,-0.247 -0.515,-0.449 -1.01,-0.449 -0.892,0 -1.498,0.723 -1.498,1.707 0,0.99 0.606,1.707 1.498,1.707 0.483,0 0.789,-0.183 0.971,-0.391 V 3.31 h 0.782 z"
             style="fill:#231f20;fill-opacity:1;fill-rule:nonzero;stroke:none"
             id="path45946" />
        </g>
        <path
           d="m 116.543,39.183 h -2.319 v 0.723 h 2.319 z"
           style="fill:#231f20;fill-opacity:1;fill-rule:nonzero;stroke:none"
           id="path45948" />
        <g
           id="g45950"
           transform="translate(118.1008,39.8214)">
          <path
             d="M 0,0 H 1.551 C 1.531,0.45 1.271,0.763 0.801,0.763 0.339,0.763 0.025,0.457 0,0 M 2.319,-0.287 V -0.56 H 0 c 0.02,-0.522 0.332,-0.808 0.879,-0.808 0.385,0 0.665,0.169 0.814,0.378 L 2.234,-1.433 C 1.909,-1.824 1.479,-2.026 0.873,-2.026 c -1.017,0 -1.668,0.716 -1.668,1.7 0,0.991 0.664,1.714 1.609,1.714 1.01,0 1.505,-0.756 1.505,-1.675"
             style="fill:#231f20;fill-opacity:1;fill-rule:nonzero;stroke:none"
             id="path45952" />
        </g>
        <g
           id="g45954"
           transform="translate(123.1038,39.5284)">
          <path
             d="M 0,0 1.082,-1.668 H 0.156 l -0.697,1.095 -0.69,-1.095 H -2.156 L -1.075,0 -2.111,1.616 h 0.912 l 0.658,-1.062 0.665,1.062 h 0.912 z"
             style="fill:#231f20;fill-opacity:1;fill-rule:nonzero;stroke:none"
             id="path45956" />
        </g>
        <g
           id="g45958"
           transform="translate(125.8401,40.0298)">
          <path
             d="m 0,0 v -1.055 c 0.169,-0.28 0.41,-0.489 0.801,-0.489 0.509,0 0.873,0.398 0.873,1.017 0,0.618 -0.364,1.016 -0.873,1.016 C 0.41,0.489 0.169,0.28 0,0 m 2.463,-0.527 c 0,-0.984 -0.607,-1.707 -1.492,-1.707 -0.483,0 -0.795,0.182 -0.971,0.39 v -1.824 h -0.782 v 4.782 h 0.704 L -0.046,0.73 c 0.183,0.248 0.522,0.45 1.017,0.45 0.885,0 1.492,-0.717 1.492,-1.707"
             style="fill:#231f20;fill-opacity:1;fill-rule:nonzero;stroke:none"
             id="path45960" />
        </g>
        <g
           id="g45962"
           transform="translate(130.9993,40.4273)">
          <path
             d="m 0,0 h -0.065 c -0.398,0 -0.652,-0.208 -0.86,-0.495 v -2.072 h -0.782 v 3.284 h 0.704 L -0.964,0.28 C -0.802,0.541 -0.469,0.782 0,0.782 Z"
             style="fill:#231f20;fill-opacity:1;fill-rule:nonzero;stroke:none"
             id="path45964" />
        </g>
        <g
           id="g45966"
           transform="translate(132.3938,39.8214)">
          <path
             d="M 0,0 H 1.551 C 1.531,0.45 1.271,0.763 0.801,0.763 0.339,0.763 0.025,0.457 0,0 M 2.319,-0.287 V -0.56 H 0 c 0.02,-0.522 0.332,-0.808 0.879,-0.808 0.385,0 0.665,0.169 0.814,0.378 L 2.234,-1.433 C 1.909,-1.824 1.479,-2.026 0.873,-2.026 c -1.017,0 -1.668,0.716 -1.668,1.7 0,0.991 0.664,1.714 1.609,1.714 1.01,0 1.505,-0.756 1.505,-1.675"
             style="fill:#231f20;fill-opacity:1;fill-rule:nonzero;stroke:none"
             id="path45968" />
        </g>
        <g
           id="g45970"
           transform="translate(137.9768,40.8511)">
          <path
             d="m 0,0 -0.312,-0.58 c -0.197,0.156 -0.457,0.287 -0.802,0.287 -0.326,0 -0.522,-0.098 -0.522,-0.326 0,-0.222 0.157,-0.287 0.646,-0.404 0.729,-0.176 1.075,-0.489 1.075,-0.984 0,-0.632 -0.528,-1.049 -1.375,-1.049 -0.495,0 -0.965,0.15 -1.251,0.398 l 0.325,0.586 c 0.236,-0.196 0.555,-0.332 0.932,-0.332 0.352,0 0.574,0.111 0.574,0.351 0,0.222 -0.157,0.32 -0.633,0.43 -0.749,0.176 -1.074,0.437 -1.074,0.952 0,0.638 0.495,1.029 1.303,1.029 C -0.665,0.358 -0.254,0.215 0,0"
             style="fill:#231f20;fill-opacity:1;fill-rule:nonzero;stroke:none"
             id="path45972" />
        </g>
        <g
           id="g45974"
           transform="translate(141.3186,40.8511)">
          <path
             d="m 0,0 -0.312,-0.58 c -0.197,0.156 -0.457,0.287 -0.802,0.287 -0.326,0 -0.522,-0.098 -0.522,-0.326 0,-0.222 0.157,-0.287 0.646,-0.404 0.729,-0.176 1.075,-0.489 1.075,-0.984 0,-0.632 -0.528,-1.049 -1.375,-1.049 -0.495,0 -0.965,0.15 -1.251,0.398 l 0.325,0.586 c 0.236,-0.196 0.555,-0.332 0.932,-0.332 0.352,0 0.574,0.111 0.574,0.351 0,0.222 -0.157,0.32 -0.633,0.43 -0.749,0.176 -1.074,0.437 -1.074,0.952 0,0.638 0.495,1.029 1.303,1.029 C -0.665,0.358 -0.254,0.215 0,0"
             style="fill:#231f20;fill-opacity:1;fill-rule:nonzero;stroke:none"
             id="path45976" />
        </g>
        <g
           id="g45978"
           transform="translate(143.0842,38.2447)">
          <path
             d="m 0,0 c 0,-0.26 -0.188,-0.449 -0.449,-0.449 -0.261,0 -0.449,0.189 -0.449,0.449 0,0.261 0.188,0.45 0.449,0.45 C -0.188,0.45 0,0.267 0,0"
             style="fill:#231f20;fill-opacity:1;fill-rule:nonzero;stroke:none"
             id="path45980" />
        </g>
        <g
           id="g45982"
           transform="translate(146.8108,40.4927)">
          <path
             d="m 0,0 -0.476,-0.365 c -0.163,0.267 -0.429,0.508 -0.827,0.508 -0.665,0 -1.01,-0.488 -1.01,-1.14 0,-0.645 0.359,-1.14 1.016,-1.14 0.398,0 0.678,0.241 0.841,0.508 L 0.02,-1.994 c -0.293,-0.443 -0.737,-0.703 -1.317,-0.703 -1.016,0 -1.661,0.716 -1.661,1.7 0,0.984 0.639,1.701 1.648,1.701 C -0.723,0.704 -0.293,0.443 0,0"
             style="fill:#231f20;fill-opacity:1;fill-rule:nonzero;stroke:none"
             id="path45984" />
        </g>
        <g
           id="g45986"
           transform="translate(148.4202,40.773)">
          <path
             d="m 0,0 c 0.228,0.248 0.508,0.423 1.003,0.423 0.788,0 1.238,-0.56 1.238,-1.401 V -2.913 H 1.603 v 1.896 c 0,0.496 -0.293,0.834 -0.756,0.834 C 0.462,-0.183 0.201,-0.417 0,-0.704 V -2.913 H -0.639 V 2.039 H 0 Z"
             style="fill:#231f20;fill-opacity:1;fill-rule:nonzero;stroke:none"
             id="path45988" />
        </g>
        <g
           id="g45990"
           transform="translate(23.1878,27.338498)">
          <path
             d="m 0,0 c -0.734,0 -1.328,0.595 -1.328,1.328 0,0.734 0.594,1.328 1.328,1.328 0.734,0 1.328,-0.594 1.328,-1.328 C 1.328,0.595 0.734,0 0,0 m 0,4.029 c -1.561,0 -2.826,-1.265 -2.826,-2.825 0,-1.561 2.826,-5.679 2.826,-5.679 0,0 2.826,4.118 2.826,5.679 0,1.56 -1.265,2.825 -2.826,2.825"
             style="fill:#231f20;fill-opacity:1;fill-rule:nonzero;stroke:none"
             id="path45992" />
        </g>
        <g
           id="g45994"
           transform="translate(29.2962,30.3077)">
          <path
             d="m 0,0 v -1.538 h 1.283 c 0.6,0 0.971,0.267 0.971,0.769 C 2.254,-0.273 1.909,0 1.212,0 Z M 0,2.04 V 0.593 h 1.017 c 0.534,0 0.846,0.306 0.846,0.723 0,0.45 -0.305,0.724 -0.905,0.724 z M 2.528,1.381 c 0,-0.527 -0.294,-0.853 -0.567,-0.99 0.541,-0.143 0.965,-0.489 0.965,-1.192 0,-0.854 -0.653,-1.343 -1.571,-1.343 h -2.013 v 4.79 h 1.694 c 0.978,0 1.492,-0.489 1.492,-1.265"
             style="fill:#231f20;fill-opacity:1;fill-rule:nonzero;stroke:none"
             id="path45996" />
        </g>
        <g
           id="g45998"
           transform="translate(33.6673,29.7994)">
          <path
             d="m 0,0 c 0,-0.677 0.41,-1.134 0.983,-1.134 0.437,0 0.704,0.235 0.9,0.554 V 0.58 C 1.687,0.899 1.42,1.134 0.983,1.134 0.41,1.134 0,0.678 0,0 m 1.915,1.238 0.026,0.398 h 0.58 V -1.635 H 1.941 L 1.915,-1.238 C 1.727,-1.485 1.381,-1.7 0.866,-1.7 c -0.899,0 -1.512,0.716 -1.512,1.7 0,0.984 0.613,1.701 1.512,1.701 0.515,0 0.861,-0.215 1.049,-0.463"
             style="fill:#231f20;fill-opacity:1;fill-rule:nonzero;stroke:none"
             id="path46000" />
        </g>
        <g
           id="g46002"
           transform="translate(37.8567,29.7994)">
          <path
             d="m 0,0 c 0,-0.677 0.41,-1.134 0.983,-1.134 0.437,0 0.704,0.235 0.9,0.554 V 0.58 C 1.687,0.899 1.42,1.134 0.983,1.134 0.41,1.134 0,0.678 0,0 M 2.521,-1.635 H 1.941 L 1.915,-1.238 C 1.727,-1.485 1.381,-1.7 0.866,-1.7 c -0.899,0 -1.512,0.716 -1.512,1.7 0,0.984 0.613,1.701 1.512,1.701 0.488,0 0.821,-0.189 1.017,-0.417 v 2.032 h 0.638 z"
             style="fill:#231f20;fill-opacity:1;fill-rule:nonzero;stroke:none"
             id="path46004" />
        </g>
        <g
           id="g46006"
           transform="translate(42.0452,30.0928)">
          <path
             d="M 0,0 H 1.766 C 1.746,0.515 1.446,0.86 0.918,0.86 0.391,0.86 0.032,0.521 0,0 M 2.397,-0.267 V -0.521 H 0 c 0.02,-0.6 0.371,-0.926 0.99,-0.926 0.43,0 0.723,0.189 0.886,0.417 L 2.319,-1.401 C 2.007,-1.785 1.583,-1.994 0.99,-1.994 c -1.01,0 -1.636,0.71 -1.636,1.694 0,0.984 0.646,1.707 1.564,1.707 0.978,0 1.479,-0.756 1.479,-1.674"
             style="fill:#231f20;fill-opacity:1;fill-rule:nonzero;stroke:none"
             id="path46008" />
        </g>
        <g
           id="g46010"
           transform="translate(48.3645,30.0992)">
          <path
             d="m 0,0 v -1.935 h -0.639 v 1.896 c 0,0.495 -0.293,0.834 -0.756,0.834 -0.384,0 -0.645,-0.234 -0.846,-0.521 V -1.935 H -2.88 V 1.336 H -2.3 L -2.274,0.938 C -2.085,1.179 -1.74,1.401 -1.238,1.401 -0.45,1.401 0,0.84 0,0"
             style="fill:#231f20;fill-opacity:1;fill-rule:nonzero;stroke:none"
             id="path46012" />
        </g>
        <g
           id="g46014"
           transform="translate(49.9475,30.0928)">
          <path
             d="M 0,0 H 1.766 C 1.746,0.515 1.446,0.86 0.918,0.86 0.391,0.86 0.032,0.521 0,0 M 2.397,-0.267 V -0.521 H 0 c 0.02,-0.6 0.371,-0.926 0.99,-0.926 0.43,0 0.723,0.189 0.886,0.417 L 2.319,-1.401 C 2.007,-1.785 1.583,-1.994 0.99,-1.994 c -1.01,0 -1.636,0.71 -1.636,1.694 0,0.984 0.646,1.707 1.564,1.707 0.978,0 1.479,-0.756 1.479,-1.674"
             style="fill:#231f20;fill-opacity:1;fill-rule:nonzero;stroke:none"
             id="path46016" />
        </g>
        <g
           id="g46018"
           transform="translate(54.97,30.8614)">
          <path
             d="m 0,0 h -0.059 c -0.404,0 -0.665,-0.228 -0.885,-0.547 v -2.15 h -0.639 v 3.271 h 0.58 L -0.971,0.13 C -0.808,0.391 -0.482,0.639 0,0.639 Z"
             style="fill:#231f20;fill-opacity:1;fill-rule:nonzero;stroke:none"
             id="path46020" />
        </g>
        <g
           id="g46022"
           transform="translate(58.0325,31.1417)">
          <path
             d="m 0,0 -0.273,-0.495 c -0.203,0.156 -0.463,0.287 -0.815,0.287 -0.365,0 -0.599,-0.111 -0.599,-0.378 0,-0.268 0.188,-0.332 0.683,-0.45 0.763,-0.182 1.108,-0.495 1.108,-0.99 0,-0.619 -0.508,-1.016 -1.31,-1.016 -0.495,0 -0.951,0.156 -1.244,0.397 l 0.293,0.508 c 0.241,-0.209 0.567,-0.339 0.958,-0.339 0.39,0 0.658,0.13 0.658,0.411 0,0.267 -0.195,0.364 -0.697,0.482 -0.762,0.176 -1.088,0.443 -1.088,0.958 0,0.619 0.475,0.983 1.238,0.983 C -0.651,0.358 -0.254,0.208 0,0"
             style="fill:#231f20;fill-opacity:1;fill-rule:nonzero;stroke:none"
             id="path46024" />
        </g>
        <g
           id="g46026"
           transform="translate(60.0452,31.4351)">
          <path
             d="M 0,0 H 1.029 V -0.547 H 0 V -2.17 c 0,-0.378 0.228,-0.586 0.561,-0.586 0.22,0 0.371,0.046 0.468,0.104 L 1.212,-3.154 C 1.056,-3.251 0.827,-3.336 0.508,-3.336 c -0.697,0 -1.147,0.404 -1.147,1.16 v 1.629 H -1.277 V 0 h 0.638 V 1.107 H 0 Z"
             style="fill:#231f20;fill-opacity:1;fill-rule:nonzero;stroke:none"
             id="path46028" />
        </g>
        <g
           id="g46030"
           transform="translate(63.6936,30.8614)">
          <path
             d="m 0,0 h -0.059 c -0.404,0 -0.665,-0.228 -0.885,-0.547 v -2.15 h -0.639 v 3.271 h 0.58 L -0.971,0.13 C -0.808,0.391 -0.482,0.639 0,0.639 Z"
             style="fill:#231f20;fill-opacity:1;fill-rule:nonzero;stroke:none"
             id="path46032" />
        </g>
        <g
           id="g46034"
           transform="translate(64.9514,29.7994)">
          <path
             d="m 0,0 c 0,-0.677 0.41,-1.134 0.983,-1.134 0.437,0 0.704,0.235 0.9,0.554 V 0.58 C 1.687,0.899 1.42,1.134 0.983,1.134 0.41,1.134 0,0.678 0,0 m 1.915,1.238 0.026,0.398 h 0.58 V -1.635 H 1.941 L 1.915,-1.238 C 1.727,-1.485 1.381,-1.7 0.866,-1.7 c -0.899,0 -1.512,0.716 -1.512,1.7 0,0.984 0.613,1.701 1.512,1.701 0.515,0 0.861,-0.215 1.049,-0.463"
             style="fill:#231f20;fill-opacity:1;fill-rule:nonzero;stroke:none"
             id="path46036" />
        </g>
        <g
           id="g46038"
           transform="translate(70.9446,31.1417)">
          <path
             d="m 0,0 -0.273,-0.495 c -0.203,0.156 -0.463,0.287 -0.815,0.287 -0.365,0 -0.599,-0.111 -0.599,-0.378 0,-0.268 0.188,-0.332 0.683,-0.45 0.763,-0.182 1.108,-0.495 1.108,-0.99 0,-0.619 -0.508,-1.016 -1.31,-1.016 -0.495,0 -0.951,0.156 -1.244,0.397 l 0.293,0.508 c 0.241,-0.209 0.567,-0.339 0.958,-0.339 0.39,0 0.658,0.13 0.658,0.411 0,0.267 -0.195,0.364 -0.697,0.482 -0.762,0.176 -1.088,0.443 -1.088,0.958 0,0.619 0.475,0.983 1.238,0.983 C -0.651,0.358 -0.254,0.208 0,0"
             style="fill:#231f20;fill-opacity:1;fill-rule:nonzero;stroke:none"
             id="path46040" />
        </g>
        <g
           id="g46042"
           transform="translate(74.2473,31.1417)">
          <path
             d="m 0,0 -0.273,-0.495 c -0.203,0.156 -0.463,0.287 -0.815,0.287 -0.365,0 -0.599,-0.111 -0.599,-0.378 0,-0.268 0.188,-0.332 0.683,-0.45 0.763,-0.182 1.108,-0.495 1.108,-0.99 0,-0.619 -0.508,-1.016 -1.31,-1.016 -0.495,0 -0.951,0.156 -1.244,0.397 l 0.293,0.508 c 0.241,-0.209 0.567,-0.339 0.958,-0.339 0.39,0 0.658,0.13 0.658,0.411 0,0.267 -0.195,0.364 -0.697,0.482 -0.762,0.176 -1.088,0.443 -1.088,0.958 0,0.619 0.475,0.983 1.238,0.983 C -0.651,0.358 -0.254,0.208 0,0"
             style="fill:#231f20;fill-opacity:1;fill-rule:nonzero;stroke:none"
             id="path46044" />
        </g>
        <g
           id="g46046"
           transform="translate(75.7454,30.0928)">
          <path
             d="M 0,0 H 1.766 C 1.746,0.515 1.446,0.86 0.918,0.86 0.391,0.86 0.032,0.521 0,0 M 2.397,-0.267 V -0.521 H 0 c 0.02,-0.6 0.371,-0.926 0.99,-0.926 0.43,0 0.723,0.189 0.886,0.417 L 2.319,-1.401 C 2.007,-1.785 1.583,-1.994 0.99,-1.994 c -1.01,0 -1.636,0.71 -1.636,1.694 0,0.984 0.646,1.707 1.564,1.707 0.978,0 1.479,-0.756 1.479,-1.674"
             style="fill:#231f20;fill-opacity:1;fill-rule:nonzero;stroke:none"
             id="path46048" />
        </g>
        <g
           id="g46050"
           transform="translate(81.4124,29.6495)">
          <path
             d="m 0,0 c 0,-0.586 0.397,-0.99 0.906,-0.99 0.515,0 0.925,0.404 0.925,0.99 0,0.593 -0.41,1.003 -0.925,1.003 C 0.397,1.003 0,0.593 0,0 m 2.482,0 c 0,-0.918 -0.71,-1.57 -1.576,-1.57 -0.86,0 -1.564,0.652 -1.564,1.57 0,0.391 0.124,0.736 0.339,1.003 L 1.187,3.304 H 1.916 L 0.789,1.577 C 0.828,1.583 0.867,1.583 0.906,1.583 1.772,1.583 2.482,0.919 2.482,0"
             style="fill:#231f20;fill-opacity:1;fill-rule:nonzero;stroke:none"
             id="path46052" />
        </g>
        <g
           id="g46054"
           transform="translate(85.302,31.4673)">
          <path
             d="m 0,0 c 0,-0.593 0.404,-1.003 0.919,-1.003 0.508,0 0.912,0.41 0.912,1.003 0,0.586 -0.404,0.991 -0.912,0.991 C 0.404,0.991 0,0.586 0,0 m 2.482,0 c 0,-0.358 -0.103,-0.677 -0.286,-0.932 l -1.55,-2.371 h -0.737 l 1.127,1.72 H 0.919 c -0.866,0 -1.576,0.665 -1.576,1.583 0,0.919 0.71,1.57 1.576,1.57 0.86,0 1.563,-0.651 1.563,-1.57"
             style="fill:#231f20;fill-opacity:1;fill-rule:nonzero;stroke:none"
             id="path46056" />
        </g>
        <g
           id="g46058"
           transform="translate(91.7395,32.9141)">
          <path
             d="m 0,0 -2.411,-4.75 h -0.703 l 2.156,4.196 h -2.28 V 0.039 H 0 Z"
             style="fill:#231f20;fill-opacity:1;fill-rule:nonzero;stroke:none"
             id="path46060" />
        </g>
        <g
           id="g46062"
           transform="translate(32.4231,24.5225)">
          <path
             d="m 0,0 -0.423,-0.481 c -0.306,0.332 -0.736,0.566 -1.27,0.566 -1.036,0 -1.741,-0.788 -1.741,-1.87 0,-1.075 0.705,-1.863 1.741,-1.863 0.553,0 0.997,0.248 1.302,0.599 l 0.417,-0.495 c -0.449,-0.488 -1.029,-0.717 -1.719,-0.717 -1.408,0 -2.411,1.056 -2.411,2.476 0,1.427 1.003,2.482 2.411,2.482 C -0.977,0.697 -0.442,0.45 0,0"
             style="fill:#231f20;fill-opacity:1;fill-rule:nonzero;stroke:none"
             id="path46064" />
        </g>
        <g
           id="g46066"
           transform="translate(37.1008,20.3467)">
          <path
             d="M 0,0 H -0.664 V 2.144 H -3.042 V 0 h -0.665 v 4.789 h 0.665 V 2.756 h 2.378 V 4.789 H 0 Z"
             style="fill:#231f20;fill-opacity:1;fill-rule:nonzero;stroke:none"
             id="path46068" />
        </g>
        <path
           d="m 40.54,21.734 h -2.319 v 0.593 h 2.319 z"
           style="fill:#231f20;fill-opacity:1;fill-rule:nonzero;stroke:none"
           id="path46070" />
        <g
           id="g46072"
           transform="translate(42.1301,23.9044)">
          <path
             d="m 0,0 c 0,-0.45 0.339,-0.775 0.762,-0.775 0.424,0 0.762,0.325 0.762,0.775 0,0.423 -0.338,0.742 -0.762,0.742 C 0.339,0.742 0,0.423 0,0 m -0.15,-2.216 c 0,-0.488 0.404,-0.853 0.912,-0.853 0.509,0 0.919,0.365 0.919,0.853 0,0.495 -0.41,0.867 -0.919,0.867 -0.508,0 -0.912,-0.372 -0.912,-0.867 m 2.28,2.241 c 0,-0.462 -0.24,-0.839 -0.593,-1.042 0.47,-0.221 0.802,-0.658 0.802,-1.185 0,-0.841 -0.717,-1.441 -1.577,-1.441 -0.86,0 -1.571,0.6 -1.571,1.441 0,0.527 0.32,0.971 0.789,1.179 -0.352,0.202 -0.586,0.58 -0.586,1.048 0,0.756 0.619,1.29 1.368,1.29 0.75,0 1.368,-0.534 1.368,-1.29"
             style="fill:#231f20;fill-opacity:1;fill-rule:nonzero;stroke:none"
             id="path46074" />
        </g>
        <g
           id="g46076"
           transform="translate(45.9221,22.7442)">
          <path
             d="m 0,0 c 0,-1.153 0.332,-1.902 1.022,-1.902 0.685,0 1.017,0.749 1.017,1.902 0,1.146 -0.332,1.896 -1.017,1.896 C 0.332,1.896 0,1.146 0,0 m 2.697,0 c 0,-1.519 -0.606,-2.482 -1.675,-2.482 -1.075,0 -1.68,0.963 -1.68,2.482 0,1.512 0.605,2.476 1.68,2.476 1.069,0 1.675,-0.964 1.675,-2.476"
             style="fill:#231f20;fill-opacity:1;fill-rule:nonzero;stroke:none"
             id="path46078" />
        </g>
        <g
           id="g46080"
           transform="translate(50.2727,21.8253)">
          <path
             d="M 0,0 H 1.062 V 1.499 Z M 1.701,0.007 H 2.346 V -0.58 H 1.701 V -1.479 H 1.056 v 0.899 h -2.157 v 0.026 L 1.668,3.35 h 0.033 z"
             style="fill:#231f20;fill-opacity:1;fill-rule:nonzero;stroke:none"
             id="path46082" />
        </g>
        <g
           id="g46084"
           transform="translate(54.0784,23.9044)">
          <path
             d="m 0,0 c 0,-0.45 0.339,-0.775 0.762,-0.775 0.424,0 0.762,0.325 0.762,0.775 0,0.423 -0.338,0.742 -0.762,0.742 C 0.339,0.742 0,0.423 0,0 m -0.15,-2.216 c 0,-0.488 0.404,-0.853 0.912,-0.853 0.509,0 0.919,0.365 0.919,0.853 0,0.495 -0.41,0.867 -0.919,0.867 -0.508,0 -0.912,-0.372 -0.912,-0.867 m 2.281,2.241 c 0,-0.462 -0.241,-0.839 -0.594,-1.042 0.47,-0.221 0.802,-0.658 0.802,-1.185 0,-0.841 -0.717,-1.441 -1.577,-1.441 -0.86,0 -1.571,0.6 -1.571,1.441 0,0.527 0.32,0.971 0.789,1.179 -0.351,0.202 -0.586,0.58 -0.586,1.048 0,0.756 0.619,1.29 1.368,1.29 0.75,0 1.369,-0.534 1.369,-1.29"
             style="fill:#231f20;fill-opacity:1;fill-rule:nonzero;stroke:none"
             id="path46086" />
        </g>
        <g
           id="g46088"
           transform="translate(62.3645,25.1094)">
          <path
             d="m 0,0 -2.313,-4.157 h 2.385 v -0.606 h -3.44 v 0.026 l 2.332,4.157 H -3.264 V 0.026 H 0 Z"
             style="fill:#231f20;fill-opacity:1;fill-rule:nonzero;stroke:none"
             id="path46090" />
        </g>
        <g
           id="g46092"
           transform="translate(65.6809,24.5225)">
          <path
             d="m 0,0 c 0,-0.201 -0.156,-0.352 -0.358,-0.352 -0.203,0 -0.352,0.151 -0.352,0.352 0,0.202 0.149,0.353 0.352,0.353 C -0.156,0.353 0,0.202 0,0 m -1.114,0 c 0,-0.201 -0.15,-0.352 -0.359,-0.352 -0.202,0 -0.351,0.151 -0.351,0.352 0,0.202 0.149,0.353 0.351,0.353 0.209,0 0.359,-0.151 0.359,-0.353 m 1.616,-4.176 h -0.58 l -0.026,0.398 c -0.196,-0.248 -0.522,-0.463 -1.049,-0.463 -0.749,0 -1.166,0.553 -1.166,1.387 v 1.949 h 0.638 V -2.82 c 0,-0.483 0.26,-0.815 0.691,-0.815 0.41,0 0.651,0.24 0.853,0.521 v 2.209 h 0.639 z"
             style="fill:#231f20;fill-opacity:1;fill-rule:nonzero;stroke:none"
             id="path46094" />
        </g>
        <g
           id="g46096"
           transform="translate(69.094,23.044)">
          <path
             d="m 0,0 h -0.059 c -0.404,0 -0.665,-0.229 -0.885,-0.548 v -2.149 h -0.639 v 3.27 h 0.58 L -0.971,0.13 C -0.808,0.391 -0.482,0.639 0,0.639 Z"
             style="fill:#231f20;fill-opacity:1;fill-rule:nonzero;stroke:none"
             id="path46098" />
        </g>
        <path
           d="m 70.652,20.347 h -0.639 v 3.271 h 0.639 z m 0.103,4.326 c 0,-0.241 -0.181,-0.417 -0.417,-0.417 -0.241,0 -0.417,0.176 -0.417,0.417 0,0.234 0.176,0.417 0.417,0.417 0.236,0 0.417,-0.183 0.417,-0.417"
           style="fill:#231f20;fill-opacity:1;fill-rule:nonzero;stroke:none"
           id="path46100" />
        <g
           id="g46102"
           transform="translate(74.638,22.9786)">
          <path
             d="m 0,0 -0.476,-0.364 c -0.163,0.266 -0.429,0.508 -0.827,0.508 -0.665,0 -1.01,-0.489 -1.01,-1.141 0,-0.645 0.359,-1.14 1.016,-1.14 0.398,0 0.678,0.241 0.841,0.508 L 0.02,-1.993 c -0.293,-0.444 -0.737,-0.704 -1.317,-0.704 -1.016,0 -1.661,0.717 -1.661,1.7 0,0.984 0.639,1.701 1.648,1.701 C -0.723,0.704 -0.293,0.443 0,0"
             style="fill:#231f20;fill-opacity:1;fill-rule:nonzero;stroke:none"
             id="path46104" />
        </g>
        <g
           id="g46106"
           transform="translate(76.2473,23.2589)">
          <path
             d="m 0,0 c 0.228,0.248 0.508,0.424 1.003,0.424 0.788,0 1.238,-0.561 1.238,-1.402 V -2.912 H 1.603 v 1.895 c 0,0.496 -0.293,0.834 -0.756,0.834 -0.385,0 -0.646,-0.234 -0.847,-0.52 V -2.912 H -0.639 V 2.039 H 0 Z"
             style="fill:#231f20;fill-opacity:1;fill-rule:nonzero;stroke:none"
             id="path46108" />
        </g>
        <path
           d="m 113.119,28.731 h -0.639 v 3.271 h 0.639 z m 0.104,4.326 c 0,-0.241 -0.182,-0.417 -0.417,-0.417 -0.241,0 -0.417,0.176 -0.417,0.417 0,0.235 0.176,0.417 0.417,0.417 0.235,0 0.417,-0.182 0.417,-0.417"
           style="fill:#231f20;fill-opacity:1;fill-rule:nonzero;stroke:none"
           id="path46110" />
        <g
           id="g46112"
           transform="translate(117.2044,30.6661)">
          <path
             d="m 0,0 v -1.935 h -0.639 v 1.896 c 0,0.495 -0.293,0.834 -0.756,0.834 -0.384,0 -0.645,-0.234 -0.846,-0.521 V -1.935 H -2.88 V 1.336 H -2.3 L -2.274,0.938 C -2.085,1.179 -1.74,1.401 -1.238,1.401 -0.45,1.401 0,0.84 0,0"
             style="fill:#231f20;fill-opacity:1;fill-rule:nonzero;stroke:none"
             id="path46114" />
        </g>
        <g
           id="g46116"
           transform="translate(120.3635,33.4547)">
          <path
             d="m 0,0 -0.248,-0.508 c -0.105,0.104 -0.247,0.169 -0.437,0.169 -0.325,0 -0.521,-0.247 -0.521,-0.606 v -0.508 h 0.853 V -2 H -1.206 V -4.724 H -1.844 V -2 h -0.587 v 0.547 h 0.587 v 0.476 c 0,0.697 0.43,1.205 1.127,1.205 0.3,0 0.541,-0.084 0.717,-0.228"
             style="fill:#231f20;fill-opacity:1;fill-rule:nonzero;stroke:none"
             id="path46118" />
        </g>
        <g
           id="g46120"
           transform="translate(121.1653,30.3599)">
          <path
             d="m 0,0 c 0,-0.651 0.43,-1.127 1.029,-1.127 0.6,0 1.036,0.476 1.036,1.127 0,0.658 -0.436,1.14 -1.036,1.14 C 0.43,1.14 0,0.658 0,0 m 2.71,0 c 0,-0.984 -0.71,-1.694 -1.681,-1.694 -0.97,0 -1.675,0.71 -1.675,1.694 0,0.984 0.705,1.707 1.675,1.707 C 2,1.707 2.71,0.984 2.71,0"
             style="fill:#231f20;fill-opacity:1;fill-rule:nonzero;stroke:none"
             id="path46122" />
        </g>
        <g
           id="g46124"
           transform="translate(126.2337,30.295)">
          <path
             d="m 0,0 c 0,-0.567 0.339,-0.938 0.814,-0.938 0.366,0 0.586,0.188 0.749,0.423 V 0.521 C 1.407,0.736 1.18,0.944 0.814,0.944 0.339,0.944 0,0.566 0,0 m 3.427,0.045 c 0,-0.866 -0.404,-1.459 -1.114,-1.459 -0.365,0 -0.574,0.169 -0.665,0.391 L 1.636,-0.991 C 1.459,-1.212 1.153,-1.414 0.69,-1.414 c -0.729,0 -1.238,0.6 -1.238,1.414 0,0.821 0.509,1.42 1.238,1.42 0.463,0 0.737,-0.163 0.9,-0.371 l 0.019,0.319 h 0.495 v -2.02 c 0,-0.182 0.085,-0.286 0.267,-0.286 0.346,0 0.541,0.403 0.541,0.983 0,1.193 -0.834,2.053 -2.085,2.053 -1.224,0 -2.078,-0.887 -2.078,-2.085 0,-1.212 0.841,-2.078 2.046,-2.078 0.306,0 0.58,0.051 0.841,0.156 l 0.149,-0.463 c -0.293,-0.117 -0.639,-0.182 -0.99,-0.182 -1.505,0 -2.561,1.062 -2.561,2.567 0,1.492 1.069,2.573 2.593,2.573 1.538,0 2.6,-1.042 2.6,-2.541"
             style="fill:#231f20;fill-opacity:1;fill-rule:nonzero;stroke:none"
             id="path46126" />
        </g>
        <g
           id="g46128"
           transform="translate(132.7024,31.7086)">
          <path
             d="m 0,0 -0.273,-0.495 c -0.203,0.156 -0.463,0.287 -0.815,0.287 -0.365,0 -0.599,-0.111 -0.599,-0.378 0,-0.268 0.188,-0.332 0.683,-0.45 0.763,-0.182 1.108,-0.495 1.108,-0.99 0,-0.619 -0.508,-1.016 -1.31,-1.016 -0.495,0 -0.951,0.156 -1.244,0.397 l 0.293,0.508 c 0.241,-0.209 0.567,-0.339 0.958,-0.339 0.39,0 0.658,0.13 0.658,0.411 0,0.267 -0.195,0.364 -0.697,0.482 -0.762,0.176 -1.088,0.443 -1.088,0.958 0,0.619 0.475,0.983 1.238,0.983 C -0.651,0.358 -0.254,0.208 0,0"
             style="fill:#231f20;fill-opacity:1;fill-rule:nonzero;stroke:none"
             id="path46130" />
        </g>
        <g
           id="g46132"
           transform="translate(136.6829,28.6661)">
          <path
             d="M 0,0 H -0.026 L -0.964,1.941 -1.909,0 h -0.026 l -1.453,3.336 h 0.717 l 0.795,-1.896 0.898,1.896 h 0.027 L -0.052,1.44 0.743,3.336 h 0.71 z"
             style="fill:#231f20;fill-opacity:1;fill-rule:nonzero;stroke:none"
             id="path46134" />
        </g>
        <path
           d="m 139.543,28.731 h -0.639 v 3.271 h 0.639 z m 0.104,4.326 c 0,-0.241 -0.182,-0.417 -0.417,-0.417 -0.241,0 -0.417,0.176 -0.417,0.417 0,0.235 0.176,0.417 0.417,0.417 0.235,0 0.417,-0.182 0.417,-0.417"
           style="fill:#231f20;fill-opacity:1;fill-rule:nonzero;stroke:none"
           id="path46136" />
        <g
           id="g46138"
           transform="translate(142.8909,31.7086)">
          <path
             d="m 0,0 -0.273,-0.495 c -0.203,0.156 -0.463,0.287 -0.815,0.287 -0.365,0 -0.599,-0.111 -0.599,-0.378 0,-0.268 0.188,-0.332 0.683,-0.45 0.763,-0.182 1.108,-0.495 1.108,-0.99 0,-0.619 -0.508,-1.016 -1.31,-1.016 -0.495,0 -0.951,0.156 -1.244,0.397 l 0.293,0.508 c 0.241,-0.209 0.567,-0.339 0.958,-0.339 0.39,0 0.658,0.13 0.658,0.411 0,0.267 -0.195,0.364 -0.697,0.482 -0.762,0.176 -1.088,0.443 -1.088,0.958 0,0.619 0.475,0.983 1.238,0.983 C -0.651,0.358 -0.254,0.208 0,0"
             style="fill:#231f20;fill-opacity:1;fill-rule:nonzero;stroke:none"
             id="path46140" />
        </g>
        <g
           id="g46142"
           transform="translate(146.0637,31.7086)">
          <path
             d="m 0,0 -0.273,-0.495 c -0.203,0.156 -0.463,0.287 -0.815,0.287 -0.365,0 -0.599,-0.111 -0.599,-0.378 0,-0.268 0.188,-0.332 0.683,-0.45 0.763,-0.182 1.108,-0.495 1.108,-0.99 0,-0.619 -0.508,-1.016 -1.31,-1.016 -0.495,0 -0.951,0.156 -1.244,0.397 l 0.293,0.508 c 0.241,-0.209 0.567,-0.339 0.958,-0.339 0.39,0 0.658,0.13 0.658,0.411 0,0.267 -0.195,0.364 -0.697,0.482 -0.762,0.176 -1.088,0.443 -1.088,0.958 0,0.619 0.475,0.983 1.238,0.983 C -0.651,0.358 -0.254,0.208 0,0"
             style="fill:#231f20;fill-opacity:1;fill-rule:nonzero;stroke:none"
             id="path46144" />
        </g>
        <g
           id="g46146"
           transform="translate(149.1389,33.4547)">
          <path
             d="m 0,0 -0.248,-0.508 c -0.105,0.104 -0.247,0.169 -0.437,0.169 -0.325,0 -0.521,-0.247 -0.521,-0.606 v -0.508 h 0.853 V -2 H -1.206 V -4.724 H -1.844 V -2 h -0.587 v 0.547 h 0.587 v 0.476 c 0,0.697 0.43,1.205 1.127,1.205 0.3,0 0.541,-0.084 0.717,-0.228"
             style="fill:#231f20;fill-opacity:1;fill-rule:nonzero;stroke:none"
             id="path46148" />
        </g>
        <g
           id="g46150"
           transform="translate(149.9397,30.3599)">
          <path
             d="m 0,0 c 0,-0.651 0.43,-1.127 1.029,-1.127 0.6,0 1.036,0.476 1.036,1.127 0,0.658 -0.436,1.14 -1.036,1.14 C 0.43,1.14 0,0.658 0,0 m 2.71,0 c 0,-0.984 -0.71,-1.694 -1.681,-1.694 -0.97,0 -1.675,0.71 -1.675,1.694 0,0.984 0.705,1.707 1.675,1.707 C 2,1.707 2.71,0.984 2.71,0"
             style="fill:#231f20;fill-opacity:1;fill-rule:nonzero;stroke:none"
             id="path46152" />
        </g>
        <g
           id="g46154"
           transform="translate(153.9719,30.3599)">
          <path
             d="m 0,0 c 0,-0.651 0.43,-1.127 1.029,-1.127 0.6,0 1.036,0.476 1.036,1.127 0,0.658 -0.436,1.14 -1.036,1.14 C 0.43,1.14 0,0.658 0,0 m 2.71,0 c 0,-0.984 -0.71,-1.694 -1.681,-1.694 -0.97,0 -1.675,0.71 -1.675,1.694 0,0.984 0.705,1.707 1.675,1.707 C 2,1.707 2.71,0.984 2.71,0"
             style="fill:#231f20;fill-opacity:1;fill-rule:nonzero;stroke:none"
             id="path46156" />
        </g>
        <g
           id="g46158"
           transform="translate(158.0051,30.3663)">
          <path
             d="m 0,0 c 0,-0.677 0.41,-1.134 0.983,-1.134 0.437,0 0.704,0.235 0.9,0.554 V 0.58 C 1.687,0.899 1.42,1.134 0.983,1.134 0.41,1.134 0,0.678 0,0 M 2.521,-1.635 H 1.941 L 1.915,-1.238 C 1.727,-1.485 1.381,-1.7 0.866,-1.7 c -0.899,0 -1.512,0.716 -1.512,1.7 0,0.984 0.613,1.701 1.512,1.701 0.488,0 0.821,-0.189 1.017,-0.417 v 2.032 h 0.638 z"
             style="fill:#231f20;fill-opacity:1;fill-rule:nonzero;stroke:none"
             id="path46160" />
        </g>
        <path
           d="m 163.803,30.119 h -2.319 v 0.593 h 2.319 z"
           style="fill:#231f20;fill-opacity:1;fill-rule:nonzero;stroke:none"
           id="path46162" />
        <g
           id="g46164"
           transform="translate(165.1057,30.6597)">
          <path
             d="M 0,0 H 1.766 C 1.746,0.515 1.446,0.86 0.918,0.86 0.391,0.86 0.032,0.521 0,0 M 2.397,-0.267 V -0.521 H 0 c 0.02,-0.6 0.371,-0.926 0.99,-0.926 0.43,0 0.723,0.189 0.886,0.417 L 2.319,-1.401 C 2.007,-1.785 1.583,-1.994 0.99,-1.994 c -1.01,0 -1.636,0.71 -1.636,1.694 0,0.984 0.646,1.707 1.564,1.707 0.978,0 1.479,-0.756 1.479,-1.674"
             style="fill:#231f20;fill-opacity:1;fill-rule:nonzero;stroke:none"
             id="path46166" />
        </g>
        <g
           id="g46168"
           transform="translate(169.9202,30.3926)">
          <path
             d="M 0,0 1.114,-1.662 H 0.358 l -0.795,1.193 -0.789,-1.193 H -1.981 L -0.867,0 -1.936,1.609 h 0.749 l 0.75,-1.153 0.756,1.153 h 0.749 z"
             style="fill:#231f20;fill-opacity:1;fill-rule:nonzero;stroke:none"
             id="path46170" />
        </g>
        <g
           id="g46172"
           transform="translate(172.4612,30.9464)">
          <path
             d="m 0,0 v -1.16 c 0.195,-0.319 0.462,-0.554 0.898,-0.554 0.574,0 0.985,0.457 0.985,1.134 0,0.678 -0.411,1.134 -0.985,1.134 C 0.462,0.554 0.195,0.319 0,0 m 2.527,-0.58 c 0,-0.984 -0.612,-1.7 -1.511,-1.7 -0.489,0 -0.821,0.189 -1.016,0.417 v -1.851 h -0.639 v 4.77 h 0.58 l 0.026,-0.398 c 0.189,0.248 0.534,0.463 1.049,0.463 0.899,0 1.511,-0.717 1.511,-1.701"
             style="fill:#231f20;fill-opacity:1;fill-rule:nonzero;stroke:none"
             id="path46174" />
        </g>
        <g
           id="g46176"
           transform="translate(177.4641,31.4283)">
          <path
             d="m 0,0 h -0.059 c -0.404,0 -0.665,-0.228 -0.885,-0.547 v -2.15 h -0.639 v 3.271 h 0.58 L -0.971,0.13 C -0.808,0.391 -0.482,0.639 0,0.639 Z"
             style="fill:#231f20;fill-opacity:1;fill-rule:nonzero;stroke:none"
             id="path46178" />
        </g>
        <g
           id="g46180"
           transform="translate(178.5911,30.6597)">
          <path
             d="M 0,0 H 1.766 C 1.746,0.515 1.446,0.86 0.918,0.86 0.391,0.86 0.032,0.521 0,0 M 2.397,-0.267 V -0.521 H 0 c 0.02,-0.6 0.371,-0.926 0.99,-0.926 0.43,0 0.723,0.189 0.886,0.417 L 2.319,-1.401 C 2.007,-1.785 1.583,-1.994 0.99,-1.994 c -1.01,0 -1.636,0.71 -1.636,1.694 0,0.984 0.646,1.707 1.564,1.707 0.978,0 1.479,-0.756 1.479,-1.674"
             style="fill:#231f20;fill-opacity:1;fill-rule:nonzero;stroke:none"
             id="path46182" />
        </g>
        <g
           id="g46184"
           transform="translate(184.0442,31.7086)">
          <path
             d="m 0,0 -0.273,-0.495 c -0.203,0.156 -0.463,0.287 -0.815,0.287 -0.365,0 -0.599,-0.111 -0.599,-0.378 0,-0.268 0.188,-0.332 0.683,-0.45 0.763,-0.182 1.108,-0.495 1.108,-0.99 0,-0.619 -0.508,-1.016 -1.31,-1.016 -0.495,0 -0.951,0.156 -1.244,0.397 l 0.293,0.508 c 0.241,-0.209 0.567,-0.339 0.958,-0.339 0.39,0 0.658,0.13 0.658,0.411 0,0.267 -0.195,0.364 -0.697,0.482 -0.762,0.176 -1.088,0.443 -1.088,0.958 0,0.619 0.475,0.983 1.238,0.983 C -0.651,0.358 -0.254,0.208 0,0"
             style="fill:#231f20;fill-opacity:1;fill-rule:nonzero;stroke:none"
             id="path46186" />
        </g>
        <g
           id="g46188"
           transform="translate(187.2171,31.7086)">
          <path
             d="m 0,0 -0.273,-0.495 c -0.203,0.156 -0.463,0.287 -0.815,0.287 -0.365,0 -0.599,-0.111 -0.599,-0.378 0,-0.268 0.188,-0.332 0.683,-0.45 0.763,-0.182 1.108,-0.495 1.108,-0.99 0,-0.619 -0.508,-1.016 -1.31,-1.016 -0.495,0 -0.951,0.156 -1.244,0.397 l 0.293,0.508 c 0.241,-0.209 0.567,-0.339 0.958,-0.339 0.39,0 0.658,0.13 0.658,0.411 0,0.267 -0.195,0.364 -0.697,0.482 -0.762,0.176 -1.088,0.443 -1.088,0.958 0,0.619 0.475,0.983 1.238,0.983 C -0.651,0.358 -0.254,0.208 0,0"
             style="fill:#231f20;fill-opacity:1;fill-rule:nonzero;stroke:none"
             id="path46190" />
        </g>
        <g
           id="g46192"
           transform="translate(188.8909,29.1153)">
          <path
             d="m 0,0 c 0,-0.26 -0.188,-0.449 -0.449,-0.449 -0.261,0 -0.449,0.189 -0.449,0.449 0,0.261 0.188,0.45 0.449,0.45 C -0.188,0.45 0,0.267 0,0"
             style="fill:#231f20;fill-opacity:1;fill-rule:nonzero;stroke:none"
             id="path46194" />
        </g>
        <g
           id="g46196"
           transform="translate(192.4866,31.3633)">
          <path
             d="m 0,0 -0.476,-0.365 c -0.163,0.267 -0.429,0.508 -0.827,0.508 -0.665,0 -1.01,-0.488 -1.01,-1.14 0,-0.645 0.359,-1.14 1.016,-1.14 0.398,0 0.678,0.241 0.841,0.508 L 0.02,-1.994 c -0.293,-0.443 -0.737,-0.703 -1.317,-0.703 -1.016,0 -1.661,0.716 -1.661,1.7 0,0.984 0.639,1.701 1.648,1.701 C -0.723,0.704 -0.293,0.443 0,0"
             style="fill:#231f20;fill-opacity:1;fill-rule:nonzero;stroke:none"
             id="path46198" />
        </g>
        <g
           id="g46200"
           transform="translate(193.9661,31.6436)">
          <path
             d="m 0,0 c 0.228,0.248 0.508,0.423 1.003,0.423 0.788,0 1.238,-0.56 1.238,-1.401 V -2.913 H 1.603 v 1.896 c 0,0.496 -0.293,0.834 -0.756,0.834 C 0.462,-0.183 0.201,-0.417 0,-0.704 V -2.913 H -0.639 V 2.039 H 0 Z"
             style="fill:#231f20;fill-opacity:1;fill-rule:nonzero;stroke:none"
             id="path46202" />
        </g>
        <g
           id="g46204"
           transform="translate(113.8489,22.3477)">
          <path
             d="M 0,0 H 1.036 V -0.587 H 0 v -1.036 h -0.587 v 1.036 H -1.616 V 0 h 1.029 V 1.029 H 0 Z"
             style="fill:#231f20;fill-opacity:1;fill-rule:nonzero;stroke:none"
             id="path46206" />
        </g>
        <g
           id="g46208"
           transform="translate(116.4866,21.253)">
          <path
             d="M 0,0 H 1.062 V 1.498 Z M 1.701,0.006 H 2.346 V -0.58 H 1.701 V -1.479 H 1.056 v 0.899 h -2.157 v 0.026 l 2.769,3.903 h 0.033 z"
             style="fill:#231f20;fill-opacity:1;fill-rule:nonzero;stroke:none"
             id="path46210" />
        </g>
        <g
           id="g46212"
           transform="translate(121.0803,19.7735)">
          <path
             d="M 0,0 H -0.646 V 3.682 L -1.499,3.18 -1.786,3.747 -0.026,4.874 H 0 Z"
             style="fill:#231f20;fill-opacity:1;fill-rule:nonzero;stroke:none"
             id="path46214" />
        </g>
        <g
           id="g46216"
           transform="translate(124.676,21.253)">
          <path
             d="M 0,0 H 1.062 V 1.498 Z M 1.701,0.006 H 2.346 V -0.58 H 1.701 V -1.479 H 1.056 v 0.899 h -2.157 v 0.026 l 2.769,3.903 h 0.033 z"
             style="fill:#231f20;fill-opacity:1;fill-rule:nonzero;stroke:none"
             id="path46218" />
        </g>
        <g
           id="g46220"
           transform="translate(128.4993,21.253)">
          <path
             d="M 0,0 H 1.062 V 1.498 Z M 1.701,0.006 H 2.346 V -0.58 H 1.701 V -1.479 H 1.056 v 0.899 h -2.157 v 0.026 l 2.769,3.903 h 0.033 z"
             style="fill:#231f20;fill-opacity:1;fill-rule:nonzero;stroke:none"
             id="path46222" />
        </g>
        <g
           id="g46224"
           transform="translate(134.0569,21.253)">
          <path
             d="M 0,0 H 1.062 V 1.498 Z M 1.701,0.006 H 2.346 V -0.58 H 1.701 V -1.479 H 1.056 v 0.899 h -2.157 v 0.026 l 2.769,3.903 h 0.033 z"
             style="fill:#231f20;fill-opacity:1;fill-rule:nonzero;stroke:none"
             id="path46226" />
        </g>
        <g
           id="g46228"
           transform="translate(139.8616,23.2852)">
          <path
             d="m 0,0 c 0,-0.534 -0.273,-0.847 -0.645,-1.016 0.483,-0.182 0.795,-0.574 0.795,-1.128 0,-0.866 -0.592,-1.452 -1.504,-1.452 -0.848,0 -1.317,0.437 -1.551,1.186 l 0.586,0.156 c 0.15,-0.463 0.417,-0.756 0.965,-0.756 0.507,0 0.859,0.339 0.859,0.866 0,0.483 -0.384,0.841 -0.932,0.841 h -0.52 v 0.567 h 0.534 c 0.397,0 0.768,0.248 0.768,0.743 0,0.475 -0.326,0.768 -0.768,0.768 -0.437,0 -0.711,-0.254 -0.848,-0.683 l -0.566,0.241 c 0.215,0.605 0.664,1.029 1.42,1.029 C -0.573,1.362 0,0.795 0,0"
             style="fill:#231f20;fill-opacity:1;fill-rule:nonzero;stroke:none"
             id="path46230" />
        </g>
        <g
           id="g46232"
           transform="translate(141.2424,22.1719)">
          <path
             d="m 0,0 c 0,-1.153 0.332,-1.903 1.022,-1.903 0.685,0 1.017,0.75 1.017,1.903 0,1.146 -0.332,1.896 -1.017,1.896 C 0.332,1.896 0,1.146 0,0 m 2.697,0 c 0,-1.519 -0.606,-2.482 -1.675,-2.482 -1.075,0 -1.68,0.963 -1.68,2.482 0,1.511 0.605,2.476 1.68,2.476 1.069,0 1.675,-0.965 1.675,-2.476"
             style="fill:#231f20;fill-opacity:1;fill-rule:nonzero;stroke:none"
             id="path46234" />
        </g>
        <g
           id="g46236"
           transform="translate(148.0247,19.7735)">
          <path
             d="M 0,0 H -0.646 V 3.682 L -1.499,3.18 -1.786,3.747 -0.026,4.874 H 0 Z"
             style="fill:#231f20;fill-opacity:1;fill-rule:nonzero;stroke:none"
             id="path46238" />
        </g>
        <g
           id="g46240"
           transform="translate(151.7571,23.9766)">
          <path
             d="m 0,0 h -1.856 v -1.382 c 0.156,0.078 0.364,0.144 0.631,0.144 0.886,0 1.525,-0.574 1.525,-1.538 0,-0.854 -0.58,-1.511 -1.519,-1.511 -0.807,0 -1.283,0.377 -1.53,1.035 l 0.554,0.261 c 0.142,-0.443 0.423,-0.71 0.937,-0.71 0.534,0 0.906,0.404 0.906,0.951 0,0.554 -0.365,0.925 -0.899,0.925 -0.385,0 -0.651,-0.137 -0.847,-0.293 l -0.411,0.195 V 0.586 H 0 Z"
             style="fill:#231f20;fill-opacity:1;fill-rule:nonzero;stroke:none"
             id="path46242" />
        </g>
        <g
           id="g46244"
           transform="translate(156.0901,19.7735)">
          <path
             d="M 0,0 H -0.646 V 3.682 L -1.499,3.18 -1.786,3.747 -0.026,4.874 H 0 Z"
             style="fill:#231f20;fill-opacity:1;fill-rule:nonzero;stroke:none"
             id="path46246" />
        </g>
        <g
           id="g46248"
           transform="translate(159.8225,23.9766)">
          <path
             d="m 0,0 h -1.856 v -1.382 c 0.156,0.078 0.364,0.144 0.631,0.144 0.886,0 1.525,-0.574 1.525,-1.538 0,-0.854 -0.58,-1.511 -1.519,-1.511 -0.807,0 -1.283,0.377 -1.53,1.035 l 0.554,0.261 c 0.142,-0.443 0.423,-0.71 0.937,-0.71 0.535,0 0.906,0.404 0.906,0.951 0,0.554 -0.365,0.925 -0.899,0.925 -0.385,0 -0.651,-0.137 -0.847,-0.293 l -0.411,0.195 V 0.586 H 0 Z"
             style="fill:#231f20;fill-opacity:1;fill-rule:nonzero;stroke:none"
             id="path46250" />
        </g>
        <path
           d="M 202.677,12.756 H 12.756 v 62.362 h 189.921 z"
           style="fill:none;stroke:#231f20;stroke-width:1;stroke-linecap:butt;stroke-linejoin:miter;stroke-miterlimit:10;stroke-dasharray:none;stroke-opacity:1"
           id="path46252" />
        <g
           id="g46254"
           transform="translate(20.1969,39.0099)">
          <path
             d="m 0,0 h 39.036 c 0.391,0 0.709,0.317 0.709,0.709 v 0 c 0,0.391 -0.318,0.708 -0.709,0.708 L 0,1.417 c -0.391,0 -0.709,-0.317 -0.709,-0.708 v 0 C -0.709,0.317 -0.391,0 0,0"
             style="fill:#231f20;fill-opacity:1;fill-rule:evenodd;stroke:none"
             id="path46256" />
        </g>
        <g
           id="g46258"
           transform="translate(156.2001,39.0099)">
          <path
             d="m 0,0 h 39.036 c 0.391,0 0.709,0.317 0.709,0.709 v 0 c 0,0.391 -0.318,0.708 -0.709,0.708 L 0,1.417 c -0.391,0 -0.709,-0.317 -0.709,-0.708 v 0 C -0.709,0.317 -0.391,0 0,0"
             style="fill:#231f20;fill-opacity:1;fill-rule:evenodd;stroke:none"
             id="path46260" />
        </g>
        <g
           id="g46262"
           transform="translate(109.1772,21.318718)">
          <path
             d="M 0,0 -0.722,0.389 C -0.898,0.484 -1.034,0.415 -1.186,0.207 -1.518,-0.25 -1.679,-0.341 -2.087,-0.113 -2.468,0.1 -2.74,0.352 -3.082,0.694 c -0.342,0.342 -0.594,0.614 -0.807,0.995 -0.227,0.407 -0.137,0.569 0.32,0.901 0.209,0.151 0.277,0.288 0.182,0.464 L -3.776,3.776 C -3.935,4.083 -4.16,4.118 -4.494,4.005 -4.954,3.849 -5.399,3.185 -5.376,2.87 c 0.066,-0.921 0.527,-2.028 1.487,-2.988 0.959,-0.96 2.066,-1.421 2.987,-1.487 0.316,-0.022 0.976,0.427 1.131,0.887 C 0.342,-0.384 0.307,-0.159 0,0"
             style="fill:#231f20;fill-opacity:1;fill-rule:nonzero;stroke:none"
             id="path46264" />
        </g>
        <g
           id="g46266"
           transform="translate(108.6623,24.571018)">
          <path
             d="M 0,0 C -0.439,0.439 -1.03,0.68 -1.643,0.677 -1.796,0.676 -1.918,0.553 -1.918,0.4 c 10e-4,-0.151 0.124,-0.274 0.276,-0.274 10e-4,0 0.005,0 0.007,0 0.471,0 0.913,-0.183 1.245,-0.516 0.334,-0.334 0.518,-0.778 0.516,-1.251 -0.001,-0.152 0.122,-0.276 0.275,-0.277 v 0 c 0.152,0 0.275,0.123 0.276,0.275 C 0.679,-1.022 0.439,-0.438 0,0 m -1.645,-0.472 c -0.152,-0.002 -0.274,-0.126 -0.273,-0.278 10e-4,-0.151 0.124,-0.273 0.275,-0.273 0.003,0 0.006,0 0.008,0 0.164,0 0.318,-0.064 0.433,-0.179 0.117,-0.117 0.18,-0.272 0.179,-0.438 -0.002,-0.152 0.121,-0.276 0.273,-0.278 h 0.002 c 0.151,0 0.274,0.122 0.276,0.274 0.002,0.314 -0.119,0.61 -0.34,0.832 -0.222,0.221 -0.522,0.338 -0.833,0.34"
             style="fill:#231f20;fill-opacity:1;fill-rule:nonzero;stroke:none"
             id="path46268" />
        </g>
        <g
           id="g46270"
           transform="translate(104.3903,34.7123)">
          <path
             d="m 0,0 5.33,-2.323 c 0.261,-0.114 0.273,-0.481 0.02,-0.612 l -1.081,-0.558 -3.22,2.24 C 1.015,-1.23 0.98,-1.257 0.978,-1.289 L 3.675,-3.863 C 3.742,-3.927 3.78,-4.016 3.78,-4.109 V -5.301 C 3.78,-5.643 3.331,-5.77 3.152,-5.478 L 2.498,-4.407 1.113,-5.121 C 0.918,-5.222 0.68,-5.114 0.628,-4.9 l -1.093,4.509 C -0.531,-0.118 -0.257,0.112 0,0"
             style="fill:#231f20;fill-opacity:1;fill-rule:nonzero;stroke:none"
             id="path46272" />
        </g>
      </g>
    </g>
  </g>
</svg>
