<?xml version="1.0" encoding="UTF-8" standalone="no"?>
<!-- Created with Inkscape (http://www.inkscape.org/) -->

<svg
   width="221.59869mm"
   height="75.248383mm"
   viewBox="0 0 221.59869 75.248383"
   version="1.1"
   id="svg1649"
   inkscape:export-filename="swisscoffee2.svg"
   inkscape:export-xdpi="96"
   inkscape:export-ydpi="96"
   xmlns:inkscape="http://www.inkscape.org/namespaces/inkscape"
   xmlns:sodipodi="http://sodipodi.sourceforge.net/DTD/sodipodi-0.dtd"
   xmlns="http://www.w3.org/2000/svg"
   xmlns:svg="http://www.w3.org/2000/svg">
  <sodipodi:namedview
     id="namedview1651"
     pagecolor="#505050"
     bordercolor="#eeeeee"
     borderopacity="1"
     inkscape:showpageshadow="0"
     inkscape:pageopacity="0"
     inkscape:pagecheckerboard="0"
     inkscape:deskcolor="#505050"
     inkscape:document-units="mm"
     showgrid="false" />
  <defs
     id="defs1646">
    <filter
       style="color-interpolation-filters:sRGB"
       inkscape:label="Drop Shadow"
       id="filter2730"
       x="-0.21011335"
       y="-0.42204395"
       width="1.4202267"
       height="1.844088">
      <feFlood
         flood-opacity="1"
         flood-color="rgb(233,0,0)"
         result="flood"
         id="feFlood2720" />
      <feComposite
         in="flood"
         in2="SourceGraphic"
         operator="in"
         result="composite1"
         id="feComposite2722" />
      <feGaussianBlur
         in="composite1"
         stdDeviation="10.7937"
         result="blur"
         id="feGaussianBlur2724" />
      <feOffset
         dx="0"
         dy="0"
         result="offset"
         id="feOffset2726" />
      <feComposite
         in="SourceGraphic"
         in2="offset"
         operator="over"
         result="fbSourceGraphic"
         id="feComposite2728" />
      <feColorMatrix
         result="fbSourceGraphicAlpha"
         in="fbSourceGraphic"
         values="0 0 0 -1 0 0 0 0 -1 0 0 0 0 -1 0 0 0 0 1 0"
         id="feColorMatrix2732" />
      <feFlood
         id="feFlood2734"
         flood-opacity="1"
         flood-color="rgb(233,0,0)"
         result="flood"
         in="fbSourceGraphic" />
      <feComposite
         in2="fbSourceGraphic"
         id="feComposite2736"
         in="flood"
         operator="in"
         result="composite1" />
      <feGaussianBlur
         id="feGaussianBlur2738"
         in="composite1"
         stdDeviation="10.7937"
         result="blur" />
      <feOffset
         id="feOffset2740"
         dx="0"
         dy="0"
         result="offset" />
      <feComposite
         in2="offset"
         id="feComposite2742"
         in="fbSourceGraphic"
         operator="over"
         result="composite2" />
    </filter>
    <filter
       style="color-interpolation-filters:sRGB"
       inkscape:label="Drop Shadow"
       id="filter2823"
       x="-0.15751477"
       y="-0.41576377"
       width="1.3150295"
       height="1.8315276">
      <feFlood
         flood-opacity="1"
         flood-color="rgb(255,255,255)"
         result="flood"
         id="feFlood2813" />
      <feComposite
         in="flood"
         in2="SourceGraphic"
         operator="in"
         result="composite1"
         id="feComposite2815" />
      <feGaussianBlur
         in="composite1"
         stdDeviation="10.7937"
         result="blur"
         id="feGaussianBlur2817" />
      <feOffset
         dx="0"
         dy="0"
         result="offset"
         id="feOffset2819" />
      <feComposite
         in="SourceGraphic"
         in2="offset"
         operator="over"
         result="fbSourceGraphic"
         id="feComposite2821" />
      <feColorMatrix
         result="fbSourceGraphicAlpha"
         in="fbSourceGraphic"
         values="0 0 0 -1 0 0 0 0 -1 0 0 0 0 -1 0 0 0 0 1 0"
         id="feColorMatrix2825" />
      <feFlood
         id="feFlood2827"
         flood-opacity="1"
         flood-color="rgb(255,255,255)"
         result="flood"
         in="fbSourceGraphic" />
      <feComposite
         in2="fbSourceGraphic"
         id="feComposite2829"
         in="flood"
         operator="in"
         result="composite1" />
      <feGaussianBlur
         id="feGaussianBlur2831"
         in="composite1"
         stdDeviation="10.7937"
         result="blur" />
      <feOffset
         id="feOffset2833"
         dx="0"
         dy="0"
         result="offset" />
      <feComposite
         in2="offset"
         id="feComposite2835"
         in="fbSourceGraphic"
         operator="over"
         result="composite2" />
    </filter>
  </defs>
  <g
     inkscape:label="Ebene 1"
     inkscape:groupmode="layer"
     id="layer1"
     transform="translate(5.8871876,6.93939)">
    <g
       id="g2152"
       transform="matrix(0.31674744,0,0,0.31674744,69.204858,-11.234431)">
      <g
         id="g2839">
        <path
           id="path428-6"
           style="fill:#ff0d0d;fill-opacity:1;stroke:#000000;stroke-width:0;paint-order:markers fill stroke;filter:url(#filter2730)"
           d="m -111.43572,65.37009 c -1.19955,-0.003 -2.39911,0.085 -3.59203,0.29714 -2.56659,0.45638 -4.57943,1.16237 -7.07296,1.92856 -6.01552,2.37127 -11.57621,5.87244 -16.29409,10.30273 -0.80324,0.75428 -1.54378,1.57267 -2.31562,2.35903 -2.03074,2.25611 -3.99724,4.60441 -5.41983,7.30601 -1.64554,3.12499 -2.68598,6.47601 -3.70158,9.83971 -1.20815,4.705 -1.23291,9.60977 0.98289,14.02654 0.3766,0.7507 0.85435,1.44578 1.28157,2.16886 2.79442,4.61609 6.69198,8.36653 10.30583,12.32173 3.45409,3.76475 6.98601,7.51899 9.71672,11.86335 0.55638,0.88514 1.04939,1.80873 1.57407,2.71302 1.88087,3.64306 3.02294,7.5837 3.622,11.62874 0.15096,1.01931 0.32488,2.04032 0.3607,3.0701 0.0379,1.08876 -0.0938,2.17703 -0.14056,3.26543 -0.86525,5.92236 -3.14996,11.6828 -6.74481,16.49977 -0.68098,0.91246 -1.48043,1.73047 -2.22053,2.59571 -0.90652,0.75642 -1.73893,1.61111 -2.71922,2.26911 -4.73274,3.17685 -10.67286,4.78114 -16.26102,5.53713 -1.349,0.18249 -2.713,0.22779 -4.06952,0.34158 -5.27291,-0.13062 -10.39297,-1.16842 -15.04611,-3.71863 -0.0773,-0.0424 0.29582,-0.0647 0.23254,-0.12609 -0.90713,-0.88003 -1.9276,-1.63533 -2.89129,-2.45308 -4.27562,-4.3108 -8.00362,-9.55383 -9.48056,-15.54272 -0.25071,-1.01664 -0.34187,-2.06647 -0.51263,-3.09956 -0.32921,-3.98663 0.82015,-7.72245 2.21537,-11.39 l -3.33882,-1.85415 c -1.36196,3.74137 -2.53569,7.54596 -2.25567,11.58999 0.16553,1.0519 0.24878,2.1203 0.49661,3.15588 1.43842,6.01082 5.19967,11.37733 9.4325,15.74478 0.95247,0.82991 1.82122,1.76677 2.85719,2.48977 7.2095,5.03152 12.54793,7.1234 21.2974,7.34787 1.35915,-0.12665 2.72654,-0.1862 4.07779,-0.37982 5.63085,-0.80685 11.63853,-2.45808 16.41037,-5.66477 0.99732,-0.67022 1.84074,-1.54516 2.76107,-2.31769 0.74686,-0.88021 1.55351,-1.7131 2.24069,-2.64067 3.61259,-4.87629 5.91614,-10.69677 6.85436,-16.6641 0.0603,-1.1045 0.20957,-2.20774 0.18087,-3.31349 -0.0197,-0.75826 -0.12177,-1.51149 -0.23048,-2.26343 l 0.4129,0.24185 c 1.68843,-2.84102 3.70665,-5.42836 6.14381,-7.65793 2.3868,-2.1001 5.19545,-3.58727 8.13129,-4.75733 2.07439,-0.67428 4.25928,-1.17652 6.44198,-0.99581 0.15623,0.14885 0.31235,0.30025 0.38809,0.41134 0.54573,0.80049 0.71436,1.28516 1.10381,2.16215 0.68041,2.09999 1.1748,4.40982 0.89193,6.6306 -0.0628,0.49279 -0.20815,0.97153 -0.31212,1.45728 -0.77402,3.23373 -2.82235,5.89985 -4.45554,8.72866 -1.95453,3.0733 -3.35138,6.42992 -4.7656,9.7715 -1.16417,2.6847 -1.59086,5.56216 -1.80506,8.4553 -0.10398,4.8453 3.14875,5.86218 6.99802,8.1163 2.8115,1.1697 5.87295,1.10799 8.83202,0.67076 3.84508,-0.90961 6.82121,-3.28819 9.72447,-5.83531 3.05368,-2.81808 4.86517,-6.5073 6.43217,-10.27947 0.88441,2.57047 1.97861,4.50468 4.13876,6.44715 1.48525,0.85706 2.92195,1.80369 4.45554,2.5709 0.92823,0.46434 3.1643,0.57468 4.18011,0.40928 1.07675,-0.17531 1.62908,-0.56357 2.56263,-1.05988 2.17996,-1.08376 3.55294,-2.89153 4.41266,-5.11287 1.09238,-2.91226 1.40442,-6.03514 1.66708,-9.11211 0.15898,-1.93632 0.24063,-3.87189 0.16691,-5.80739 1.09643,0.63383 2.3056,1.24574 3.65973,1.97662 0.5443,0.0857 1.08145,0.25659 1.63246,0.25683 2.94607,0 5.55915,-1.85549 8.00726,-3.25045 l -0.231,-0.15037 c 2.26309,-1.73146 4.61943,-3.33207 6.94893,-4.97128 0.0266,-0.0187 0.0525,-0.0376 0.0791,-0.0563 -0.85635,1.43504 -1.77202,2.97119 -1.77922,2.98328 -2.95891,5.11147 -5.593,10.45433 -7.24039,16.13906 -0.0342,0.57927 -0.19798,1.16543 -0.10283,1.73788 0.40684,2.44766 3.98855,3.66693 5.54798,4.31085 0.26654,0.11006 0.54458,0.18317 0.82889,0.23203 l 0.0326,0.0243 c 0.0736,0.003 0.14829,0.01 0.22221,0.0134 0.22513,0.0276 0.45396,0.0418 0.68316,0.0491 1.60637,0.14623 3.26793,0.46682 4.84725,0.36225 0.40166,-0.0266 0.79165,-0.14572 1.18752,-0.21859 1.1289,-0.41837 2.44541,-0.58409 3.42175,-1.10304 0.5437,-0.14312 0.83641,-0.57813 1.50302,-0.74284 2.63287,-2.68385 1.14557,-1.19636 3.1321,-3.36982 2.63299,-2.97609 4.97355,-6.19879 7.29413,-9.42061 0.44958,-0.60243 0.90714,-1.19883 1.34876,-1.80713 0.19277,-0.26554 2.22083,-3.16094 2.45049,-3.45973 1.19231,-1.55123 2.57437,-2.93805 3.9393,-4.33359 1.74806,-1.56255 3.53056,-3.11436 5.48649,-4.40387 -0.0208,1.96476 0.79629,3.79055 1.85156,5.58416 1.25016,2.12719 3.02437,3.86535 4.38836,5.91333 1.38192,1.96537 2.18357,4.21525 2.23191,6.612 -0.5047,3.24641 -1.74591,4.28514 -4.77232,5.2555 -0.71614,0.14466 -1.43917,0.27056 -2.16524,0.37827 -0.7495,-0.0809 -1.49779,-0.1727 -2.24276,-0.24702 l 0.60823,0.45372 c -0.3968,0.0405 -0.79437,0.0734 -1.19217,0.0992 -1.79262,-0.0857 -3.59692,-0.23363 -5.30149,-0.82217 -1.33812,-1.21941 -3.21098,-3.3282 -4.05453,-1.73013 0.24625,0.494 0.8819,1.06993 1.32912,1.36478 2.29015,1.50995 4.08343,2.88418 6.66832,3.43131 1.26853,0.0984 2.54399,0.11042 3.81683,0.047 0.40087,0.02 0.80209,0.037 1.20199,0.0506 1.04624,-0.0507 2.11359,0.12076 3.15846,0.0279 0.31733,-0.0282 0.6355,-0.0881 0.9524,-0.16278 0.5845,0.0451 1.1653,0.0661 1.73478,0.0284 0.40166,-0.0266 0.79165,-0.14572 1.18752,-0.21859 2.77148,-1.02711 4.96564,-2.23571 7.1608,-4.223 1.1412,-1.23206 2.2239,-2.51357 3.27009,-3.82509 0.80689,-0.81543 1.3914,-1.78113 2.41329,-3.14916 0.84578,-1.13933 1.67834,-2.28832 2.50682,-3.43855 0.44958,-0.60243 0.90714,-1.19934 1.34876,-1.80764 0.19277,-0.26554 2.22083,-3.16095 2.45049,-3.45974 1.19231,-1.55123 2.57437,-2.93805 3.9393,-4.33359 1.74803,-1.56252 3.5306,-3.11385 5.48649,-4.40335 -0.0208,1.96476 0.79629,3.79055 1.85156,5.58416 1.25016,2.12719 3.02437,3.86483 4.38836,5.91282 1.38192,1.96537 2.18357,4.21576 2.23191,6.61251 -0.5047,3.24641 -1.74591,4.28514 -4.77232,5.2555 -1.6408,0.33145 -3.31356,0.57545 -4.99194,0.68419 -1.79279,-0.0857 -3.59729,-0.234 -5.302,-0.82269 -1.33809,-1.21948 -3.21057,-3.32799 -4.05402,-1.73012 0.24625,0.494 0.8819,1.06992 1.32912,1.36477 2.29016,1.50995 4.08343,2.8847 6.66832,3.43183 1.26749,0.0983 2.54192,0.11024 3.81372,0.047 0.40191,0.0201 0.80417,0.0364 1.2051,0.0501 1.04624,-0.0507 2.11359,0.12075 3.15846,0.0279 0.8913,-0.0792 1.78828,-0.40306 2.64997,-0.62787 1.61407,-0.732 3.45248,-1.33751 4.966,-2.24847 1.76043,-1.10522 3.48483,-2.18693 5.19878,-3.383 1.68415,-1.00004 3.16845,-2.23513 4.28705,-4.44698 0.0935,-0.15372 0.1871,-0.30775 0.2806,-0.46147 l 0.62881,-2.62289 c -1.18984,1.93309 -1.61578,3.02109 -3.04701,4.18978 -0.65357,0.51813 -2.54205,1.88547 -5.16118,3.17453 -0.85477,0.60077 -4.56312,2.73437 -3.3507,-0.78766 0.006,-0.19474 0.008,-0.38956 -0.009,-0.58343 -0.17357,-1.98061 -1.08925,-3.91548 -2.15439,-5.55211 -1.30405,-2.09897 -3.11773,-3.80083 -4.4049,-5.90972 -1.43237,-2.2697 -2.48303,-4.65309 -1.6583,-7.35459 0.1882,-0.32573 0.33265,-0.68121 0.56482,-0.9772 1.25561,-1.60086 3.1963,-0.92296 4.81573,-0.38086 0.0864,0.0358 0.0962,0.0397 0.17208,0.0713 0.25096,0.28744 0.46506,0.60157 0.69143,0.93224 0.18499,0.2702 0.35597,0.54978 0.53382,0.82476 0.16854,0.20802 0.34107,0.41287 0.5054,0.62425 0.10925,0.14054 0.16675,0.33202 0.31471,0.43098 0.12422,0.0831 0.24375,0.16676 0.36277,0.25011 0.0174,0.231 0.12646,0.28077 0.5612,0.40308 1.99834,1.47705 3.10075,2.62633 2.96209,0.28215 -0.51943,-3.87298 -2.74342,-5.52408 -6.71897,-6.79648 -1.55977,-0.15569 -3.13126,-0.14101 -4.68653,0.0289 -0.64822,-0.0804 -1.18158,-0.0258 -1.67432,0.24443 -1.05938,0.19363 -2.10638,0.4581 -3.13159,0.7922 -2.89705,1.52076 -5.3887,3.66487 -7.79694,5.86062 -1.04354,1.06458 -1.72495,1.7265 -2.69803,2.84944 -1.85689,2.14291 -3.30572,4.58245 -5.04568,6.81612 -1.50162,2.09749 -3.02447,4.18751 -4.63848,6.20221 -0.75157,0.5794 -1.51933,1.13858 -2.29805,1.68878 -0.85477,0.60077 -1.7068,1.20563 -2.5461,1.82728 0.006,-0.19472 0.008,-0.38907 -0.009,-0.58291 -0.17357,-1.98062 -1.08925,-3.91549 -2.15439,-5.55212 -1.30405,-2.09896 -3.11773,-3.80134 -4.4049,-5.91023 -1.43237,-2.2697 -2.48303,-4.65309 -1.6583,-7.35459 0.1882,-0.32573 0.33265,-0.68121 0.56482,-0.9772 1.25561,-1.60086 3.1963,-0.92296 4.81573,-0.38086 0.0862,0.0357 0.0959,0.0398 0.17157,0.0713 0.25113,0.28757 0.46544,0.60138 0.69194,0.93224 0.18499,0.2702 0.35597,0.54978 0.53382,0.82476 0.16854,0.20802 0.34107,0.41287 0.5054,0.62425 0.10925,0.14054 0.16675,0.33254 0.31471,0.4315 0.12429,0.0831 0.2437,0.16671 0.36277,0.25011 0.0175,0.23054 0.12678,0.28034 0.5612,0.40256 1.99834,1.47705 3.10075,2.62633 2.96209,0.28215 -0.51943,-3.87298 -2.74342,-5.52357 -6.71897,-6.79597 -1.55977,-0.15569 -3.13126,-0.14152 -4.68653,0.0284 -0.64805,-0.0804 -1.18118,-0.0251 -1.6738,0.24494 -1.05954,0.19364 -2.10675,0.45754 -3.13211,0.79169 -2.89705,1.52076 -5.3887,3.66539 -7.79694,5.86114 -1.04354,1.06458 -1.72495,1.72598 -2.69803,2.84892 -1.85689,2.14291 -3.30572,4.58297 -5.04568,6.81664 -2.55603,3.5703 -5.16579,7.12507 -8.20105,10.30893 -1.3877,1.23055 -2.91624,2.24298 -4.56975,3.03237 -2.41244,0.58662 -4.05595,0.94267 -7.15719,0.83561 -0.65874,-0.0227 -1.3402,-0.41007 -1.98799,-0.54674 -0.69211,-0.73078 -1.36943,-1.56694 -0.0243,-1.72806 1.54299,-5.68464 4.15992,-11.01506 7.13239,-16.08325 0.53725,-0.88286 2.42708,-4.00946 3.05614,-4.96921 0.38576,-0.58857 0.82955,-1.13799 1.20975,-1.73013 0.28478,-0.44357 1.05362,-0.92128 0.78289,-1.37356 -0.0923,-0.15428 -0.17764,-0.29415 -0.26251,-0.43253 0.18373,0.0297 0.31644,0.0456 0.2067,-0.008 -0.1034,-0.0502 -0.20643,-0.10491 -0.30954,-0.15916 -1.54804,-2.49302 -1.89105,-2.28638 -3.64164,-2.05207 -2.06318,1.108 -3.84861,2.54087 -5.75727,3.89278 -2.60878,1.8478 -5.25598,3.64323 -7.85637,5.50354 l 0.13953,0.0879 c -2.57868,1.48995 -5.25944,2.98465 -8.3013,2.18488 -0.32007,-0.27635 -0.6249,-0.56674 -0.91364,-0.87178 -0.0114,-0.15212 -0.0205,-0.30419 -0.0341,-0.4563 -0.0741,-1.95363 -0.45947,-3.8028 -1.15703,-5.62033 -0.47246,-1.06053 -3.6248,-7.88599 -5.26635,-3.64991 -0.40142,1.88354 0.17258,3.7226 0.90899,5.44566 0.64331,1.15994 1.32971,2.07691 2.07274,2.85358 0.16783,2.22955 0.10363,4.46054 -0.062,6.69468 -0.2436,3.03993 -0.53472,6.12944 -1.65416,8.99377 -0.80496,2.15187 -2.1389,3.85177 -4.24522,4.88083 -1.31768,0.66003 -2.32075,0.99415 -3.81837,0.90589 -0.46927,-0.0277 -0.94132,-0.0616 -1.40147,-0.15761 -0.0501,-0.0104 -0.11194,-0.0295 -0.17725,-0.0517 -1.8192,-1.83168 -2.72527,-3.74936 -3.58996,-6.4611 -0.63658,-3.20585 -0.95891,-6.16554 -0.77721,-9.43974 -2.3e-4,-0.89669 -0.002,-1.79348 -0.002,-2.69027 0.0436,-1.26206 0.0528,-2.52496 0.0553,-3.78788 0.0703,-0.35021 0.21083,-0.72694 0.003,-0.97049 7e-4,-0.23561 10e-4,-0.47135 0.003,-0.70693 -0.66161,-0.20731 -1.30599,-0.54579 -1.96215,-0.7953 -0.5263,-0.32563 -1.06155,-0.64135 -1.5627,-0.9958 0.006,0.22831 0.009,0.45686 0.0134,0.68522 -0.006,2.5e-4 -0.0124,-2.9e-4 -0.0186,0 -0.42293,0.0196 0.009,0.84683 0.0109,1.27021 0.006,1.01496 0.006,2.02978 0.005,3.04478 -0.0111,0.48221 -0.0241,0.96449 -0.0419,1.44642 -0.19235,3.34786 -0.64312,6.66628 -1.84226,9.82317 -1.60219,3.99436 -3.43884,7.93691 -6.65799,10.90786 -2.87326,2.4828 -5.83509,4.80922 -9.63766,5.62498 -2.52918,0.32643 -5.1303,0.38393 -7.54993,-0.43201 -1.22427,-1.18214 -1.7249,-2.62251 -1.64744,-4.32273 0.19251,-2.85737 0.58251,-5.70103 1.71359,-8.36022 1.38611,-3.33546 2.8002,-6.66765 4.74493,-9.72602 1.67147,-2.853 3.70355,-5.57023 4.52582,-8.82788 0.1134,-0.50461 0.26755,-1.00161 0.34055,-1.51361 0.32259,-2.26286 -0.14714,-4.62076 -0.79168,-6.78098 -1.5161,-3.63079 -1.72899,-3.3273 -5.80017,-5.82962 -0.7673,-0.47162 -1.11199,-0.47047 -1.98592,-0.66714 -2.36569,-0.16224 -4.70923,0.33021 -6.93653,1.1219 -2.95328,1.22287 -5.78397,2.74057 -8.17366,4.8953 -1.53319,1.42238 -2.90554,2.97749 -4.15892,4.63176 -0.64578,-2.67972 -1.55987,-5.2871 -2.80861,-7.76386 -0.51919,-0.91191 -1.00519,-1.84353 -1.55753,-2.73575 -2.70489,-4.36933 -6.22911,-8.14578 -9.6914,-11.91194 -3.59348,-3.94271 -7.47205,-7.67489 -10.30066,-12.23801 -0.43485,-0.70774 -0.91816,-1.38822 -1.30483,-2.12339 -2.27434,-4.32412 -2.33602,-9.15812 -1.15859,-13.81931 0.99184,-3.34941 2.01888,-6.64482 3.67471,-9.74256 1.42456,-2.66506 3.36099,-4.99955 5.36247,-7.24245 0.76211,-0.78082 1.49299,-1.59324 2.28616,-2.34249 4.67034,-4.41163 10.18871,-7.89687 16.19023,-10.18181 2.73679,-0.81648 4.28616,-1.3828 7.09259,-1.82418 3.17396,-0.49918 6.39134,-0.15324 9.51983,0.45631 0.68429,0.1882 1.54944,1.06429 2.05311,0.5643 0.44137,-0.43815 -2.00366,-0.7756 -1.4888,-1.12448 0.53825,-0.36472 1.15143,0.61354 1.67586,0.99788 1.59343,1.16776 2.55409,2.74188 3.31453,4.53409 0.16679,0.6245 0.41916,1.23257 0.50075,1.87378 0.49688,3.90517 -1.37173,8.0547 -3.28198,11.31508 -4.42651,5.73372 -9.64956,10.77437 -15.89515,14.51901 -5.03563,2.82839 -8.99358,4.97937 -14.90917,4.18734 l 3.16829,2.35593 c 5.72945,0.67389 10.03084,-1.74663 14.8425,-4.52634 6.38786,-3.91406 11.43462,-8.75479 16.0445,-14.59808 1.9918,-3.38774 3.86474,-7.44518 3.45147,-11.50782 -0.0676,-0.66461 -0.29844,-1.3027 -0.44752,-1.95389 -0.92755,-2.54323 -2.48921,-4.49577 -4.87154,-5.8043 -5.15708,-2.83259 -3.48274,-2.24743 -7.20421,-3.16828 -1.97004,-0.35552 -3.96989,-0.6124 -5.96914,-0.61701 z m 91.77941,51.71364 c -0.39018,2.01895 -1.98164,4.67704 -1.17047,6.71276 l 3.63182,1.60042 c -1.23717,-1.24851 0.66474,-4.95071 1.01544,-6.4332 z m -76.85009,24.56956 c 0.67446,0.32898 1.43992,0.76901 1.09864,0.61288 -0.37826,-0.17307 -0.73749,-0.39622 -1.09864,-0.61288 z m 143.93643,4.26588 c 0.34584,0.0114 0.69145,0.0322 1.03663,0.0625 0.0211,0.0253 0.0447,0.0519 0.0594,0.0739 0.1738,0.26003 0.31293,0.52626 0.43098,0.79788 -0.48896,-0.33806 -1.00065,-0.64818 -1.52704,-0.93431 z m -1.45004,0.005 c 0.20076,0.11692 0.42029,0.24939 0.53382,0.33589 0.0331,0.0252 0.0629,0.0521 0.0946,0.078 -0.2034,-0.12205 -0.4321,-0.26286 -0.67541,-0.41289 0.0157,-6.6e-4 0.0313,-4.2e-4 0.047,-0.001 z m -36.52748,2.56986 c 0.34617,0.0114 0.69214,0.0322 1.03766,0.0625 0.021,0.0252 0.0442,0.052 0.0589,0.0739 0.1737,0.25989 0.31297,0.52641 0.43098,0.79788 C 10.4909,149.09011 9.9791,148.78022 9.4525,148.494 Z m -1.45005,0.005 c 0.20091,0.11699 0.42071,0.24983 0.53434,0.33641 0.0328,0.025 0.0626,0.0513 0.094,0.077 -0.20321,-0.12195 -0.43186,-0.26252 -0.67489,-0.41238 0.0155,-6.5e-4 0.031,-4.2e-4 0.0465,-0.001 z m -59.67904,11.65406 c 0.38927,0.25751 0.77852,0.5152 1.16789,0.77257 0.38937,0.25739 -0.79618,-0.49028 -1.16789,-0.77257 z m 81.97071,11.77138 c 0.0652,0.0393 0.11296,0.0687 0.17363,0.10542 -0.0437,-0.001 -0.0992,-0.0403 -0.17363,-0.10542 z m -37.97856,2.574 c 0.066,0.0398 0.11437,0.0694 0.1757,0.10646 -0.044,-0.001 -0.10027,-0.0404 -0.1757,-0.10646 z"
           sodipodi:nodetypes="cscscscsccscsscscsscsscsccccscscsscscscccccscscccccccccssccccccccscccssccccscccccssccccccccccccscccscscccccsscccccccccscccscccccccccccccsccscssccccccccsccccccccsccscssccccccccscccscccssscsccsccccccccccccssccccccccccscccccccccccscscccccsccscscscscssscsccccccscscscccccccccsscccssccccscccsccccscccccccccccc" />
        <path
           id="path829-3"
           style="fill:#f7f7f7;fill-opacity:1;stroke:#000000;stroke-width:0;paint-order:markers fill stroke;filter:url(#filter2823)"
           d="m 138.54072,74.703296 c -0.19783,0.002 -0.39413,0.009 -0.58756,0.0227 -3.74237,0.27491 -7.02081,2.22469 -10.1875,4.04368 -5.98209,3.71913 -11.08663,8.58819 -16.04036,13.54542 -5.8505,6.33502 -10.92526,13.316534 -15.620228,20.533124 -4.471248,6.78737 -8.146814,14.04145 -11.080954,21.6116 -1.98755,5.23866 -2.74169,10.7836 -3.09284,16.34008 -0.16177,3.09562 -0.29556,6.21391 0.44649,9.2537 0.53932,2.20927 0.83945,2.63541 1.75028,4.65502 1.6066,3.04781 3.82101,5.88749 6.862106,7.62279 1.760506,1.00457 3.576092,1.91001 5.363998,2.86494 4.927248,1.82314 9.998918,3.25027 15.191828,4.05401 5.68579,0.61368 11.40871,0.92826 17.11059,0.42582 3.46452,-0.56534 6.93541,-1.4536 10.13271,-2.93574 2.08357,-0.96583 2.68329,-1.46282 4.64261,-2.74092 3.18312,-2.03403 6.1953,-4.29393 8.96276,-6.86108 l -0.007,-0.005 c 3.77317,-3.24309 5.21595,-5.50983 8.88318,-8.90281 2.47083,-2.27448 5.11182,-4.32292 7.90184,-6.14795 -2.4379,4.08404 -3.83539,8.6279 -4.83433,13.2948 -0.30041,2.93232 -1.43952,6.30642 -0.28009,9.19788 0.21127,0.52692 0.54475,0.99633 0.81701,1.49449 0.76189,0.94649 1.5649,2.00781 2.44843,2.84892 0.89827,0.85513 2.04699,1.68917 3.12332,2.30115 4.91385,2.79389 3.48271,2.18383 6.83731,3.37085 2.74566,0.82622 5.61339,1.31681 8.47493,1.01545 4.9688,-1.40052 9.04403,-4.81709 12.90981,-8.09512 2.94584,-2.83688 6.04196,-5.88777 7.79125,-9.66401 0.31821,-0.68694 0.53062,-1.41843 0.79582,-2.12752 0.34846,-1.48576 0.70713,-3.01138 0.9648,-4.55217 1.32609,0.0988 2.65871,0.0106 3.9765,-0.25425 2.33463,-0.48808 5.68801,-3.12663 7.72718,-4.24677 0.1289,-0.10108 0.2372,-0.17911 0.35037,-0.26303 7.36963,-3.74284 14.25869,-8.3545 21.14961,-12.90309 2.17005,-1.44372 4.31821,-2.91987 6.44405,-4.4266 -3.05911,7.48591 -6.00531,15.01893 -8.87646,22.57898 -0.4612,-0.74989 -0.72878,-1.59919 -0.8692,-2.55178 0.0287,-0.53419 -0.003,-1.07507 0.0863,-1.60249 0.41895,-2.46748 1.90382,-4.62902 2.8174,-6.91792 l -3.45354,-1.91875 c -0.85959,2.3382 -2.30706,4.50546 -2.76055,6.98614 -0.10041,0.54919 -0.0883,1.11311 -0.13229,1.66966 0.25194,2.22887 1.32756,4.28324 3.46542,5.26273 0.14022,0.0643 0.28019,0.13136 0.42013,0.19792 -1.20861,3.19157 -2.40886,6.38644 -3.59461,9.58546 -1.9824,5.02943 -3.63159,10.17548 -5.36815,15.29054 -0.76901,2.26507 -1.64364,4.49222 -2.43758,6.74843 -0.55102,0.7937 -0.51681,2.20416 -1.29863,2.8453 l 3.39928,2.06809 c 0.68646,-0.86594 0.8038,-2.07323 1.28622,-3.04581 0.74512,-2.28617 1.56227,-4.54867 2.2841,-6.84247 1.62526,-5.16464 3.18263,-10.35199 5.0984,-15.42128 1.18276,-3.29444 2.38757,-6.58235 3.6065,-9.86555 0.60574,0.23033 1.22377,0.4164 1.86293,0.51935 0.96943,0.15613 1.8944,-0.51721 2.84169,-0.77567 8.22232,-3.25633 16.77343,-7.51238 24.2533,-11.87266 5.82869,-3.05697 11.08134,-6.47784 15.983,-10.44277 2.17005,-1.44372 4.31822,-2.91986 6.44406,-4.4266 -3.05911,7.48591 -6.00532,15.01893 -8.87647,22.57898 -0.4612,-0.74989 -0.72877,-1.59919 -0.86919,-2.55178 0.0287,-0.53419 -0.003,-1.07507 0.0863,-1.60249 0.41895,-2.46748 1.90382,-4.62901 2.8174,-6.91792 l -3.45354,-1.91875 c -0.8596,2.3382 -2.30707,4.50546 -2.76056,6.98614 -0.10041,0.54919 -0.0883,1.11312 -0.13229,1.66966 0.25194,2.22887 1.32757,4.28324 3.46542,5.26273 0.14022,0.0643 0.28019,0.13136 0.42013,0.19792 -1.20861,3.19157 -2.40886,6.38644 -3.59461,9.58546 -1.9824,5.02943 -3.63159,10.17548 -5.36815,15.29054 -0.76901,2.26507 -1.64363,4.49222 -2.43757,6.74843 -0.55102,0.7937 -0.51681,2.20416 -1.29863,2.8453 l 3.39927,2.06809 c 0.68646,-0.86593 0.80381,-2.07323 1.28623,-3.0458 0.74512,-2.28618 1.56227,-4.54868 2.2841,-6.84248 1.62526,-5.16464 3.18263,-10.35199 5.09839,-15.42128 1.16975,-3.25819 2.3615,-6.50985 3.56671,-9.75703 0.0723,-0.0146 0.14431,-0.0301 0.21653,-0.045 0.54937,0.19999 1.10886,0.3628 1.6862,0.45579 0.96943,0.15613 1.8944,-0.5172 2.84169,-0.77566 2.22907,-0.98505 4.46053,-1.96602 6.69158,-2.9497 3.91292,-1.42072 7.76038,-3.04088 11.61169,-4.63072 2.37319,-1.06259 4.76335,-2.09653 7.15357,-3.13263 -1.33019,3.22217 -2.49053,6.54435 -2.98638,10.00818 -0.1031,0.72004 -0.23005,1.44796 -0.18655,2.17403 0.044,0.73871 0.2981,1.45018 0.447,2.17506 0.364,0.63585 0.64942,1.32342 1.09192,1.90737 2.25,2.96982 6.33552,4.82664 9.98182,5.29374 3.5144,0.45021 4.63429,0.0976 8.23929,-0.29404 3.01575,-0.61397 5.85533,-1.70338 8.61136,-3.02359 8.70352,-2.98714 18.41234,-9.95815 22.97224,-13.77849 0.83719,-0.57779 1.64431,-1.14027 2.44223,-1.69705 -0.64751,1.94266 -1.17063,3.92441 -1.46141,5.95571 -0.1031,0.72004 -0.23005,1.44796 -0.18655,2.17403 0.044,0.73871 0.2981,1.44966 0.447,2.17454 0.364,0.63585 0.64942,1.32394 1.09192,1.90789 2.25,2.96982 6.33553,4.82664 9.98182,5.29374 3.5144,0.45021 4.6343,0.0976 8.23929,-0.29404 7.7914,-1.58623 15.43855,-4.27812 22.45135,-8.05481 0.9527,-0.51308 1.85864,-1.10902 2.78794,-1.66346 l -3.15588,-2.0407 c -0.9079,0.55642 -1.79177,1.15443 -2.72386,1.66915 -6.9415,3.83307 -14.5728,6.48768 -22.34799,7.96333 -3.5899,0.33012 -4.75525,0.67693 -8.24395,0.13281 -0.9137,-0.14251 -1.7646,-0.66102 -2.67373,-0.77204 -0.26913,-0.22635 -0.55009,-0.44217 -0.80616,-0.68006 -0.3817,-0.59827 -0.76345,-1.19648 -1.14515,-1.79473 -0.1656,-0.69114 -0.43711,-1.36559 -0.49661,-2.07377 -0.06,-0.71541 0.049,-1.43688 0.14211,-2.14871 0.4803,-3.67196 1.76255,-7.19018 3.14865,-10.59987 0.14126,-0.32165 0.28355,-0.64378 0.42478,-0.96583 4.27913,-2.95747 8.41011,-5.6798 13.37903,-8.3814 1.77209,-1.10299 3.71228,-2.01857 5.36608,-3.30833 0.5997,-0.46765 1.11338,-1.03617 1.67328,-1.55081 1.446,-1.41919 2.06049,-3.15802 2.13889,-5.14232 -0.046,-0.92483 -0.40732,-1.63767 -1.22422,-2.1394 -2.60799,-1.60181 -3.87748,-2.53666 -6.50658,-2.99 -3.64149,-0.0524 -6.18305,3.07831 -8.45064,5.52938 -1.9347,2.46748 -3.90409,4.92644 -5.48959,7.64191 -1.75854,3.01209 -3.14747,6.23892 -4.55218,9.42423 -2.13537,1.65209 -4.40426,3.41789 -7.05228,5.39037 -0.46625,0.29726 -0.90059,0.58445 -1.31568,0.86558 l 9.52396,-9.23303 c 0.47582,-0.46129 -6.10661,5.69432 -11.37191,10.53476 -4.48617,3.26359 -7.35646,5.96253 -21.98574,11.99048 -2.18674,0.61464 -4.39725,1.13665 -6.62027,1.55856 -3.58989,0.33012 -4.75524,0.67693 -8.24394,0.13281 -0.91274,-0.14236 -1.7631,-0.65873 -2.67115,-0.7705 -0.26989,-0.22712 -0.55187,-0.44349 -0.80874,-0.68212 -0.3817,-0.59827 -0.76345,-1.19648 -1.14515,-1.79473 -0.1656,-0.69114 -0.43711,-1.36508 -0.49661,-2.07326 -0.06,-0.71541 0.049,-1.43739 0.14211,-2.14922 0.4803,-3.67196 1.76255,-7.19018 3.14865,-10.59987 0.49739,-1.13256 0.99292,-2.26858 1.50326,-3.39824 4.1674,-1.84764 8.29829,-3.77296 12.30054,-5.94899 1.7721,-1.10299 3.71229,-2.01857 5.36608,-3.30833 0.5997,-0.46765 1.11339,-1.03617 1.67329,-1.55081 1.446,-1.41919 2.06048,-3.15802 2.13888,-5.14232 -0.046,-0.92483 -0.40731,-1.63767 -1.22421,-2.1394 -2.608,-1.60181 -3.87748,-2.53666 -6.50658,-2.99 -3.6415,-0.0524 -6.18305,3.07883 -8.45065,5.52989 -1.93469,2.46748 -3.90409,4.92593 -5.48958,7.6414 -1.13697,1.94743 -2.1188,3.98487 -3.05098,6.04252 -3.93583,1.78816 -7.91153,3.49378 -11.85354,5.24516 -6.21806,2.52063 -12.44417,5.08213 -18.94716,6.71484 3.24726,-8.64059 6.64442,-17.22783 10.28412,-25.70851 5.30498,-3.96621 10.44643,-8.14723 15.37994,-12.57184 3.43497,-3.20656 6.87837,-6.49962 9.525,-10.41332 1.07954,-1.59639 1.28897,-2.14482 2.10272,-3.78892 1.0864,-2.76383 1.64147,-4.7773 0.25476,-7.510134 -2.12064,-2.12775 -4.0395,-3.29526 -6.12159,-3.28146 -1.24925,0.008 -2.55731,0.44253 -4.00286,1.34927 -0.66679,0.41824 -1.27199,0.92722 -1.90789,1.39113 -3.55223,2.818764 -5.8844,6.664484 -7.96179,10.625204 -2.11569,4.03377 -2.85548,5.82141 -4.84415,10.16062 -1.75058,3.96659 -3.45809,7.95235 -5.13147,11.95275 -3.84109,2.90108 -7.77863,5.67698 -11.80238,8.32663 -5.80271,3.80273 -15.27914,10.23127 -23.14639,14.68179 -4.39671,2.02458 -8.83429,3.97229 -13.255,5.82187 -1.3157,0.55047 -2.65472,1.04285 -3.98219,1.56424 -0.28485,0.0626 -0.52026,0.11072 -0.76119,0.16072 3.34125,-8.92053 6.84062,-17.78541 10.59677,-26.5374 5.30497,-3.96621 10.44642,-8.14723 15.37994,-12.57185 3.43496,-3.20655 6.87837,-6.49961 9.525,-10.41331 1.07954,-1.59639 1.28896,-2.14482 2.10271,-3.78892 1.0864,-2.76384 1.64147,-4.7773 0.25477,-7.51014 -2.12064,-2.127744 -4.03951,-3.295254 -6.12159,-3.281454 -1.24925,0.008 -2.55731,0.44201 -4.00286,1.34876 -0.6668,0.41824 -1.27199,0.927744 -1.90789,1.391644 -3.55223,2.81876 -5.8844,6.66448 -7.96179,10.62519 -2.11569,4.03378 -2.85548,5.82142 -4.84415,10.16062 -1.75059,3.96661 -3.45809,7.95236 -5.13147,11.95276 -3.8411,2.90108 -7.77864,5.67646 -11.80238,8.32611 -5.86667,3.84464 -12.11135,6.86533 -18.08624,10.76627 -0.0317,0.0177 -0.0634,0.0355 -0.0951,0.0532 -1.76438,1.02439 -3.50708,2.07024 -5.13199,3.31143 -1.98881,1.13061 -3.84164,2.50146 -6.14536,2.94762 -0.1593,0.0258 -0.31889,0.0449 -0.47852,0.0661 0.11708,-1.52974 0.0776,-3.06164 -0.2341,-4.57181 -0.13814,-0.66924 -0.39362,-1.30836 -0.59066,-1.96268 -2.20776,-4.85766 -4.98172,-6.00048 -9.55187,-8.53953 -1.70987,-0.56737 -2.71244,-0.3023 -3.45767,0.62115 -0.0145,-0.014 -0.0306,-0.0268 -0.0444,-0.0413 -1.46902,-0.81455 -2.88376,-1.73684 -4.40748,-2.44377 -0.52636,-0.24421 -1.12724,-0.27595 -1.69654,-0.38809 -3.16267,-0.62312 -5.09635,-0.4782 -8.21139,0.23409 -2.73585,0.70974 -4.74901,2.18871 -6.47764,4.05557 -0.53423,0.21691 -1.06583,0.44341 -1.5937,0.68057 -5.15907,2.63867 -9.9221,5.92501 -14.18673,9.86348 -3.54878,3.27466 -6.86306,6.6187 -10.31151,10.13014 -2.34269,2.0634 -4.85194,3.91836 -7.51427,5.56917 -1.89574,1.20533 -2.60795,1.75587 -4.61678,2.67167 -3.17758,1.44859 -6.61802,2.32018 -10.05675,2.85099 -5.68703,0.46267 -11.40254,0.15903 -17.06562,-0.50695 -5.17591,-0.85082 -10.256522,-2.25301 -15.147384,-4.15427 0.40346,0.3063 1.680836,1.10767 1.21078,0.91881 -0.64304,-0.25839 -1.18865,-0.71811 -1.743556,-1.13327 -2.213476,-1.65588 -3.931032,-3.88125 -5.221382,-6.304 -0.33896,-0.71427 -0.72704,-1.40731 -1.01647,-2.14303 -1.46505,-3.724 -1.51646,-7.65876 -1.26246,-11.59619 0.32356,-5.52978 1.01393,-11.05174 2.96623,-16.27601 2.899476,-7.55901 6.488438,-14.82677 10.966226,-21.58783 4.692176,-7.19081 9.774426,-14.14485 15.647106,-20.428214 4.93839,-4.9373 10.02818,-9.78426 16.02745,-13.43432 3.15755,-1.77996 6.38099,-3.64489 10.10222,-3.84317 1.57999,-0.0842 3.1781,0.24555 4.72478,0.48524 0.78933,0.20569 1.58953,0.37441 2.36833,0.61701 0.73957,0.23035 1.4139,0.81155 2.17868,0.82734 0.13405,0.0971 0.26416,0.19852 0.3855,0.31006 1.09939,1.01057 1.34037,1.52993 2.16473,2.76159 0.67479,1.48847 1.06234,2.13283 1.40405,3.76256 0.69749,3.32692 0.32441,6.75846 -0.75345,9.95443 -0.34922,0.69916 -0.6608,1.41871 -1.04799,2.09755 -2.0437,3.583284 -5.00291,6.517634 -8.12147,9.166884 -1.67016,1.29571 -2.12015,1.75435 -3.94085,2.75694 -1.90922,1.05129 -4.01305,1.72507 -5.89524,2.83393 l 2.18281,1.37253 c 1.81735,-1.18176 5.04193,-1.02664 6.91999,-2.08928 1.77684,-1.00537 2.33599,-1.5577 3.95738,-2.84479 3.13735,-2.69015 6.13251,-5.64968 8.19795,-9.268684 0.39423,-0.69077 0.71285,-1.42214 1.06919,-2.1332 1.27054,-3.92536 1.67842,-8.20753 0.30954,-12.17342 -0.2164,-0.62696 -0.52007,-1.2203 -0.78032,-1.83038 -2.74972,-4.98103 -8.35848,-7.14019 -13.62914,-8.43979 -1.32829,-0.18785 -2.80361,-0.46007 -4.18837,-0.44907 z m 183.22861,23.45025 v 5.1e-4 c 0.0766,-0.003 0.17715,0.0139 0.28422,0.0377 1.08734,2.267464 0.54404,4.082484 -0.37001,6.560324 -0.77737,1.64391 -0.96063,2.164 -2.01124,3.76308 -2.57818,3.92407 -5.98038,7.21452 -9.38548,10.40815 -3.07238,2.80389 -6.22951,5.5103 -9.46299,8.12198 0.88479,-1.97928 1.78268,-3.9524 2.69751,-5.91798 2.60693,-5.45542 5.27238,-11.74039 9.03149,-16.53181 1.59403,-2.03179 2.07013,-2.30675 3.93258,-3.93981 1.3558,-0.949744 2.12364,-1.641764 3.68143,-2.181784 0.51477,-0.17846 1.05816,-0.29644 1.60249,-0.32039 z m -45.05772,1.931144 c 0.0766,-0.003 0.17715,0.0144 0.28422,0.0382 1.08734,2.26747 0.54405,4.08249 -0.37,6.56033 -0.77737,1.64391 -0.96064,2.164 -2.01125,3.76308 -2.57818,3.92407 -5.98038,7.21452 -9.38547,10.40815 -3.07239,2.80389 -6.22951,5.5103 -9.46299,8.12198 0.88479,-1.97927 1.78268,-3.9524 2.69751,-5.91798 2.60693,-5.45542 5.27237,-11.74039 9.03149,-16.53181 1.59403,-2.03179 2.07013,-2.30675 3.93258,-3.93981 1.35579,-0.94974 2.12364,-1.64176 3.68142,-2.18178 0.51477,-0.17846 1.05816,-0.29645 1.60249,-0.3204 z m 113.82303,28.128 c -0.17664,-0.10451 0.10193,0.0503 0.39015,0.23203 -0.17039,-0.10081 -0.19268,-0.11517 -0.39015,-0.23203 z m -0.0661,0.81391 c 0.10956,0.002 0.22018,0.007 0.33176,0.015 0.3244,0.0704 0.64488,0.16713 0.94827,0.2651 0.0701,0.19643 0.0908,0.40793 0.14986,0.70229 -0.018,1.8943 -0.57737,3.52916 -1.96577,4.87877 -0.074,0.0685 -1.56604,1.45533 -1.62884,1.5043 -1.6372,1.27606 -3.53212,2.21215 -5.26842,3.33571 -2.82483,1.5903 -5.25073,3.17442 -7.59747,4.84467 0.48279,-0.95903 0.9875,-1.90661 1.53273,-2.83239 1.2362,-2.09897 2.28093,-3.45302 3.76773,-5.36918 0.5708,-0.73568 1.16236,-1.45485 1.74356,-2.18229 2.15808,-2.28741 4.59029,-5.22177 7.98659,-5.16196 z m -52.07227,0.47335 c -0.17666,-0.10452 0.1024,0.0508 0.39067,0.23255 -0.17059,-0.10093 -0.19293,-0.11553 -0.39067,-0.23255 z m -0.0656,0.81391 c 0.10956,0.002 0.22017,0.007 0.33176,0.015 0.32436,0.0704 0.64491,0.16715 0.94826,0.2651 0.0702,0.19643 0.0908,0.40793 0.14987,0.70229 -0.018,1.8943 -0.57738,3.52968 -1.96578,4.87928 -0.074,0.0685 -1.56604,1.45482 -1.62884,1.50379 -1.6372,1.27606 -3.53211,2.21215 -5.26841,3.33571 -2.28462,1.28618 -4.61414,2.48769 -6.97063,3.63699 0.2923,-0.54668 0.59105,-1.09012 0.90588,-1.62471 1.2362,-2.09897 2.28093,-3.45302 3.76773,-5.36918 0.5708,-0.73568 1.16237,-1.45485 1.74357,-2.18229 2.15808,-2.28741 4.59029,-5.22177 7.98659,-5.16196 z M 188.02356,143.311 c 0.69371,0.008 1.39702,0.0681 2.13993,0.18138 -0.90646,-0.0471 -2.30243,-0.14353 -2.75694,-0.17467 0.20542,-0.006 0.41097,-0.009 0.61701,-0.007 z m -0.28112,2.13113 c 0.82619,-0.0143 1.65084,0.0737 2.47634,0.11059 0.25286,-0.0514 2.2159,0.31168 3.62355,0.2651 -0.0407,0.0977 -0.0813,0.1947 -0.12144,0.29766 -0.74576,2.40111 -0.50956,3.99576 0.48369,6.24974 0.942,1.75834 2.38129,3.16118 3.95842,4.35013 1.54798,1.04142 1.40796,0.9462 3.48402,2.04121 1.0359,0.62635 1.95994,1.17586 3.02824,1.61541 -0.2264,1.18013 -0.50117,2.34698 -0.76894,3.48713 -0.25903,0.68987 -0.46877,1.40091 -0.77722,2.07015 -1.72223,3.73679 -4.7341,6.78743 -7.65896,9.58598 -3.82802,3.23903 -7.9051,6.62746 -12.88707,7.82691 -2.82593,0.20455 -5.6451,-0.26614 -8.34006,-1.12706 -0.58203,-0.21791 -1.46442,-1.20767 -1.74615,-0.65371 -0.0174,0.0342 -0.0246,0.0676 -0.0227,0.10026 -0.0303,-0.024 -0.0605,-0.051 -0.091,-0.0724 -1.55501,-1.08741 -2.78449,-2.47353 -3.96875,-3.9424 -0.28252,-0.46724 -0.62298,-0.90373 -0.8475,-1.40146 -1.26723,-2.80893 -0.11963,-6.18082 0.13333,-9.06611 1.12335,-5.53096 2.84563,-10.87009 6.2637,-15.45539 0.99806,-1.39845 1.98433,-2.73204 3.07991,-3.90777 3.42675,-1.35669 6.9725,-2.3094 10.69857,-2.37402 z m 11.62772,0.2651 c 0.37151,-0.006 0.80839,0.0754 1.3286,0.23461 1.4925,1.26345 2.69701,2.85497 3.51916,4.62659 0.20918,0.63482 0.47838,1.25321 0.62736,1.9048 0.47622,2.08262 0.40159,4.21894 0.0951,6.33294 -0.75467,-0.0823 -1.50466,-0.22763 -2.24431,-0.44545 -0.26218,-0.0938 -0.52923,-0.1746 -0.78651,-0.28112 -0.0629,-0.026 -0.1554,-0.071 -0.25477,-0.1204 -0.18724,-0.10395 -0.38474,-0.21149 -0.59479,-0.32556 -0.23605,-0.16528 -0.46872,-0.3345 -0.68678,-0.52245 -1.01179,-0.87217 -1.87494,-2.00902 -2.59778,-3.11506 -1.02555,-2.17704 -1.35034,-3.59567 -0.62528,-5.97069 0.59989,-1.57292 1.1514,-2.30008 2.22002,-2.31821 z m 42.36485,17.91157 c 0.0159,0.11226 0.0222,0.2343 0.0165,0.3669 -0.007,0.15521 -0.0862,0.18443 -0.20515,0.14108 0.0629,-0.16934 0.12563,-0.33868 0.18861,-0.50798 z m -68.8392,18.42368 c 0.59035,0.28242 1.5482,0.47392 1.14256,0.57413 -0.42568,0.10514 -0.78795,-0.2305 -1.14256,-0.57413 z" />
      </g>
    </g>
  </g>
</svg>
