<?xml version="1.0" encoding="UTF-8" standalone="no"?>
<!-- Created with Inkscape (http://www.inkscape.org/) -->

<svg
   width="82.502373mm"
   height="20.251207mm"
   viewBox="0 0 82.502373 20.251207"
   version="1.1"
   id="svg23074"
   xmlns="http://www.w3.org/2000/svg"
   xmlns:svg="http://www.w3.org/2000/svg">
  <defs
     id="defs23071" />
  <g
     id="layer1"
     transform="translate(-59.966568,-122.12066)">
    <rect
       x="59.966568"
       y="122.12066"
       class="st1"
       width="82.502373"
       height="20.251209"
       id="rect22227"
       style="fill:#f1f2f2;fill-opacity:0;stroke-width:0.264583" />
    <g
       id="Phone_00000035522767322225182030000006198434986978221492_"
       transform="matrix(0.26458333,0,0,0.26458333,-466.99612,-409.07271)">
      <path
         class="st14"
         d="m 2025.59,2047.28 -0.27,-0.27 c -1.27,-1.27 0.09,-3.9 4.08,-7.89 3.86,-3.86 6.43,-5.16 7.7,-3.89 l 0.27,0.27 c 2.05,-0.72 3.7,-1.71 4.95,-2.97 0.74,-0.74 1.41,-1.57 2,-2.49 -1.73,-1.23 -3.52,-2.08 -5.39,-2.55 -2.22,1 -4.37,2.24 -6.47,3.73 -2.09,1.49 -4.12,3.22 -6.09,5.19 -1.9,1.9 -3.59,3.89 -5.06,5.96 -1.47,2.07 -2.71,4.23 -3.74,6.47 0.54,1.96 1.39,3.76 2.54,5.39 1.04,-0.47 1.94,-1.09 2.71,-1.86 1.31,-1.28 2.23,-2.98 2.77,-5.09 z m 1.22,1.23 -0.48,-0.48 c -0.54,1.93 -1.48,3.57 -2.8,4.89 -0.71,0.71 -1.63,1.35 -2.79,1.94 l 0.55,0.55 c 0.88,0.88 1.64,1.3 2.29,1.28 0.65,-0.03 1.45,-0.51 2.4,-1.46 1.32,-1.32 2.04,-2.51 2.17,-3.57 0.15,-1.07 -0.3,-2.12 -1.34,-3.15 z m 11.22,-12.35 0.58,0.58 c 0.95,0.95 1.96,1.33 3.04,1.16 1.08,-0.17 2.26,-0.9 3.55,-2.19 0.92,-0.92 1.4,-1.7 1.45,-2.33 0.04,-0.64 -0.33,-1.35 -1.13,-2.15 l -0.62,-0.62 c -0.48,0.91 -1.13,1.77 -1.94,2.58 -1.41,1.41 -3.05,2.4 -4.93,2.97 z"
         id="path22233"
         style="clip-rule:evenodd;fill:#ed1c24;fill-rule:evenodd" />
    </g>
    <g
       id="g22256"
       transform="matrix(0.26458333,0,0,0.26458333,-466.99612,-409.07271)">
      <path
         d="m 2071.15,2043.84 c 0,8.24 -3.5,13.48 -9.38,13.48 -5.91,0 -9.41,-5.24 -9.41,-13.48 0,-8.21 3.5,-13.45 9.41,-13.45 5.88,0 9.38,5.24 9.38,13.45 z m -13.48,0 c 0,5.34 1.24,8.88 4.1,8.88 2.83,0 4.07,-3.54 4.07,-8.88 0,-5.31 -1.24,-8.85 -4.07,-8.85 -2.86,0 -4.1,3.54 -4.1,8.85 z"
         id="path22236" />
      <path
         d="m 2089.55,2049.08 h 2.94 v 3.96 h -2.94 v 3.82 h -5.2 v -3.82 h -11.61 v -0.14 l 16.67,-22.4 h 0.14 z m -9.45,0.1 h 4.64 v -6.3 z"
         id="path22238" />
      <path
         d="m 2111.1,2049.08 h 2.94 v 3.96 h -2.94 v 3.82 h -5.2 v -3.82 h -11.61 v -0.14 l 16.67,-22.4 h 0.14 z m -9.45,0.1 h 4.64 v -6.3 z"
         id="path22240" />
      <path
         d="m 2141.74,2049.08 h 2.94 v 3.96 h -2.94 v 3.82 h -5.2 v -3.82 h -11.61 v -0.14 l 16.67,-22.4 h 0.14 z m -9.45,0.1 h 4.64 v -6.3 z"
         id="path22242" />
      <path
         d="m 2164.03,2038.28 c 0,2.62 -1.27,4.28 -3.01,5.27 2.12,0.99 3.54,2.9 3.54,5.66 0,4.74 -3.36,8.1 -8.63,8.1 -4.67,0 -7.61,-2.44 -8.71,-7.29 l 4.71,-1.13 c 0.53,2.41 1.7,3.75 3.96,3.75 2.05,0 3.43,-1.38 3.43,-3.54 0,-2.05 -1.49,-3.5 -3.61,-3.5 h -2.72 v -4.14 h 2.76 c 1.66,-0.04 3.08,-1.17 3.08,-3.19 0,-1.98 -1.34,-3.22 -3.15,-3.22 -1.73,0 -2.94,1.1 -3.43,3.18 l -4.53,-1.91 c 1.13,-3.64 3.89,-5.95 8,-5.95 5.02,0.02 8.31,3.42 8.31,7.91 z"
         id="path22244" />
      <path
         d="m 2186.08,2043.84 c 0,8.24 -3.5,13.48 -9.38,13.48 -5.91,0 -9.41,-5.24 -9.41,-13.48 0,-8.21 3.5,-13.45 9.41,-13.45 5.88,0 9.38,5.24 9.38,13.45 z m -13.48,0 c 0,5.34 1.24,8.88 4.1,8.88 2.83,0 4.07,-3.54 4.07,-8.88 0,-5.31 -1.24,-8.85 -4.07,-8.85 -2.86,0 -4.1,3.54 -4.1,8.85 z"
         id="path22246" />
      <path
         d="m 2208.86,2056.86 h -5.2 v -17.76 l -3.82,2.02 -2.12,-4.78 11,-5.95 h 0.14 z"
         id="path22248" />
      <path
         d="m 2229.46,2035.52 h -9.34 v 5.34 c 0.57,-0.25 1.27,-0.46 2.26,-0.46 4.81,0 8.63,2.72 8.63,8.56 0,4.85 -3.33,8.35 -8.71,8.35 -4.35,0 -7.4,-1.91 -8.7,-5.84 l 4.42,-2.12 c 0.46,2.19 1.88,3.29 3.93,3.29 2.19,0 3.79,-1.59 3.79,-3.93 0,-2.34 -1.56,-3.89 -3.82,-3.89 -1.66,0 -2.8,0.67 -3.5,1.31 l -3.54,-1.59 v -13.69 h 14.58 z"
         id="path22250" />
      <path
         d="m 2253.48,2056.86 h -5.2 v -17.76 l -3.82,2.02 -2.12,-4.78 11,-5.95 h 0.14 z"
         id="path22252" />
      <path
         d="m 2274.07,2035.52 h -9.34 v 5.34 c 0.57,-0.25 1.27,-0.46 2.26,-0.46 4.81,0 8.63,2.72 8.63,8.56 0,4.85 -3.33,8.35 -8.71,8.35 -4.35,0 -7.4,-1.91 -8.7,-5.84 l 4.42,-2.12 c 0.46,2.19 1.88,3.29 3.93,3.29 2.19,0 3.79,-1.59 3.79,-3.93 0,-2.34 -1.56,-3.89 -3.82,-3.89 -1.66,0 -2.8,0.67 -3.5,1.31 l -3.54,-1.59 v -13.69 h 14.58 z"
         id="path22254" />
    </g>
  </g>
</svg>
