<?xml version="1.0" encoding="UTF-8" standalone="no"?>
<!-- Created with Inkscape (http://www.inkscape.org/) -->

<svg
   width="403.01477mm"
   height="40.000008mm"
   viewBox="0 0 403.01477 40.000008"
   version="1.1"
   id="svg44287"
   xmlns="http://www.w3.org/2000/svg"
   xmlns:svg="http://www.w3.org/2000/svg">
  <defs
     id="defs44284" />
  <g
     id="layer1"
     transform="translate(86.626757,-81.576627)">
    <g
       id="g20160"
       clip-path="url(#SVGID_00000176722949746168891040000003073888695169035708_)"
       transform="matrix(1.2828736,0,0,1.2828736,-3942.0083,-604.11931)">
			<path
   class="st0"
   d="m 3005.27,541.74 h 3.52 l 1.59,11.72 1.9,-11.72 h 3.12 l 1.78,11.78 1.68,-11.78 h 3.37 l -2.84,18.02 h -3.58 l -2,-11.38 -2.09,11.38 h -3.68 z"
   id="path20112"
   style="fill:#ffffff" />

			<path
   class="st0"
   d="m 3023.76,541.74 h 3.52 l 1.59,11.72 1.9,-11.72 h 3.12 l 1.78,11.78 1.68,-11.78 h 3.37 l -2.84,18.02 h -3.58 l -2,-11.38 -2.09,11.38 h -3.68 z"
   id="path20114"
   style="fill:#ffffff" />

			<path
   class="st0"
   d="m 3042.25,541.74 h 3.52 l 1.59,11.72 1.9,-11.72 h 3.12 l 1.78,11.78 1.68,-11.78 h 3.37 l -2.84,18.02 h -3.58 l -2,-11.38 -2.09,11.38 h -3.68 z"
   id="path20116"
   style="fill:#ffffff" />

			<path
   class="st0"
   d="m 3061.46,555.49 h 4.12 v 4.27 h -4.12 z"
   id="path20118"
   style="fill:#ffffff" />

			<path
   class="st0"
   d="m 3067.44,555.27 3.15,-1.22 c 0.47,1.96 1.31,3.02 2.62,3.02 0.97,0 1.5,-0.53 1.5,-1.4 0,-1 -0.53,-1.65 -2,-2.87 l -2.15,-1.87 c -1.62,-1.34 -2.68,-2.59 -2.68,-4.77 0,-2.9 2.21,-4.71 5.11,-4.71 2.93,0 4.68,1.9 5.21,4.68 l -2.77,1.18 c -0.31,-1.5 -1.03,-2.84 -2.31,-2.84 -0.9,0 -1.43,0.62 -1.43,1.43 0,0.69 0.62,1.43 1.75,2.37 l 2.18,2 c 1.43,1.25 2.93,2.68 2.93,4.99 0,3.15 -2.34,4.77 -5.27,4.77 -3.06,0.01 -5.03,-1.64 -5.84,-4.76 z"
   id="path20120"
   style="fill:#ffffff" />

			<path
   class="st0"
   d="m 3079.98,541.74 h 3.52 l 1.59,11.72 1.9,-11.72 h 3.12 l 1.78,11.78 1.68,-11.78 h 3.37 l -2.84,18.02 h -3.58 l -2,-11.38 -2.09,11.38 h -3.68 z"
   id="path20122"
   style="fill:#ffffff" />

			<path
   class="st0"
   d="m 3099.46,535.35 h 4.24 v 3.52 h -4.24 z m 0,6.39 h 4.24 v 18.02 h -4.24 z"
   id="path20124"
   style="fill:#ffffff" />

			<path
   class="st0"
   d="m 3106.13,555.27 3.15,-1.22 c 0.47,1.96 1.31,3.02 2.62,3.02 0.97,0 1.5,-0.53 1.5,-1.4 0,-1 -0.53,-1.65 -2,-2.87 l -2.15,-1.87 c -1.62,-1.34 -2.68,-2.59 -2.68,-4.77 0,-2.9 2.21,-4.71 5.11,-4.71 2.93,0 4.68,1.9 5.21,4.68 l -2.77,1.18 c -0.31,-1.5 -1.03,-2.84 -2.31,-2.84 -0.9,0 -1.43,0.62 -1.43,1.43 0,0.69 0.62,1.43 1.75,2.37 l 2.18,2 c 1.43,1.25 2.93,2.68 2.93,4.99 0,3.15 -2.34,4.77 -5.27,4.77 -3.06,0.01 -5.03,-1.64 -5.84,-4.76 z"
   id="path20126"
   style="fill:#ffffff" />

			<path
   class="st0"
   d="m 3118.61,555.27 3.15,-1.22 c 0.47,1.96 1.31,3.02 2.62,3.02 0.97,0 1.5,-0.53 1.5,-1.4 0,-1 -0.53,-1.65 -2,-2.87 l -2.15,-1.87 c -1.62,-1.34 -2.68,-2.59 -2.68,-4.77 0,-2.9 2.21,-4.71 5.11,-4.71 2.93,0 4.68,1.9 5.21,4.68 l -2.77,1.18 c -0.31,-1.5 -1.03,-2.84 -2.31,-2.84 -0.9,0 -1.43,0.62 -1.43,1.43 0,0.69 0.62,1.43 1.75,2.37 l 2.18,2 c 1.43,1.25 2.93,2.68 2.93,4.99 0,3.15 -2.34,4.77 -5.27,4.77 -3.07,0.01 -5.03,-1.64 -5.84,-4.76 z"
   id="path20128"
   style="fill:#ffffff" />

			<path
   class="st0"
   d="m 3132.89,544.7 h -1.93 v -2.96 h 1.93 v -1.15 c 0,-3.24 0.53,-5.33 4.43,-5.33 0.81,0 1.46,0.06 2.31,0.19 v 3.12 c -0.34,-0.06 -0.78,-0.16 -1.15,-0.16 -1.03,0 -1.37,0.69 -1.37,1.87 v 1.46 h 2.53 v 2.96 h -2.53 v 15.06 h -4.21 V 544.7 Z"
   id="path20130"
   style="fill:#ffffff" />

			<path
   class="st0"
   d="m 3141.18,553.77 v -6.05 c 0,-3.99 1.84,-6.27 5.77,-6.27 3.93,0 5.8,2.28 5.8,6.27 v 6.05 c 0,3.99 -1.87,6.27 -5.8,6.27 -3.93,0 -5.77,-2.28 -5.77,-6.27 z m 7.39,0.32 v -6.64 c 0,-1.68 -0.16,-3.05 -1.59,-3.05 -1.46,0 -1.62,1.37 -1.62,3.05 v 6.64 c 0,1.65 0.16,3.02 1.62,3.02 1.43,0 1.59,-1.34 1.59,-3.02 z"
   id="path20132"
   style="fill:#ffffff" />

			<path
   class="st0"
   d="m 3155.36,553.77 v -6.05 c 0,-3.99 1.84,-6.27 5.77,-6.27 3.93,0 5.8,2.28 5.8,6.27 v 6.05 c 0,3.99 -1.87,6.27 -5.8,6.27 -3.93,0 -5.77,-2.28 -5.77,-6.27 z m 7.39,0.32 v -6.64 c 0,-1.68 -0.16,-3.05 -1.59,-3.05 -1.47,0 -1.62,1.37 -1.62,3.05 v 6.64 c 0,1.65 0.16,3.02 1.62,3.02 1.44,0 1.59,-1.34 1.59,-3.02 z"
   id="path20134"
   style="fill:#ffffff" />

			<path
   class="st0"
   d="m 3169.58,553.62 v -5.52 c 0,-3.71 1.06,-6.64 4.3,-6.64 1.25,0 2.37,0.59 3.24,1.43 v -8.39 h 4.27 v 25.25 h -4.27 v -1.28 c -0.94,0.97 -2.03,1.56 -3.21,1.56 -2.86,0.01 -4.33,-1.92 -4.33,-6.41 z m 7.55,2.9 v -11.57 c -0.47,-0.34 -1.06,-0.59 -1.68,-0.59 -1.25,0 -1.62,1.28 -1.62,2.84 v 6.73 c 0,1.81 0.28,3.18 1.62,3.18 0.49,0 1.08,-0.19 1.68,-0.59 z"
   id="path20136"
   style="fill:#ffffff" />

			<path
   class="st0"
   d="m 3184.8,548.1 h 7.51 v 2.9 h -7.51 z"
   id="path20138"
   style="fill:#ffffff" />

			<path
   class="st0"
   d="m 3195.37,553.43 v -5.36 c 0,-4.33 1.81,-6.61 5.8,-6.61 4.24,0 5.58,2.49 5.58,6.89 v 2.59 h -7.17 v 3.55 c 0,1.78 0.53,2.49 1.62,2.49 1.09,0 1.53,-0.78 1.53,-2.34 v -1.53 h 3.99 v 1.25 c 0,3.65 -1.84,5.67 -5.55,5.67 -4.06,0.01 -5.8,-2.33 -5.8,-6.6 z m 7.35,-4.58 v -1.71 c 0,-1.81 -0.37,-2.62 -1.56,-2.62 -1.19,0 -1.59,0.72 -1.59,3.09 v 1.25 h 3.15 z"
   id="path20140"
   style="fill:#ffffff" />

			<path
   class="st0"
   d="m 3212.08,550.07 -3.77,-8.32 h 4.15 l 2.31,4.99 2,-4.99 h 3.62 l -3.84,8.92 4.12,9.1 h -4.18 l -2.52,-5.52 -2.12,5.52 h -3.68 z"
   id="path20142"
   style="fill:#ffffff" />

			<path
   class="st0"
   d="m 3222.46,541.74 h 4.24 v 1.37 c 1.03,-1 2.31,-1.65 3.68,-1.65 3.24,0 3.99,3.46 3.99,6.02 v 6.11 c 0,3.58 -1.15,6.45 -4.21,6.45 -1.28,0 -2.46,-0.69 -3.46,-1.62 v 7.26 h -4.24 z m 7.67,12 v -6.48 c 0,-1.62 -0.28,-2.96 -1.59,-2.96 -0.69,0 -1.34,0.34 -1.84,0.78 v 11.38 c 0.53,0.37 1.15,0.62 1.87,0.62 1.31,0 1.56,-1.5 1.56,-3.34 z"
   id="path20144"
   style="fill:#ffffff" />

			<path
   class="st0"
   d="m 3237.4,541.74 h 4.24 v 2.77 c 1.22,-2.12 2.4,-2.99 3.93,-2.99 0.22,0 0.41,0 0.66,0.06 v 4.4 c -0.5,-0.19 -1.09,-0.37 -1.75,-0.37 -1.12,0 -2.03,0.53 -2.84,1.75 v 12.41 h -4.24 z"
   id="path20146"
   style="fill:#ffffff" />

			<path
   class="st0"
   d="m 3247.96,553.43 v -5.36 c 0,-4.33 1.81,-6.61 5.8,-6.61 4.24,0 5.58,2.49 5.58,6.89 v 2.59 h -7.17 v 3.55 c 0,1.78 0.53,2.49 1.62,2.49 1.09,0 1.53,-0.78 1.53,-2.34 v -1.53 h 3.99 v 1.25 c 0,3.65 -1.84,5.67 -5.55,5.67 -4.05,0.01 -5.8,-2.33 -5.8,-6.6 z m 7.36,-4.58 v -1.71 c 0,-1.81 -0.37,-2.62 -1.56,-2.62 -1.19,0 -1.59,0.72 -1.59,3.09 v 1.25 h 3.15 z"
   id="path20148"
   style="fill:#ffffff" />

			<path
   class="st0"
   d="m 3261.28,555.27 3.15,-1.22 c 0.47,1.96 1.31,3.02 2.62,3.02 0.97,0 1.5,-0.53 1.5,-1.4 0,-1 -0.53,-1.65 -2,-2.87 l -2.15,-1.87 c -1.62,-1.34 -2.68,-2.59 -2.68,-4.77 0,-2.9 2.21,-4.71 5.11,-4.71 2.93,0 4.68,1.9 5.21,4.68 l -2.77,1.18 c -0.31,-1.5 -1.03,-2.84 -2.31,-2.84 -0.9,0 -1.43,0.62 -1.43,1.43 0,0.69 0.62,1.43 1.75,2.37 l 2.18,2 c 1.43,1.25 2.93,2.68 2.93,4.99 0,3.15 -2.34,4.77 -5.27,4.77 -3.07,0.01 -5.03,-1.64 -5.84,-4.76 z"
   id="path20150"
   style="fill:#ffffff" />

			<path
   class="st0"
   d="m 3273.75,555.27 3.15,-1.22 c 0.47,1.96 1.31,3.02 2.62,3.02 0.97,0 1.5,-0.53 1.5,-1.4 0,-1 -0.53,-1.65 -2,-2.87 l -2.15,-1.87 c -1.62,-1.34 -2.68,-2.59 -2.68,-4.77 0,-2.9 2.21,-4.71 5.11,-4.71 2.93,0 4.68,1.9 5.21,4.68 l -2.77,1.18 c -0.31,-1.5 -1.03,-2.84 -2.31,-2.84 -0.9,0 -1.43,0.62 -1.43,1.43 0,0.69 0.62,1.43 1.75,2.37 l 2.18,2 c 1.43,1.25 2.93,2.68 2.93,4.99 0,3.15 -2.34,4.77 -5.27,4.77 -3.07,0.01 -5.03,-1.64 -5.84,-4.76 z"
   id="path20152"
   style="fill:#ffffff" />

			<path
   class="st0"
   d="m 3287,555.49 h 4.12 v 4.27 H 3287 Z"
   id="path20154"
   style="fill:#ffffff" />

			<path
   class="st0"
   d="m 3293.58,553.46 v -5.42 c 0,-4.15 1.62,-6.58 5.77,-6.58 3.87,0 5.52,1.87 5.52,5.55 v 1.5 h -3.99 v -1.59 c 0,-1.87 -0.41,-2.46 -1.5,-2.46 -1.22,0 -1.56,0.75 -1.56,3.05 v 6.61 c 0,2.31 0.47,2.93 1.56,2.93 1.22,0 1.5,-0.84 1.5,-2.43 v -1.93 h 3.99 v 1.71 c 0,3.65 -1.68,5.64 -5.52,5.64 -4.18,0 -5.77,-2.52 -5.77,-6.58 z"
   id="path20156"
   style="fill:#ffffff" />

			<path
   class="st0"
   d="m 3307.73,534.51 h 4.24 v 8.98 c 1.28,-1.28 2.74,-2.03 4.46,-2.03 2.15,0 2.99,1.87 2.99,3.96 v 14.34 h -4.21 v -13.5 c 0,-1.09 -0.25,-1.68 -1.22,-1.68 -0.62,0 -1.34,0.37 -2.03,0.9 v 14.28 h -4.24 v -25.25 z"
   id="path20158"
   style="fill:#ffffff" />

		</g>
  </g>
</svg>
