<?xml version="1.0" encoding="utf-8"?>
<!-- Generator: Adobe Illustrator 27.2.0, SVG Export Plug-In . SVG Version: 6.00 Build 0)  -->
<svg version="1.1" id="Ebene_1" xmlns="http://www.w3.org/2000/svg" xmlns:xlink="http://www.w3.org/1999/xlink" x="0px" y="0px"
	 viewBox="0 0 1265 1153" style="enable-background:new 0 0 1265 1153;" xml:space="preserve">
<style type="text/css">
	.st0{fill:#2AB6F7;}
	.st1{fill:#91C74B;}
	.st2{fill:#B9E3E0;}
	.st3{fill:#689C3F;}
</style>
<g>
	<path class="st0" d="M1233,448.4c-17.2-12.8-34.8-24.9-52-37.7c-60.2-45.2-120.5-90.3-181-135c-20.5-15.2-40.4-31.1-61.1-46.1
		c-6-4.4-15.1-9.3-21.5-15.2c1.7,1.2,3.5,2.1,5.6,2.9l-11-10c0.1,0.4,0.3,0.7,0.5,1.1c-0.2-0.4-0.5-0.7-0.6-1.1
		c-0.3-0.6-0.6-1.3-0.8-2h0l-1-32v28.2c-1.4-7.7,0.2-17,0-24.2c-0.5-22.3,0-44.6,0-67c-20.9-8-45.6-4-68-4v35l-2.3,11.4l-12.7-7.7
		l-38-27.7l-90-67.7l1,0.7c-3.3-5.6-10.5-9.1-15.6-13c-12.4-9.5-25.1-18.7-37.6-28c-5-3.8-12.1-11.6-18.8-8.4
		c-18.1,8.5-35.1,25.8-51.2,37.8c-36.4,27.2-72.8,54.5-109,82C365.6,198,262,274.2,159,350.7c-35.4,26.3-69.9,56.6-107.3,79.9
		c-13.4,8.3-26.4,18.3-38.5,28.4c-4.8,4-11,7.2-13.2,13.2c14.1,2.9,28.6,2,43,2c5.8,0,13.4,1.5,19,0.1c11.3-3,23.8-14.3,33.7-20.6
		c22.4-14.1,45.3-27.5,67.5-42C257,350,352,289.4,447.5,230.2c31.2-19.3,61.3-40.4,92.6-59.6c11.1-6.8,32.4-15.5,40.2-26.4
		c9.6-6,19.1-12,28.7-17.8c7.3-4.5,15.9-13.3,25-13.6c7.5-0.2,14.4,5.9,20,10.1c8.5,6.4,18,11.9,27,17.5c32,19.9,63.2,41.1,95,61.4
		v1.3h2l-0.1-0.1c0.1,0.1,0.2,0.1,0.3,0.2l-0.1,0v1l2.7,0.7c7.7,4.9,15.5,9.8,23.3,14.6c1.1,0.7,2.2,1.4,3.3,2.1l-1.3-0.3v1l4,1v0
		c7.4,4.6,14.7,9.3,22,14v2h2l-2-2c1.2,0.8,2.4,1.6,3.7,2.4l-1.7-0.4v1l4,1v-0.1c0.1,0.1,0.2,0.1,0.3,0.2l-0.3-0.1l3,2v-0.1
		c7.3,4.8,14.6,9.6,22,14.4l-1-0.2v1l3.5,0.9c9.8,6.3,19.6,12.6,29.5,18.6c9.8,5.9,21.4,18,32.3,21c6.6,1.8,20.8-5.9,27.8-7.2
		c19-3.3,40-1.8,56.2,9.9c10.7,7.6,20.5,20.4,21.6,33.9c0.6,6.6-3.4,23.4,0.7,28.2c7.5,9,22.7,14.9,32.4,21.4
		c27.9,18.6,56.9,35.4,85,53.7l34,22c5.3,3.4,10.7,8.6,17,10.1c18.2,4.4,40.2-1,59,0.5C1253.7,462.3,1242.2,455.3,1233,448.4z
		 M470.5,120c-31.1,23.4-62.4,46.6-93.6,69.8C408,166.4,439.3,143.2,470.5,120z M220.9,306.2c-3,2.4-6.1,4.8-9.1,7.2
		c-4.7,3.8-11.1,7.6-17.2,11.7C203.1,318.5,212.2,312.3,220.9,306.2z M183.6,340.9c0.4-0.4,0.3-1-0.6-1.7l2,1L183.6,340.9z
		 M199,337.2l-1-2l2,2H199z M231,333.2c0-1.4,0.7-2.3,1.8-2.7C231.9,331,231.2,332,231,333.2z M433.2,236.3
		c32.1-20.9,64.3-41.7,97-61.6L504,191.4L433.2,236.3z M599.9,23.2c-12.4,9-24.8,18-37,27.2c17.1-13.6,34.5-27.6,52.6-39.5
		C610.1,15.1,605,19.5,599.9,23.2z"/>
	<g>
		<path class="st1" d="M831,351.7l-2-1l-1,5h-1l-1-25h-1c0,18.5,0.9,35.7,8,53h2l1-3h2l4,7l5-1l4-5l13-1v-5c-14.8-8.8-20-24.4-20-41
			h1v2h1c0.2-8.7,4.5-23.3,16-21c4.6,0.9,7.9,4.9,12,7c1.3-13.6-20.7-15.5-29-9.5C832.1,322.5,834.2,338.3,831,351.7z"/>
		<path class="st1" d="M865,318.7v1l5,2v-1L865,318.7 M983,318.7l4,4L983,318.7 M1010,318.7l1,1L1010,318.7z"/>
		<path class="st2" d="M863.1,320.8c-5.8,3.1-1.3,14.5,4.6,10.9C872.4,328.8,868.8,317.7,863.1,320.8z"/>
		<path class="st0" d="M869,321.7c1,5.7,0.6,8.5-3,13l10,1C875.4,330.3,873.2,325.4,869,321.7z"/>
		<path class="st1" d="M827.3,323.4l0.3,0.7L827.3,323.4 M870,322.7l1,1L870,322.7z"/>
		<path class="st1" d="M874,328.7l1,1L874,328.7z"/>
		<path class="st1" d="M869,330.7l1,1L869,330.7 M875,330.7l1,1L875,330.7z"/>
		<g>
			<path class="st2" d="M827,355.7h1l1-5l2,1c3.9-13.2,1.5-26.5,13-36.9c8.8-7.9,28.6-6.2,30,7.9c-3.2-2.4-6.2-5.6-10-6.8
				c-8.4-2.8-14.4,3.3-16.8,10.8c-3.5,11.3-1.6,26.5,5.5,36c3.4,4.5,9.2,9.2,15.2,7.3c11.8-3.7,13.7-22.1,11.3-32.3
				c-0.8-3.5-4.1-9.9-2.7-13.4c1-2.6,5.2-4.2,7.5-5.6c7.6-4.8,15.8-10.4,24-14c-3.6-5.2-14.1-6.2-20-7c-17.5-2.4-39.2-3.6-52.1,11.2
				C823.9,322.7,826.3,339,827,355.7z"/>
			<path class="st2" d="M927,309.7v2c11.1,4.9,27,18.1,39,18c3.6,5.9,16.5,10.6,23,13l-6-24h1c5.5,10,23.1,5.2,28-3
				c6.4,12.9,7.6,20.8,5.3,35c-0.6,4-0.4,7.6,3.7,9c0.3-12.6,2.8-23.7-1.9-36C1005.1,287.4,954.1,300.9,927,309.7 M1004,299.7l3,2
				L1004,299.7z"/>
			<path class="st1" d="M821.3,319.4l0.3,0.7L821.3,319.4 M829,318.7l1,1L829,318.7 M877,356.7v-22l-9-1v-1l-7-1v-10l-2-3
				c-8.3,2.3-12.3,13.5-8.4,21C856.2,350.2,865.2,356.5,877,356.7z"/>
			<path class="st3" d="M916.3,350.4l0.3,0.7L916.3,350.4z"/>
			<path class="st1" d="M879,352.7l1,1L879,352.7z"/>
			<path class="st3" d="M915,354.7l1,1L915,354.7z"/>
			<path class="st1" d="M821,356.7l1,1L821,356.7 M878,356.7l1,1L878,356.7z"/>
			<path class="st1" d="M877,359.7l1,1L877,359.7z"/>
			<polyline class="st1" points="875,363.7 876,364.7 875,363.7 			"/>
			<path class="st1" d="M823,367.7v2h2L823,367.7 M858,367.7l1,1L858,367.7 M871,367.7l1,1L871,367.7z"/>
			<path class="st1" d="M861.7,370.1l0.7,0.3L861.7,370.1 M868,369.7l1,1L868,369.7z"/>
			<path class="st3" d="M916.7,383.1l0.7,0.3L916.7,383.1z"/>
			<path class="st3" d="M916,400.7l1,1L916,400.7z"/>
			<path class="st1" d="M913,408.7l1,1L913,408.7z"/>
			<path class="st1" d="M912,414.7l1,1L912,414.7z"/>
			<path class="st1" d="M909,422.7v14h1L909,422.7z"/>
			<path class="st1" d="M911,423.7l1,1L911,423.7z"/>
			<path class="st2" d="M985,434.7l-1,2h2L985,434.7 M999,434.7v2l2-2H999z"/>
			<path class="st2" d="M981,438.7l-1,2h2L981,438.7 M992,438.7v2l2-2H992 M1147,438.7l3,2v-1L1147,438.7z"/>
			<polyline class="st2" points="845,438.7 846,439.7 845,438.7 			"/>
			<polyline class="st2" points="853,438.7 854,439.7 853,438.7 			"/>
			<polyline class="st2" points="979.3,441.4 979.7,442.1 979.3,441.4 			"/>
			<polyline class="st2" points="989,440.7 990,441.7 989,440.7 			"/>
			<polyline class="st2" points="1117.3,441.4 1117.7,442.1 1117.3,441.4 			"/>
			<polyline class="st2" points="851,444.7 852,445.7 851,444.7 			"/>
			<polyline class="st2" points="857,444.7 858,445.7 857,444.7 			"/>
			<polyline class="st2" points="974,446.7 977,444.7 974,446.7 			"/>
			<polyline class="st2" points="984,444.7 985,445.7 984,444.7 			"/>
			<path class="st2" d="M982,445.7l1,1L982,445.7z"/>
			<path class="st2" d="M971,448.7l-1,2h2L971,448.7"/>
			<polyline class="st2" points="977.7,449.1 978.3,449.4 977.7,449.1 			"/>
			<polyline class="st2" points="968.7,455.1 969.3,455.4 968.7,455.1 			"/>
			<g>
				<path class="st3" d="M1118.7,518.7c-0.8-5.2-3.1-10.7-4-16h0.3l-0.7-6c1.1-26.4,16.6-74.7-21.3-84.5
					c-33.1-8.6-75.8,11.8-103,29.2c-10.2,6.5-20.1,15.1-31,20.3c6.2-12.4,22.6-18.4,30-29c18-25.7,33.5-48,41-78
					c3.1-12.2-1.1-30.1-7-39c-2.8-4.3-9.2-11.4-13-14c-3-2-8.1,0.3-7-4l-13-2l1-2h-16v-1h3c-5.5-2.3-10.5,0.2-16,0.9
					c-16.5,1.9-29.5,8.2-46,5.1v0.2c-9.3-3-19.7-3.9-29-6c-8.4-1.9-17.4-1.3-26-1.2c-26.2,0.3-42.1,19.7-42,45
					c0.1,33.4,15.7,68.7,32.2,97c5.4,9.3,12.4,18.6,17.1,28.3l-0.6,0.3l-4.8-7.6l-0.4,1.3c-10.8-13.6-27.9-25.9-40.6-35.1
					c-26.2-18.9-69.4-51.1-104-35c-22,10.2-23.8,39.7-21.8,60.8c0.6,5.9,4,14.1,3.1,20l-0.3-1v2.2c-1.7,6.2-9.7,13.5-13.3,18.8
					c-6.8,9.9-11,21.1-12.4,33c-1.7,14.5,7.7,25.8,19.7,32.2v0.8l4,2l-3.3-2.5c0.1,0,0.2,0.1,0.3,0.1c8.5,4.3,17.7,6.5,27,7.5v0.8h4
					l-2.6-0.6c6.8,0.6,13.7,0.6,20.6,0.2v0.5h5l-3-0.6c1-0.1,2-0.1,3-0.2v0.8h10l-9-0.9c2-0.2,4-0.4,6-0.6v0.5h3l-1.8-0.6
					c0.6-0.1,1.2-0.1,1.8-0.2v0.8h4l-3.5-0.9c0.8-0.1,1.6-0.2,2.5-0.3c0.7-0.1,1.3-0.2,2-0.3v0.4h4l-2.5-0.6
					c3.9-0.6,7.7-1.3,11.5-2.2v0.8h4l-3.5-0.9c3-0.7,6-1.5,8.9-2.3l-0.4,0.2v1l1.5-1.5c22.6-6.6,43.5-16.8,66.5-23.5v1
					c-2.1,0.9-4.1,2-6.2,3l-7.8,2v1l2-1l-0.9,1.9c-11.6,7-22.5,15.5-33.2,23.5c-22.4,16.5-45.3,34.1-59.4,58.7
					c-11.6,20.2-17.9,45.7,3.4,62.5c8.6,6.7,19.2,10.3,30.1,11.6v0.8h4l-2.8-0.7c5.6,0.6,11.3,0.6,16.8,0.1v0.6h-14v1l21-1h-4
					l-2-0.7c2-0.2,4-0.4,6-0.8c5.6-0.9,19-7.9,23.9-6.1c3.3,1.2,5.3,6.8,7.3,9.5c3.3,4.5,7.2,8.8,11.3,12.7l-2.5-1.7v1l2.8,0.9
					c1.1,1,2.1,2,3.2,3c20,17.9,44.8,20,67.8,10.9l-5.8,3.2v1l10-5l-0.7-0.7c1.6-0.7,3.1-1.5,4.7-2.3v-0.5c3.3-2.1,5.8-4.9,6-8.5
					c11.4-2.1,14.7-26.6,16.2-36c2.5-16.4,2-32.8-0.4-49h0.2l-0.6-2.6c-1.1-7.2-2.6-14.3-4.3-21.4h0.9l-2-6l0.7,4.2
					c-0.4-1.7-0.9-3.5-1.3-5.2h0.6l-1-3v1.5c-0.5-1.8-1-3.7-1.5-5.5h0.5l-2-6l0.3,1.7c-0.9-3.2-1.9-6.5-2.9-9.7h0.6l-1.6-3.1
					c-0.3-1-0.6-1.9-0.9-2.9h0.5l-1-3v1.3c-0.7-2.1-1.3-4.2-2-6.3l-1-3v3v3l-1-4v-3h1l-1-3v-4h4l-4-1v-1h3h3v1l-3-1v1h1v1
					c2.4,0.3,4.7,1.1,7,2.2v1.8h2l-1.6-1.6c11.7,5.9,22.4,21.4,28.4,33.4l-0.8-0.8v2h1.4c0.9,1.8,1.6,3.5,2.2,5
					c18.3,45.8,12.8,98.8-13.9,140c-3.8,5.9-7.9,11.6-12.3,17H946v1.7c-2.9,3.5-5.8,6.9-8.9,10.3c-2,2.1-4.5,7-7.1,9.1l1.1-1.1l-3,2
					l-1,1v1h-1h-1l-1.5,3H923c-0.3,0.4-0.7,0.7-1,1.1v-1.1l-0.6,1.8c-33.9,38-82.3,64.8-122.4,95.4c-89.8,68.4-172,161.1-189,276.8
					h1c18.5-41.7,34.7-82.4,61.6-120c50.7-71,118.9-119.9,190.4-167.6c19.6-13.1,38.2-28,58-40.7l0,0.3h1v-4l4,1v-1l-2-1h4l3-4l-2,3
					c6.7-4.2,13-9.6,19-15.2v0.2l2-2h-0.1c3.1-3,6.2-6.1,9.1-9c0.3-0.3,0.7-0.7,1-1l0,0h2l-0.7-1.4c0.2-0.3,0.5-0.5,0.7-0.7
					l-0.1,0.1h2l-0.7-1.4c0.3-0.3,0.6-0.6,0.9-0.9l-0.2,0.3h2l-0.7-1.5c15-16.1,29.1-35.5,39.1-56.5h0.7l-0.3-0.8
					c3.6-7.5,6.6-15.3,8.9-23.2h0.4v-1.2c4-13.7,5.9-27.8,4.9-41.8c-2.4-35.6-15.8-63-33.9-93c9,8.9,22.3,17.5,37,23.5l1,0.5v-0.1
					c1.2,0.5,2.4,0.9,3.6,1.4l1.4,0.7v-0.2c0.3,0.1,0.7,0.2,1,0.4v0.8l5,1l-2.6-1c3.8,1.2,7.6,2.3,11.5,3.1l-0.9-0.1v1l9,1v-0.4
					c7.9,1.1,15.6,1.3,23,0.2v0.2l6-1h-1.7c3.9-0.8,7.7-2.1,11.3-3.7l1.4-0.3h-0.8c1.9-0.9,3.6-1.9,5.4-3h1.4l-0.4-0.7
					c1.5-1,2.9-2.1,4.2-3.3h1.1l-0.3-0.7c3.7-3.4,6.9-7.4,9.7-12.3h1.7l-0.8-1.6c0.1-0.1,0.1-0.2,0.2-0.4c0.3-0.5,0.5-1.1,0.8-1.6
					l-0.1,0.6h1v-2.4c1.2-2.7,2.2-5.5,3-8.3v0.7h1l-0.7-2C1120.8,545.2,1120.6,531.9,1118.7,518.7z M920.1,789.7l0.7,24
					C919.6,806.2,919.1,797.6,920.1,789.7z M926.7,773.1l0.3-0.3v1L926.7,773.1z M917,416.1c0,0.2,0,0.4,0,0.6
					c0,18.1-3.5,36.1-4,54.3C913.5,452.7,916.9,434.5,917,416.1z M915,372.3l0-0.6l1-36L915,372.3z M991,382.7l-2,1l-6-6L991,382.7z
					 M923,300.7v1c-1.1-0.5-2.2-1-3.4-1.5L923,300.7z M864,375.7v5l-13,1l-4,5l-5,1l-4-7h-2l-1,3h-2c-3.5-12.3-6.6-23.1-7.8-36
					c-0.6-6.2-0.5-12.9,1-19c8.2-33.7,37.3-34.9,64.9-30.3v0.3l17,6l-25,14l-6.9,6.1l3.9,24.9h0c-2.7,12.8-10.9,28.7-23.7,16.7
					c-2.1-1.9-3.9-4.3-5.4-6.7c-1.9-3.1-2.9-6.6-3.9-10h-1C846.3,361.2,853.6,371.4,864,375.7z M906.4,721.5l12.4-7.9
					C914.9,716.5,911.2,719.7,906.4,721.5z M925,706.7v2l1.3-1.3l0.7,0.3l-1,1l-20,12v0.9c-0.8,0.3-1.5,0.5-2.3,0.7l-1.7-0.6v1
					c-1.9,0.4-3.8,0.6-5.8,0.7l-3.2-0.6v0.6c-1.7-0.1-3.4-0.3-5.1-0.6l-2.9-1v0.3c-0.6-0.2-1.3-0.4-1.9-0.5l0.9,0.2v-1l-4-1v0.7
					c-10.9-4.1-21-11.9-29.1-19.2c-1.9-1.7-5.3-4.4-8.5-7.4c1.4,1.1,2.6,2.1,3.6,2.8l-11-14l18,1.9l40,0.1
					c-13.4,11.5,5.8,25.9,19,22.5c12.6-3.2,14.6-19.3,25-22.5L925,706.7z"/>
				<polygon class="st3" points="1113,416.7 1110,415.7 1113,417.7 				"/>
				<polygon class="st3" points="970,452.7 969,450.7 968,452.7 				"/>
				<polygon class="st3" points="1119,476.7 1119,450.7 1118,476.7 				"/>
				<polygon class="st3" points="1118,481.7 1117,476.7 1117,481.7 				"/>
				<polygon class="st3" points="829,540.7 833,539.7 829,539.7 				"/>
				<polygon class="st3" points="819,544.7 822,544.7 819,543.7 				"/>
				<polygon class="st3" points="812,546.7 814,544.7 812,545.7 				"/>
				<polygon class="st3" points="807,548.7 810,548.7 807,547.7 				"/>
				<polygon class="st3" points="801,550.7 804,550.7 801,549.7 				"/>
				<polygon class="st3" points="793,552.7 797,552.7 793,551.7 				"/>
				<polygon class="st3" points="781,554.7 781,555.7 785,555.7 				"/>
				<polygon class="st3" points="767,557.7 767,558.7 775,557.7 				"/>
				<polygon class="st3" points="706,558.7 709,558.7 706,557.7 				"/>
				<polygon class="st3" points="731,560.7 731,561.7 744,561.7 				"/>
				<polygon class="st3" points="996,584.7 997,584.7 996,581.7 				"/>
				<polygon class="st3" points="1010,614.7 1011,614.7 1009,609.7 				"/>
				<polygon class="st3" points="1012,617.7 1011,614.7 1011,617.7 				"/>
				<polygon class="st3" points="983,629.7 980,615.7 982,629.7 				"/>
				<polygon class="st3" points="1015,628.7 1014,625.7 1014,628.7 				"/>
				<polygon class="st3" points="736,655.7 735,650.7 735,655.7 				"/>
				<polygon class="st3" points="950,678.7 951,678.7 951,669.7 				"/>
				<polygon class="st3" points="766,690.7 766,691.7 769,691.7 				"/>
				<polygon class="st3" points="812,691.7 812,692.7 818,691.7 				"/>
				<polygon class="st3" points="810,693.7 815,692.7 812,692.7 810,692.7 				"/>
				<polygon class="st3" points="777,694.7 781,694.7 777,693.7 				"/>
				<polygon class="st3" points="881,728.7 884,728.7 881,727.7 				"/>
				<polygon class="st3" points="894,729.7 894,730.7 910,729.7 				"/>
				<polygon class="st3" points="885,729.7 890,729.7 885,728.7 				"/>
			</g>
			<path class="st3" d="M935,807.7l-4,2v1L935,807.7z"/>
			<path class="st2" d="M937,807.7l-1,2h2L937,807.7z"/>
			<path class="st2" d="M882.7,809.1l0.7,0.3L882.7,809.1z"/>
			<path class="st1" d="M879,811.7l1,1L879,811.7z"/>
			<path class="st3" d="M922.3,814.4l0.3,0.7L922.3,814.4z"/>
			<path class="st2" d="M930,813.7l1,1L930,813.7z"/>
			<path class="st3" d="M924,816.7l3-2L924,816.7z"/>
			<path class="st3" d="M922,816.7v2h2v-2H922z"/>
			<path class="st1" d="M872,817.7l1,1L872,817.7 M918,817.7v2h2v-2H918z"/>
			<path class="st2" d="M924,817.7l-1,2h2L924,817.7z"/>
			<path class="st2" d="M869,818.7l-4,3v1L869,818.7z"/>
			<path class="st1" d="M869,819.7l1,1L869,819.7 M916.3,820.4l0.3,0.7L916.3,820.4z"/>
			<path class="st1" d="M868,820.7l1,1L868,820.7 M919,820.7l-2,3L919,820.7z"/>
			<path class="st1" d="M867,821.7l1,1L867,821.7z"/>
			<path class="st2" d="M919,821.7l1,1L919,821.7z"/>
			<path class="st1" d="M915,823.7l-4,5h1L915,823.7z"/>
			<path class="st2" d="M916,823.7l1,1L916,823.7z"/>
			<path class="st1" d="M857,828.7l1,1L857,828.7 M908.7,829.1l0.7,0.3L908.7,829.1z"/>
			<path class="st2" d="M910.7,829.1l0.7,0.3L910.7,829.1z"/>
			<path class="st1" d="M906,830.7l1,1L906,830.7z"/>
			<path class="st1" d="M904.7,832.1l0.7,0.3L904.7,832.1z"/>
			<path class="st1" d="M852,832.7l1,1L852,832.7 M903,832.7l1,1L903,832.7z"/>
			<path class="st1" d="M848,835.7l1,1L848,835.7 M899,835.7l1,1L899,835.7z"/>
			<path class="st1" d="M844,838.7l1,1L844,838.7 M892,841.7l5-2L892,841.7z"/>
			<path class="st2" d="M894,839.7l1,1L894,839.7z"/>
			<path class="st1" d="M840,841.7l1,1L840,841.7 M890,841.7l1,1L890,841.7z"/>
			<path class="st2" d="M889.7,843.1l0.7,0.3L889.7,843.1z"/>
			<path class="st1" d="M834,845.7l1,1L834,845.7 M884,845.7l-2,3L884,845.7z"/>
			<path class="st2" d="M885,845.7l1,1L885,845.7z"/>
			<path class="st2" d="M884,846.7l1,1L884,846.7z"/>
			<path class="st1" d="M880,848.7l1,1L880,848.7z"/>
			<path class="st1" d="M829,849.7l1,1L829,849.7 M878,849.7l-2,3L878,849.7z"/>
			<path class="st2" d="M879,849.7l-1,2h2L879,849.7z"/>
			<path class="st1" d="M825,852.7l1,1L825,852.7 M873,852.7l-3,3v1L873,852.7z"/>
			<path class="st1" d="M819,856.7l1,1L819,856.7 M868,856.7l-4,4l5-3L868,856.7z"/>
			<path class="st2" d="M865,859.7l1,1L865,859.7z"/>
		</g>
	</g>
	<path class="st0" d="M464.2,329.6c-24.3-5.6-50.1-5.8-75-4.6c-45.6,2.2-88,25.6-124.4,50.8c-14.1,9.7-30,16.8-43.6,27.2
		c-14.7,11.2-28.5,26.6-40,41.1c-49.6,62.5-55.9,158.4-27,230.6c35.3,88.2,121.4,146.5,195.8,199.4c40.8,29.1,80.1,61.2,118.9,92.8
		c25.6,20.8,51,44.2,72.4,69.5c7.2,8.5,14.3,17,21,25.9c3.4,4.5,6.9,11,12,13.6c0.7,6,6.8,16.8,12,20l14,30l6,10l2,10h1
		c-3.4-27.9-18-58.3-30.3-83.3c-24.5-49.5-59.8-88.9-98.4-127.7c-34.5-34.7-69.9-67-109.5-96c-66.8-48.9-138.4-107.9-161.4-188h-0.5
		v-1.6c-0.5-1.8-1-3.6-1.4-5.4h-0.6v-2.4c-4-16.9-5.8-34.7-5-53.6c0.5-10.5,3.5-20.7,5.6-31c13.6-68.2,48.7-126.8,108.4-165
		c12.8-8.2,26.3-15.2,40-21.8c5.5-2.6,11.9-6.9,18-7.4c20.5-1.7,42.2,3.2,62,7.7C525.3,391,595,463.1,606,555
		c4.6,38.3-4,75.3-16.8,111c7.6-4.5,8.9-18.1,11.2-26l0.8-4v1.2c7.4-26.1,9.9-52,7.2-79.2c-8.5-84.7-64.6-153.5-144.2-182
		c-15.6-5.6-33.6-10.5-50-12.8c-11.1-1.6-23.2-0.6-34-3.2v-1c12.9-1.3,25.2-7.6,38-9.7c16-2.6,34.4,1,50,4
		c103.8,20.4,168,125,157.8,226.6c-3,29.6-12.2,60.2-27.1,85.9c-4.6,8-10.4,15.8-16.7,22.6c-3.5,3.8-9.1,7.3-10,12.5l-8,4
		c10.3-11.1,21.7-23.1,26-38l-12.5,18.7L546.2,721c33-15,64.5-38.6,83.4-70c1.9-3.2,3.7-6.6,5.3-10h-0.6l1-2l0.3,0.6
		c9.3-20.4,13.3-43.8,14.8-65.6c3.1-45.4-5-94.2-30.4-133C584,386.4,528.3,344.3,464.2,329.6z M161.2,639l1,3h-0.5
		c11.5,65.9,45.5,107,45.5,107l1,2h-2c-177.5-225.8,43-363,43-363C162.3,485,150.6,573.7,161.2,639z"/>
</g>
</svg>
