<?xml version="1.0" encoding="UTF-8"?>
<svg id="Ebene_1" data-name="Ebene 1" xmlns="http://www.w3.org/2000/svg" xmlns:xlink="http://www.w3.org/1999/xlink" viewBox="0 0 224.06 127.44">
  <defs>
    <style>
      .cls-1 {
        fill: url(#Unbenannter_Verlauf_10-2);
      }

      .cls-2 {
        letter-spacing: 0em;
      }

      .cls-3 {
        letter-spacing: .02em;
      }

      .cls-4 {
        fill: url(#Unbenannter_Verlauf_10-3);
      }

      .cls-5 {
        letter-spacing: -.05em;
      }

      .cls-6 {
        font-size: 5.37px;
        letter-spacing: .02em;
      }

      .cls-7, .cls-8, .cls-9, .cls-10, .cls-11, .cls-12, .cls-13 {
        font-size: 9.31px;
      }

      .cls-8 {
        letter-spacing: .02em;
      }

      .cls-14 {
        letter-spacing: 0em;
      }

      .cls-15 {
        letter-spacing: .03em;
      }

      .cls-16, .cls-12 {
        letter-spacing: .03em;
      }

      .cls-17, .cls-11 {
        letter-spacing: .02em;
      }

      .cls-18 {
        letter-spacing: .02em;
      }

      .cls-9, .cls-19 {
        letter-spacing: .01em;
      }

      .cls-20 {
        letter-spacing: -.02em;
      }

      .cls-21 {
        fill: url(#Unbenannter_Verlauf_35);
        opacity: .23;
      }

      .cls-22 {
        letter-spacing: -.17em;
      }

      .cls-10 {
        letter-spacing: 0em;
      }

      .cls-23 {
        letter-spacing: -.02em;
      }

      .cls-24 {
        letter-spacing: .02em;
      }

      .cls-25 {
        letter-spacing: .03em;
      }

      .cls-26 {
        font-family: Perpetua, Perpetua;
        font-size: 20.77px;
      }

      .cls-26, .cls-13, .cls-27 {
        fill: #009fe3;
      }

      .cls-28 {
        letter-spacing: .06em;
      }

      .cls-13, .cls-27 {
        font-family: Perpetua-Italic, Perpetua;
        font-style: italic;
      }

      .cls-29 {
        letter-spacing: .01em;
      }

      .cls-30 {
        letter-spacing: .05em;
      }

      .cls-31 {
        letter-spacing: .02em;
      }

      .cls-32 {
        fill: url(#Unbenannter_Verlauf_10);
      }
    </style>
    <linearGradient id="Unbenannter_Verlauf_35" data-name="Unbenannter Verlauf 35" x1="9.43" y1="48.02" x2="217.63" y2="48.02" gradientUnits="userSpaceOnUse">
      <stop offset="0" stop-color="#7ebbe7"/>
      <stop offset=".44" stop-color="#2dabe2"/>
    </linearGradient>
    <linearGradient id="Unbenannter_Verlauf_10" data-name="Unbenannter Verlauf 10" x1="1.03" y1="57.74" x2="17.21" y2="57.74" gradientUnits="userSpaceOnUse">
      <stop offset="0" stop-color="#312783"/>
      <stop offset=".57" stop-color="#009fe3"/>
    </linearGradient>
    <linearGradient id="Unbenannter_Verlauf_10-2" data-name="Unbenannter Verlauf 10" x1="3.85" y1="87.33" x2="17.43" y2="87.33" xlink:href="#Unbenannter_Verlauf_10"/>
    <linearGradient id="Unbenannter_Verlauf_10-3" data-name="Unbenannter Verlauf 10" x1="4.56" y1="114.45" x2="20.44" y2="114.45" xlink:href="#Unbenannter_Verlauf_10"/>
  </defs>
  <polygon class="cls-21" points="9.43 87.19 19.24 87.33 114.08 26.83 207.55 86.79 217.63 86.79 159.31 43.05 159.45 26.29 148.55 26.29 148.69 35.28 113.4 8.71 9.43 87.19"/>
  <text class="cls-26" transform="translate(0 16.33)"><tspan x="0" y="0">Özge</tspan><tspan class="cls-22" x="39.81" y="0"> </tspan><tspan class="cls-20" x="40.96" y="0">Y</tspan><tspan x="52.33" y="0">ilmaz</tspan></text>
  <text class="cls-13" transform="translate(2.2 30.09)"><tspan class="cls-15" x="0" y="0">Ih</tspan><tspan class="cls-31" x="6.82" y="0">r</tspan><tspan class="cls-25" x="9.6" y="0">e</tspan><tspan class="cls-23" x="12.78" y="0"> </tspan><tspan class="cls-25" x="14.67" y="0">Ansp</tspan><tspan class="cls-3" x="29.98" y="0">r</tspan><tspan class="cls-25" x="32.76" y="0">echpa</tspan><tspan class="cls-28" x="51.04" y="0">r</tspan><tspan class="cls-15" x="54.19" y="0">tne</tspan><tspan class="cls-30" x="64.19" y="0">r</tspan><tspan class="cls-25" x="67.3" y="0">in</tspan></text>
  <text class="cls-13" transform="translate(24.79 112.1)"><tspan class="cls-24" x="0" y="0">Reb</tspan><tspan class="cls-29" x="11.65" y="0">r</tspan><tspan class="cls-24" x="14.36" y="0">einst</tspan><tspan class="cls-14" x="29.12" y="0">r</tspan><tspan class="cls-18" x="31.65" y="0">asse 64</tspan><tspan class="cls-24" x="0" y="11.17">8106 Re</tspan><tspan class="cls-2" x="28.18" y="11.17">g</tspan><tspan class="cls-18" x="31.81" y="11.17">ensdorf</tspan></text>
  <text class="cls-13" transform="translate(21.98 54.89)"><tspan x="0" y="0">+41 44 870 20 00</tspan><tspan x="0" y="11.17">+41 79 870 20 00</tspan></text>
  <text class="cls-27" transform="translate(23.97 84.01)"><tspan class="cls-8" x="0" y="0">in</tspan><tspan class="cls-10" x="6.55" y="0">f</tspan><tspan class="cls-8" x="8.86" y="0">o</tspan><tspan class="cls-6" x="12.47" y="0">@</tspan><tspan class="cls-11" x="17.53" y="0">homeliving-ca</tspan><tspan class="cls-9" x="62.64" y="0">r</tspan><tspan class="cls-12" x="65.37" y="0">e</tspan><tspan class="cls-11" x="68.55" y="0">.ch</tspan><tspan class="cls-7"><tspan class="cls-17" x="0" y="11.17">ww</tspan><tspan class="cls-5" x="9.92" y="11.17">w</tspan><tspan class="cls-17" x="14.18" y="11.17">.homeliving-ca</tspan><tspan class="cls-19" x="61.91" y="11.17">r</tspan><tspan class="cls-16" x="64.65" y="11.17">e</tspan><tspan class="cls-17" x="67.82" y="11.17">.ch</tspan></tspan></text>
  <image width="225" height="225" transform="translate(184.39 87.76) scale(.18)" xlink:href="qrsite.png"/>
  <path class="cls-32" d="m6.24,50.43c-.24-.59-.88-.9-1.5-.73l-2.78.76c-.55.15-.93.65-.93,1.22,0,7.82,6.34,14.16,14.16,14.16.57,0,1.07-.38,1.22-.93l.76-2.78c.17-.61-.15-1.25-.73-1.5l-3.03-1.26c-.52-.21-1.11-.07-1.46.37l-1.28,1.56c-2.23-1.05-4.03-2.85-5.08-5.08l1.56-1.27c.43-.35.58-.95.37-1.46l-1.26-3.03h0Z"/>
  <path class="cls-1" d="m17.06,80.69c.27.19.41.51.36.83l-1.7,11.04c-.04.26-.2.48-.42.61s-.5.14-.74.04l-3.17-1.32-1.82,1.97c-.24.26-.61.34-.93.21s-.54-.44-.54-.79v-2.22c0-.11.04-.21.11-.28l4.45-4.85c.15-.17.15-.42-.01-.58s-.42-.17-.58-.02l-5.4,4.79-2.34-1.17c-.28-.14-.46-.42-.47-.73s.16-.6.43-.76l11.89-6.79c.28-.16.63-.15.9.04h0Z"/>
  <path class="cls-4" d="m20.44,114.44c0,.5-.41.89-.88.89h-.88l.02,4.42c0,.07,0,.15-.01.22v.44c0,.61-.49,1.1-1.1,1.1h-.44s-.06,0-.09,0c-.04,0-.08,0-.12,0h-1.56c-.61,0-1.1-.49-1.1-1.1v-2.43c0-.49-.39-.88-.88-.88h-1.76c-.49,0-.88.39-.88.88v2.43c0,.61-.49,1.1-1.1,1.1h-1.54s-.08,0-.12,0c-.03,0-.07,0-.1,0h-.44c-.61,0-1.1-.49-1.1-1.1v-3.09s0-.05,0-.08v-1.92h-.89c-.5,0-.88-.39-.88-.89,0-.25.08-.47.28-.66l7.07-6.16c.19-.19.41-.22.61-.22s.41.06.58.19l7.04,6.19c.22.19.33.41.3.66Z"/>
</svg>