<?xml version="1.0" encoding="UTF-8"?>
<svg id="Ebene_1" data-name="Ebene 1" xmlns="http://www.w3.org/2000/svg" xmlns:xlink="http://www.w3.org/1999/xlink" viewBox="0 0 595.28 841.89">
  <defs>
    <style>
      .cls-1 {
        letter-spacing: .01em;
      }

      .cls-2 {
        letter-spacing: 0em;
      }

      .cls-3 {
        letter-spacing: -.04em;
      }

      .cls-4 {
        letter-spacing: -.01em;
      }

      .cls-5 {
        letter-spacing: -.01em;
      }

      .cls-6 {
        letter-spacing: -.01em;
      }

      .cls-7 {
        fill: #31aae2;
      }

      .cls-8 {
        letter-spacing: .02em;
      }

      .cls-9 {
        stroke: #fff;
        stroke-miterlimit: 10;
      }

      .cls-9, .cls-10 {
        fill: #fff;
      }

      .cls-11 {
        letter-spacing: 0em;
      }

      .cls-10 {
        font-family: MyriadPro-Regular, 'Myriad Pro';
        font-size: 12px;
      }

      .cls-12 {
        fill: #1d1d1b;
      }
    </style>
  </defs>
  <image width="1634" height="904" transform="translate(382.21 19.31) scale(.14)" xlink:href="homelivingcare.png"/>
  <rect class="cls-9" x="554.66" y="18.94" width="105.53" height="12.6"/>
  <image width="1026" height="1026" transform="translate(38.49 655.98) scale(.08)" xlink:href="homeliving_qr.png"/>
  <g>
    <path class="cls-12" d="m42.98,750.53v3.38h3.91v-3.38h1.06v8.08h-1.06v-3.79h-3.91v3.79h-1.04v-8.08h1.04Z"/>
    <path class="cls-12" d="m54.97,755.67c0,2.15-1.49,3.08-2.89,3.08-1.57,0-2.78-1.15-2.78-2.99,0-1.94,1.27-3.08,2.88-3.08s2.79,1.21,2.79,2.99Zm-4.61.06c0,1.27.73,2.23,1.76,2.23s1.76-.95,1.76-2.25c0-.98-.49-2.23-1.74-2.23s-1.79,1.15-1.79,2.25Z"/>
    <path class="cls-12" d="m56.31,754.38c0-.6-.01-1.09-.05-1.57h.92l.05.94h.04c.32-.55.86-1.07,1.82-1.07.79,0,1.39.48,1.64,1.16h.02c.18-.32.41-.58.65-.76.35-.26.73-.41,1.28-.41.77,0,1.91.5,1.91,2.52v3.42h-1.03v-3.29c0-1.12-.41-1.79-1.26-1.79-.6,0-1.07.44-1.25.96-.05.14-.08.33-.08.53v3.59h-1.03v-3.48c0-.92-.41-1.59-1.21-1.59-.66,0-1.14.53-1.31,1.06-.06.16-.08.34-.08.52v3.5h-1.03v-4.23Z"/>
    <path class="cls-12" d="m66.9,755.91c.02,1.43.94,2.02,1.99,2.02.76,0,1.21-.13,1.61-.3l.18.75c-.37.17-1.01.36-1.93.36-1.79,0-2.85-1.18-2.85-2.93s1.03-3.13,2.72-3.13c1.9,0,2.4,1.67,2.4,2.73,0,.22-.02.38-.04.49h-4.08Zm3.09-.75c.01-.67-.28-1.72-1.46-1.72-1.07,0-1.54.98-1.62,1.72h3.08Z"/>
    <path class="cls-12" d="m74.91,750.53h1.04v7.21h3.45v.88h-4.5v-8.08Z"/>
    <path class="cls-12" d="m81.71,751.18c.01.36-.25.65-.67.65-.37,0-.64-.29-.64-.65s.28-.66.66-.66.65.29.65.66Zm-1.18,7.44v-5.8h1.06v5.8h-1.06Z"/>
    <path class="cls-12" d="m83.75,752.81l1.14,3.26c.19.53.35,1.01.47,1.49h.04c.13-.48.3-.96.49-1.49l1.13-3.26h1.1l-2.28,5.8h-1.01l-2.21-5.8h1.13Z"/>
    <path class="cls-12" d="m90.29,751.18c.01.36-.25.65-.67.65-.37,0-.64-.29-.64-.65s.28-.66.66-.66.65.29.65.66Zm-1.18,7.44v-5.8h1.06v5.8h-1.06Z"/>
    <path class="cls-12" d="m91.92,754.38c0-.6-.01-1.09-.05-1.57h.94l.06.96h.02c.29-.55.96-1.09,1.92-1.09.8,0,2.05.48,2.05,2.47v3.47h-1.06v-3.35c0-.94-.35-1.72-1.34-1.72-.7,0-1.24.49-1.42,1.08-.05.13-.07.31-.07.49v3.49h-1.06v-4.23Z"/>
    <path class="cls-12" d="m103.58,752.81c-.02.42-.05.89-.05,1.59v3.37c0,1.33-.26,2.15-.83,2.65-.56.53-1.38.7-2.11.7s-1.46-.17-1.93-.48l.26-.8c.38.24.98.46,1.7.46,1.08,0,1.87-.56,1.87-2.03v-.65h-.02c-.32.54-.95.97-1.85.97-1.44,0-2.47-1.22-2.47-2.83,0-1.97,1.28-3.08,2.61-3.08,1.01,0,1.56.53,1.81,1.01h.02l.05-.88h.92Zm-1.09,2.29c0-.18-.01-.34-.06-.48-.19-.61-.71-1.12-1.48-1.12-1.01,0-1.73.85-1.73,2.2,0,1.14.58,2.09,1.72,2.09.65,0,1.24-.41,1.46-1.08.06-.18.08-.38.08-.56v-1.04Z"/>
    <path class="cls-12" d="m112.93,758.62c-.23-.23-.44-.46-.76-.79-.7.65-1.48.92-2.36.92-1.57,0-2.48-1.06-2.48-2.27,0-1.1.66-1.86,1.58-2.36v-.04c-.42-.53-.67-1.12-.67-1.69,0-.98.71-1.99,2.05-1.99,1.01,0,1.79.67,1.79,1.72,0,.85-.49,1.52-1.77,2.16v.04c.68.79,1.45,1.68,1.97,2.25.37-.56.62-1.34.78-2.36h.96c-.22,1.27-.56,2.28-1.16,2.99.43.46.85.91,1.33,1.43h-1.25Zm-1.27-1.39c-.48-.53-1.38-1.51-2.28-2.54-.43.28-1.04.79-1.04,1.64,0,.92.68,1.63,1.65,1.63.7,0,1.28-.31,1.67-.73Zm-2.46-4.93c0,.58.26,1.02.61,1.45.82-.47,1.34-.9,1.34-1.58,0-.49-.28-1.04-.94-1.04s-1.02.55-1.02,1.18Z"/>
    <path class="cls-12" d="m123.32,758.35c-.38.19-1.15.38-2.13.38-2.28,0-3.99-1.44-3.99-4.09s1.72-4.25,4.22-4.25c1.01,0,1.64.22,1.92.36l-.25.85c-.4-.19-.96-.34-1.63-.34-1.9,0-3.15,1.21-3.15,3.33,0,1.98,1.14,3.25,3.11,3.25.64,0,1.28-.13,1.7-.34l.22.83Z"/>
    <path class="cls-12" d="m127.73,758.62l-.08-.73h-.04c-.32.46-.95.86-1.77.86-1.18,0-1.77-.83-1.77-1.67,0-1.4,1.25-2.17,3.49-2.16v-.12c0-.48-.13-1.34-1.32-1.34-.54,0-1.1.17-1.51.43l-.24-.7c.48-.31,1.18-.52,1.91-.52,1.77,0,2.21,1.21,2.21,2.37v2.17c0,.5.02,1,.1,1.39h-.96Zm-.16-2.96c-1.15-.02-2.46.18-2.46,1.31,0,.68.46,1.01,1,1.01.76,0,1.24-.48,1.4-.97.04-.11.06-.23.06-.34v-1.01Z"/>
    <path class="cls-12" d="m130.3,754.62c0-.68-.01-1.27-.05-1.81h.92l.04,1.14h.05c.26-.78.9-1.27,1.61-1.27.12,0,.2.01.3.04v1c-.11-.02-.22-.04-.36-.04-.74,0-1.27.56-1.42,1.36-.02.14-.05.31-.05.49v3.09h-1.04v-3.99Z"/>
    <path class="cls-12" d="m134.69,755.91c.02,1.43.94,2.02,1.99,2.02.76,0,1.21-.13,1.61-.3l.18.75c-.37.17-1.01.36-1.93.36-1.79,0-2.85-1.18-2.85-2.93s1.03-3.13,2.72-3.13c1.9,0,2.4,1.67,2.4,2.73,0,.22-.02.38-.04.49h-4.08Zm3.09-.75c.01-.67-.28-1.72-1.46-1.72-1.07,0-1.54.98-1.62,1.72h3.08Z"/>
    <path class="cls-12" d="m148.85,758.26c-.47.17-1.39.44-2.48.44-1.22,0-2.23-.31-3.02-1.07-.7-.67-1.13-1.75-1.13-3.01.01-2.41,1.67-4.17,4.38-4.17.94,0,1.67.2,2.01.37l-.25.85c-.43-.19-.97-.35-1.79-.35-1.97,0-3.25,1.22-3.25,3.25s1.24,3.26,3.12,3.26c.68,0,1.15-.1,1.39-.22v-2.41h-1.64v-.84h2.66v3.89Z"/>
    <path class="cls-12" d="m150.41,754.38c0-.6-.01-1.09-.05-1.57h.92l.05.94h.04c.32-.55.86-1.07,1.82-1.07.79,0,1.39.48,1.64,1.16h.02c.18-.32.41-.58.65-.76.35-.26.73-.41,1.28-.41.77,0,1.91.5,1.91,2.52v3.42h-1.03v-3.29c0-1.12-.41-1.79-1.26-1.79-.6,0-1.07.44-1.25.96-.05.14-.08.33-.08.53v3.59h-1.03v-3.48c0-.92-.41-1.59-1.21-1.59-.66,0-1.14.53-1.31,1.06-.06.16-.08.34-.08.52v3.5h-1.03v-4.23Z"/>
    <path class="cls-12" d="m160.37,758.62c.02-.4.05-.98.05-1.5v-7.02h1.04v3.65h.02c.37-.65,1.04-1.07,1.98-1.07,1.44,0,2.46,1.2,2.45,2.96,0,2.08-1.31,3.11-2.6,3.11-.84,0-1.51-.32-1.94-1.09h-.04l-.05.96h-.91Zm1.09-2.33c0,.13.02.26.05.38.2.73.82,1.24,1.58,1.24,1.1,0,1.76-.9,1.76-2.23,0-1.16-.6-2.16-1.73-2.16-.72,0-1.39.49-1.61,1.3-.02.12-.06.26-.06.43v1.04Z"/>
    <path class="cls-12" d="m168.33,750.53v3.38h3.91v-3.38h1.06v8.08h-1.06v-3.79h-3.91v3.79h-1.04v-8.08h1.04Z"/>
    <path class="cls-12" d="m47.58,772.75c-.38.19-1.15.38-2.13.38-2.28,0-3.99-1.44-3.99-4.09s1.72-4.25,4.22-4.25c1.01,0,1.64.22,1.92.36l-.25.85c-.4-.19-.96-.34-1.63-.34-1.9,0-3.15,1.21-3.15,3.33,0,1.98,1.14,3.25,3.11,3.25.64,0,1.28-.13,1.7-.34l.22.83Z"/>
    <path class="cls-12" d="m49.94,764.93v3.38h3.91v-3.38h1.06v8.08h-1.06v-3.79h-3.91v3.79h-1.04v-8.08h1.04Z"/>
    <path class="cls-12" d="m60.9,769.23h-3.14v2.91h3.5v.88h-4.55v-8.08h4.37v.88h-3.32v2.55h3.14v.86Z"/>
    <path class="cls-12" d="m65.03,769.38v.78h-2.96v-.78h2.96Z"/>
    <path class="cls-12" d="m69.19,773.02v-2.12h-3.62v-.7l3.48-4.98h1.14v4.85h1.09v.83h-1.09v2.12h-1Zm0-2.95v-2.6c0-.41.01-.82.04-1.22h-.04c-.24.46-.43.79-.65,1.15l-1.91,2.65v.02h2.55Z"/>
    <path class="cls-12" d="m77.15,765.22v.7l-3.39,7.1h-1.09l3.38-6.9v-.02h-3.81v-.88h4.92Z"/>
    <path class="cls-12" d="m80.53,766.21h-.02l-1.36.73-.2-.8,1.7-.91h.9v7.8h-1.02v-6.81Z"/>
    <path class="cls-12" d="m84.48,772.39c0-.44.3-.75.72-.75s.71.31.71.75-.28.76-.72.76c-.42,0-.71-.32-.71-.76Z"/>
    <path class="cls-12" d="m91.33,765.97c-.22-.01-.49,0-.79.05-1.66.28-2.53,1.49-2.71,2.77h.04c.37-.49,1.02-.9,1.88-.9,1.38,0,2.35,1,2.35,2.52,0,1.43-.97,2.75-2.59,2.75s-2.76-1.29-2.76-3.32c0-1.54.55-2.75,1.32-3.51.65-.64,1.51-1.03,2.49-1.15.31-.05.58-.06.77-.06v.86Zm-.3,4.5c0-1.12-.64-1.79-1.61-1.79-.64,0-1.22.4-1.51.96-.07.12-.12.28-.12.47.02,1.28.61,2.23,1.72,2.23.91,0,1.52-.76,1.52-1.87Z"/>
    <path class="cls-12" d="m93.29,771.81c.3.19,1,.49,1.73.49,1.36,0,1.77-.86,1.76-1.51-.01-1.09-1-1.56-2.02-1.56h-.59v-.79h.59c.77,0,1.74-.4,1.74-1.32,0-.62-.4-1.18-1.37-1.18-.62,0-1.22.28-1.56.52l-.28-.77c.41-.3,1.2-.6,2.04-.6,1.54,0,2.23.91,2.23,1.86,0,.8-.48,1.49-1.44,1.83v.02c.96.19,1.74.91,1.74,2,0,1.25-.97,2.34-2.84,2.34-.88,0-1.64-.28-2.03-.53l.29-.82Z"/>
    <path class="cls-12" d="m99.1,771.04c0-.98.59-1.68,1.55-2.09v-.04c-.88-.41-1.25-1.08-1.25-1.75,0-1.24,1.04-2.08,2.41-2.08,1.51,0,2.27.95,2.27,1.92,0,.66-.32,1.37-1.28,1.82v.04c.97.38,1.57,1.07,1.57,2.01,0,1.36-1.16,2.27-2.65,2.27-1.63,0-2.61-.97-2.61-2.11Zm4.2-.05c0-.95-.66-1.4-1.72-1.7-.91.26-1.4.86-1.4,1.61-.04.79.56,1.49,1.56,1.49s1.56-.59,1.56-1.39Zm-2.9-3.9c0,.78.59,1.2,1.49,1.44.67-.23,1.19-.71,1.19-1.42,0-.62-.37-1.27-1.32-1.27-.88,0-1.35.58-1.35,1.25Z"/>
    <path class="cls-12" d="m105.43,772.39c0-.44.3-.75.72-.75s.71.31.71.75-.28.76-.72.76c-.42,0-.71-.32-.71-.76Z"/>
    <path class="cls-12" d="m107.74,771.04c0-.98.59-1.68,1.55-2.09v-.04c-.88-.41-1.25-1.08-1.25-1.75,0-1.24,1.04-2.08,2.41-2.08,1.51,0,2.27.95,2.27,1.92,0,.66-.32,1.37-1.28,1.82v.04c.97.38,1.57,1.07,1.57,2.01,0,1.36-1.16,2.27-2.65,2.27-1.63,0-2.61-.97-2.61-2.11Zm4.2-.05c0-.95-.66-1.4-1.72-1.7-.91.26-1.4.86-1.4,1.61-.04.79.56,1.49,1.56,1.49s1.56-.59,1.56-1.39Zm-2.9-3.9c0,.78.59,1.2,1.49,1.44.67-.23,1.19-.71,1.19-1.42,0-.62-.37-1.27-1.32-1.27-.88,0-1.35.58-1.35,1.25Z"/>
    <path class="cls-12" d="m113.99,773.02v-.65l.83-.8c1.99-1.89,2.89-2.9,2.9-4.08,0-.79-.38-1.52-1.55-1.52-.71,0-1.3.36-1.66.66l-.34-.74c.54-.46,1.31-.79,2.21-.79,1.68,0,2.39,1.15,2.39,2.27,0,1.44-1.04,2.6-2.69,4.19l-.62.58v.02h3.5v.88h-4.98Z"/>
    <path class="cls-12" d="m125.21,765.22v.7l-3.39,7.1h-1.09l3.38-6.9v-.02h-3.81v-.88h4.92Z"/>
    <path class="cls-12" d="m41.93,779.43c.5-.08,1.16-.16,2-.16,1.03,0,1.79.24,2.27.67.44.38.71.97.71,1.69s-.22,1.31-.62,1.73c-.55.59-1.45.89-2.47.89-.31,0-.6-.01-.84-.07v3.24h-1.04v-7.99Zm1.04,3.9c.23.06.52.08.86.08,1.26,0,2.03-.61,2.03-1.73s-.76-1.58-1.91-1.58c-.46,0-.8.04-.98.08v3.14Z"/>
    <path class="cls-12" d="m53.23,784.47c0,2.15-1.49,3.08-2.89,3.08-1.57,0-2.78-1.15-2.78-2.99,0-1.94,1.27-3.08,2.88-3.08s2.79,1.21,2.79,2.99Zm-4.61.06c0,1.27.73,2.23,1.76,2.23s1.76-.95,1.76-2.25c0-.98-.49-2.23-1.74-2.23s-1.79,1.15-1.79,2.25Z"/>
    <path class="cls-12" d="m54.42,786.34c.31.2.86.42,1.39.42.77,0,1.13-.38,1.13-.86s-.3-.78-1.08-1.07c-1.04-.37-1.54-.95-1.54-1.64,0-.94.76-1.7,2-1.7.59,0,1.1.17,1.43.36l-.26.77c-.23-.14-.65-.34-1.19-.34-.62,0-.97.36-.97.79,0,.48.35.7,1.1.98,1.01.38,1.52.89,1.52,1.75,0,1.02-.79,1.74-2.17,1.74-.64,0-1.22-.16-1.63-.4l.26-.8Z"/>
    <path class="cls-12" d="m60.59,779.95v1.67h1.51v.8h-1.51v3.13c0,.72.2,1.13.79,1.13.28,0,.48-.04.61-.07l.05.79c-.2.08-.53.14-.94.14-.49,0-.89-.16-1.14-.44-.3-.31-.41-.83-.41-1.51v-3.17h-.9v-.8h.9v-1.39l1.03-.28Z"/>
    <path class="cls-12" d="m63.33,779.33h4.35v.88h-3.31v2.69h3.06v.86h-3.06v3.66h-1.04v-8.08Z"/>
    <path class="cls-12" d="m70,779.98c.01.36-.25.65-.67.65-.37,0-.64-.29-.64-.65s.28-.66.66-.66.65.29.65.66Zm-1.18,7.44v-5.8h1.06v5.8h-1.06Z"/>
    <path class="cls-12" d="m71.63,783.18c0-.6-.01-1.09-.05-1.57h.94l.06.96h.02c.29-.55.96-1.09,1.92-1.09.8,0,2.05.48,2.05,2.47v3.47h-1.06v-3.35c0-.94-.35-1.72-1.34-1.72-.7,0-1.24.49-1.42,1.08-.05.13-.07.31-.07.49v3.49h-1.06v-4.23Z"/>
    <path class="cls-12" d="m81.51,787.42l-.08-.73h-.04c-.32.46-.95.86-1.77.86-1.18,0-1.77-.83-1.77-1.67,0-1.4,1.25-2.17,3.49-2.16v-.12c0-.48-.13-1.34-1.32-1.34-.54,0-1.1.17-1.51.43l-.24-.7c.48-.31,1.18-.52,1.91-.52,1.77,0,2.21,1.21,2.21,2.37v2.17c0,.5.02,1,.1,1.39h-.96Zm-.16-2.96c-1.15-.02-2.46.18-2.46,1.31,0,.68.46,1.01,1,1.01.76,0,1.24-.48,1.4-.97.04-.11.06-.23.06-.34v-1.01Z"/>
    <path class="cls-12" d="m84.08,783.18c0-.6-.01-1.09-.05-1.57h.94l.06.96h.02c.29-.55.96-1.09,1.92-1.09.8,0,2.05.48,2.05,2.47v3.47h-1.06v-3.35c0-.94-.35-1.72-1.34-1.72-.7,0-1.24.49-1.42,1.08-.05.13-.07.31-.07.49v3.49h-1.06v-4.23Z"/>
    <path class="cls-12" d="m94.87,787.2c-.28.14-.89.34-1.67.34-1.75,0-2.89-1.19-2.89-2.96s1.22-3.08,3.12-3.08c.62,0,1.18.16,1.46.3l-.24.82c-.25-.14-.65-.28-1.22-.28-1.33,0-2.05.98-2.05,2.19,0,1.34.86,2.17,2.02,2.17.6,0,1-.16,1.3-.29l.18.79Z"/>
    <path class="cls-12" d="m96.63,784.71c.02,1.43.94,2.02,1.99,2.02.76,0,1.21-.13,1.61-.3l.18.75c-.37.17-1.01.36-1.93.36-1.79,0-2.85-1.18-2.85-2.93s1.03-3.13,2.72-3.13c1.9,0,2.4,1.67,2.4,2.73,0,.22-.02.38-.04.49h-4.08Zm3.09-.75c.01-.67-.28-1.71-1.46-1.71-1.07,0-1.54.98-1.62,1.71h3.08Z"/>
    <path class="cls-12" d="m105.94,784.87l-.84,2.54h-1.08l2.75-8.08h1.26l2.76,8.08h-1.12l-.86-2.54h-2.87Zm2.65-.82l-.79-2.33c-.18-.53-.3-1.01-.42-1.48h-.02c-.12.48-.25.97-.41,1.46l-.79,2.34h2.43Z"/>
    <path class="cls-12" d="m117.95,787.06c-.47.17-1.39.44-2.48.44-1.22,0-2.23-.31-3.02-1.07-.7-.67-1.13-1.75-1.13-3.01.01-2.41,1.67-4.17,4.38-4.17.94,0,1.67.2,2.01.37l-.25.85c-.43-.19-.97-.35-1.79-.35-1.97,0-3.25,1.22-3.25,3.25s1.24,3.26,3.12,3.26c.68,0,1.15-.1,1.39-.22v-2.41h-1.64v-.84h2.66v3.89Z"/>
    <path class="cls-12" d="m123.14,779.33v8.08h-1.04v-8.08h1.04Z"/>
    <path class="cls-12" d="m124.96,779.44c.46-.1,1.18-.17,1.91-.17,1.04,0,1.72.18,2.22.59.42.31.67.79.67,1.43,0,.78-.52,1.46-1.37,1.78v.02c.77.19,1.67.83,1.67,2.03,0,.7-.28,1.22-.68,1.62-.56.52-1.48.76-2.79.76-.72,0-1.27-.05-1.62-.1v-7.95Zm1.04,3.31h.95c1.1,0,1.75-.58,1.75-1.36,0-.95-.72-1.32-1.77-1.32-.48,0-.76.04-.92.07v2.6Zm0,3.87c.2.04.5.05.88.05,1.08,0,2.07-.4,2.07-1.57,0-1.1-.95-1.56-2.09-1.56h-.86v3.08Z"/>
    <path class="cls-12" d="m132.77,784.87l-.84,2.54h-1.08l2.75-8.08h1.26l2.76,8.08h-1.12l-.86-2.54h-2.87Zm2.65-.82l-.79-2.33c-.18-.53-.3-1.01-.42-1.48h-.02c-.12.48-.25.97-.41,1.46l-.79,2.34h2.43Z"/>
    <path class="cls-12" d="m138.81,787.42v-8.08h1.14l2.59,4.09c.6.95,1.07,1.8,1.45,2.63h.02c-.1-1.09-.12-2.08-.12-3.33v-3.38h.98v8.08h-1.06l-2.57-4.1c-.56-.9-1.1-1.82-1.51-2.7h-.04c.06,1.03.08,2,.08,3.35v3.45h-.98Z"/>
    <path class="cls-12" d="m146.42,782.57c0-.44.3-.75.72-.75s.7.31.71.75c0,.42-.28.74-.72.74-.42,0-.71-.32-.71-.74Zm0,4.23c0-.44.3-.76.72-.76s.7.31.71.76c0,.42-.28.74-.72.74-.42,0-.71-.32-.71-.74Z"/>
    <path class="cls-12" d="m157.38,787.15c-.38.19-1.15.38-2.13.38-2.28,0-3.99-1.44-3.99-4.09s1.72-4.25,4.22-4.25c1.01,0,1.64.22,1.92.36l-.25.85c-.4-.19-.96-.34-1.63-.34-1.9,0-3.15,1.21-3.15,3.33,0,1.98,1.14,3.25,3.11,3.25.64,0,1.28-.13,1.7-.34l.22.83Z"/>
    <path class="cls-12" d="m159.73,779.33v3.38h3.91v-3.38h1.06v8.08h-1.06v-3.79h-3.91v3.79h-1.04v-8.08h1.04Z"/>
    <path class="cls-12" d="m168.43,780.6h-.02l-1.36.73-.2-.8,1.7-.91h.9v7.8h-1.02v-6.81Z"/>
    <path class="cls-12" d="m175.56,787.42v-2.12h-3.62v-.7l3.48-4.98h1.14v4.85h1.09v.83h-1.09v2.12h-1Zm0-2.95v-2.6c0-.41.01-.82.04-1.22h-.04c-.24.46-.43.79-.65,1.15l-1.91,2.65v.02h2.55Z"/>
    <path class="cls-12" d="m186.18,783.44c0,2.65-.98,4.11-2.71,4.11-1.52,0-2.55-1.43-2.58-4.01,0-2.61,1.13-4.05,2.71-4.05s2.58,1.46,2.58,3.95Zm-4.23.12c0,2.03.62,3.18,1.58,3.18,1.08,0,1.6-1.26,1.6-3.25s-.49-3.18-1.58-3.18c-.92,0-1.6,1.13-1.6,3.25Z"/>
    <path class="cls-12" d="m187.77,786.67c.23.02.49,0,.85-.04.61-.08,1.19-.34,1.63-.76.52-.47.89-1.15,1.03-2.08h-.04c-.43.53-1.06.84-1.83.84-1.4,0-2.3-1.06-2.3-2.39,0-1.48,1.07-2.77,2.66-2.77s2.58,1.29,2.58,3.29c0,1.71-.58,2.91-1.34,3.66-.6.59-1.43.95-2.27,1.04-.38.06-.72.07-.97.06v-.86Zm.38-4.49c0,.97.59,1.66,1.5,1.66.71,0,1.26-.35,1.54-.82.06-.1.1-.22.1-.38,0-1.33-.49-2.35-1.6-2.35-.9,0-1.54.79-1.54,1.89Z"/>
    <path class="cls-12" d="m198.49,783.44c0,2.65-.98,4.11-2.71,4.11-1.52,0-2.55-1.43-2.58-4.01,0-2.61,1.13-4.05,2.71-4.05s2.58,1.46,2.58,3.95Zm-4.23.12c0,2.03.62,3.18,1.58,3.18,1.08,0,1.6-1.26,1.6-3.25s-.49-3.18-1.58-3.18c-.92,0-1.6,1.13-1.6,3.25Z"/>
    <path class="cls-12" d="m204.65,783.44c0,2.65-.98,4.11-2.71,4.11-1.52,0-2.55-1.43-2.58-4.01,0-2.61,1.13-4.05,2.71-4.05s2.58,1.46,2.58,3.95Zm-4.23.12c0,2.03.62,3.18,1.58,3.18,1.08,0,1.6-1.26,1.6-3.25s-.49-3.18-1.58-3.18c-.92,0-1.6,1.13-1.6,3.25Z"/>
    <path class="cls-12" d="m213.35,783.44c0,2.65-.98,4.11-2.71,4.11-1.52,0-2.55-1.43-2.58-4.01,0-2.61,1.13-4.05,2.71-4.05s2.58,1.46,2.58,3.95Zm-4.23.12c0,2.03.62,3.18,1.58,3.18,1.08,0,1.6-1.26,1.6-3.25s-.49-3.18-1.58-3.18c-.92,0-1.6,1.13-1.6,3.25Z"/>
    <path class="cls-12" d="m219.5,783.44c0,2.65-.98,4.11-2.71,4.11-1.52,0-2.55-1.43-2.58-4.01,0-2.61,1.13-4.05,2.71-4.05s2.58,1.46,2.58,3.95Zm-4.23.12c0,2.03.62,3.18,1.58,3.18,1.08,0,1.6-1.26,1.6-3.25s-.49-3.18-1.58-3.18c-.92,0-1.6,1.13-1.6,3.25Z"/>
    <path class="cls-12" d="m225.66,783.44c0,2.65-.98,4.11-2.71,4.11-1.52,0-2.55-1.43-2.58-4.01,0-2.61,1.13-4.05,2.71-4.05s2.58,1.46,2.58,3.95Zm-4.23.12c0,2.03.62,3.18,1.58,3.18,1.08,0,1.6-1.26,1.6-3.25s-.49-3.18-1.58-3.18c-.92,0-1.6,1.13-1.6,3.25Z"/>
    <path class="cls-12" d="m231.81,783.44c0,2.65-.98,4.11-2.71,4.11-1.52,0-2.55-1.43-2.58-4.01,0-2.61,1.13-4.05,2.71-4.05s2.58,1.46,2.58,3.95Zm-4.23.12c0,2.03.62,3.18,1.58,3.18,1.08,0,1.6-1.26,1.6-3.25s-.49-3.18-1.58-3.18c-.92,0-1.6,1.13-1.6,3.25Z"/>
    <path class="cls-12" d="m237.62,780.6h-.02l-1.36.73-.2-.8,1.7-.91h.9v7.8h-1.02v-6.81Z"/>
    <path class="cls-12" d="m246.14,780.51h-2.97l-.3,2c.18-.02.35-.05.64-.05.6,0,1.2.13,1.68.42.61.35,1.12,1.02,1.12,2,0,1.52-1.21,2.66-2.9,2.66-.85,0-1.57-.24-1.94-.48l.26-.8c.32.19.96.43,1.67.43,1,0,1.85-.65,1.85-1.69-.01-1.01-.68-1.73-2.24-1.73-.44,0-.79.05-1.08.08l.5-3.74h3.73v.89Z"/>
    <path class="cls-12" d="m247.9,786.21c.3.19,1,.49,1.73.49,1.36,0,1.77-.86,1.76-1.51-.01-1.09-1-1.56-2.02-1.56h-.59v-.79h.59c.77,0,1.74-.4,1.74-1.32,0-.62-.4-1.18-1.37-1.18-.62,0-1.22.28-1.56.52l-.28-.77c.41-.3,1.2-.6,2.04-.6,1.54,0,2.23.91,2.23,1.86,0,.8-.48,1.49-1.44,1.83v.02c.96.19,1.74.91,1.74,2,0,1.25-.97,2.34-2.84,2.34-.88,0-1.64-.28-2.03-.53l.29-.82Z"/>
    <path class="cls-12" d="m256.25,785.44c0-.98.59-1.68,1.55-2.09v-.04c-.88-.41-1.25-1.08-1.25-1.75,0-1.24,1.04-2.08,2.41-2.08,1.51,0,2.27.95,2.27,1.92,0,.66-.32,1.37-1.28,1.82v.04c.97.38,1.57,1.07,1.57,2.01,0,1.36-1.16,2.27-2.65,2.27-1.63,0-2.61-.97-2.61-2.11Zm4.2-.05c0-.95-.66-1.4-1.72-1.7-.91.26-1.4.86-1.4,1.61-.04.79.56,1.49,1.56,1.49s1.56-.59,1.56-1.39Zm-2.9-3.9c0,.78.59,1.2,1.49,1.44.67-.23,1.19-.71,1.19-1.42,0-.62-.37-1.27-1.32-1.27-.88,0-1.35.58-1.35,1.25Z"/>
    <path class="cls-12" d="m267.56,779.62v.7l-3.39,7.1h-1.09l3.38-6.9v-.02h-3.81v-.88h4.92Z"/>
    <path class="cls-12" d="m270.95,780.6h-.02l-1.36.73-.2-.8,1.7-.91h.9v7.8h-1.02v-6.81Z"/>
    <path class="cls-12" d="m278.07,787.42v-2.12h-3.62v-.7l3.48-4.98h1.14v4.85h1.09v.83h-1.09v2.12h-1Zm0-2.95v-2.6c0-.41.01-.82.04-1.22h-.04c-.24.46-.43.79-.65,1.15l-1.91,2.65v.02h2.55Z"/>
    <path class="cls-12" d="m286.77,787.42v-2.12h-3.62v-.7l3.48-4.98h1.14v4.85h1.09v.83h-1.09v2.12h-1Zm0-2.95v-2.6c0-.41.01-.82.04-1.22h-.04c-.24.46-.43.79-.65,1.15l-1.91,2.65v.02h2.55Z"/>
  </g>
  <rect class="cls-7" x="-4.11" y="805.66" width="602.81" height="37.53"/>
  <text class="cls-10" transform="translate(441.45 820.54)"><tspan x="0" y="0">+ 4144 870 20 00</tspan><tspan x="0" y="14.4">+ 4179 870 20 00</tspan></text>
  <text class="cls-10" transform="translate(77.49 819.71)"><tspan x="0" y="0">in</tspan><tspan class="cls-4" x="9.47" y="0">f</tspan><tspan x="12.82" y="0">o@homeliving</tspan><tspan class="cls-8" x="85.1" y="0">-</tspan><tspan x="89" y="0">ca</tspan><tspan class="cls-2" x="100.16" y="0">r</tspan><tspan class="cls-5" x="103.97" y="0">e</tspan><tspan class="cls-11" x="109.83" y="0">.ch</tspan><tspan class="cls-1" x="0" y="14.4">ww</tspan><tspan class="cls-3" x="17.95" y="14.4">w</tspan><tspan x="26.32" y="14.4">.homeliving</tspan><tspan class="cls-8" x="85.65" y="14.4">-</tspan><tspan x="89.55" y="14.4">ca</tspan><tspan class="cls-2" x="100.71" y="14.4">r</tspan><tspan class="cls-6" x="104.52" y="14.4">e</tspan><tspan x="110.39" y="14.4">.ch</tspan></text>
  <image width="350" height="350" transform="translate(536.47 815.16) scale(.06)" xlink:href="../../../../Downloads/NicePng_white-menu-icon-png_3794777.png"/>
  <image width="464" height="338" transform="translate(41.95 812.65) scale(.06)" xlink:href="../../../../Downloads/SeekPng.com_envelope-icon-png_1335726.png"/>
</svg>