<?xml version="1.0" encoding="utf-8"?>
<!-- Generator: Adobe Illustrator 27.2.0, SVG Export Plug-In . SVG Version: 6.00 Build 0)  -->
<svg version="1.1" id="Ebene_1" xmlns="http://www.w3.org/2000/svg" xmlns:xlink="http://www.w3.org/1999/xlink" x="0px" y="0px"
	 viewBox="0 0 1265 1153" style="enable-background:new 0 0 1265 1153;" xml:space="preserve">
<style type="text/css">
	.st0{opacity:0;fill:#35398E;}
	.st1{fill:#35398E;}
</style>
<g>
	
		<image style="overflow:visible;" width="527" height="890" xlink:href="A8DBAB4E.png"  transform="matrix(0.9843 0 0 0.9843 612.2087 264.2148)">
	</image>
	<path class="st0" d="M607.3,1139.8c0,0-17.9-101.6-110.2-196.3S319.1,801.2,297,778.2c-22.1-23-81.2-91.2-92.1-142.6
		c-10.9-51.4-3-226.1,170.5-283.9C548,294.1,735.7,532,550.5,707.3c-0.8,0.8-1.7,1.6-2.6,2.4c0,0,80.4-26.2,103.3-135.3
		c23-109.1-59.1-195.2-128.8-233.8S311.8,298,231.4,402.2s-91,170.6-58.2,276.4s203.4,192.8,284.6,263.3s129.6,168.1,146.8,196.9"/>
	<path class="st0" d="M581.1,677.7c0,0,60.4-130.4-13.4-232.1s-204.2-92.7-204.2-92.7s-114-3.3-183.7,82
		c-56.7,69.4-47.4,150.9-41.1,183.3c1,5.3,2.1,10,2.6,11.9c13.6,55.7,51.2,95.9,73,118.7"/>
	<path class="st1" d="M1229.5,448.1c-17-12.6-34.5-24.6-51.4-37.3c-59.6-44.7-119.2-89.3-179-133.6c-20.3-15-40-30.8-60.4-45.6
		c-6-4.3-15-9.2-21.2-15.1c1.6,1.2,3.5,2.1,5.5,2.9l-10.9-9.9c0.1,0.4,0.3,0.7,0.5,1.1c-0.2-0.4-0.4-0.7-0.6-1.1
		c-0.3-0.6-0.6-1.3-0.8-2h0l-1-31.6v27.9c-1.4-7.6,0.2-16.8,0-24c-0.5-22.1,0-44.1,0-66.3c-20.7-7.9-45.1-4-67.3-4v34.6l-2.3,11.3
		l-12.5-7.6l-37.6-27.4l-89-67l1,0.7c-3.3-5.5-10.4-9-15.4-12.9c-12.2-9.4-24.8-18.5-37.2-27.7c-5-3.7-11.9-11.5-18.6-8.3
		c-17.9,8.4-34.8,25.5-50.6,37.3c-36,26.9-72,53.9-107.8,81.1c-101.1,76.7-203.6,152-305.4,227.7c-35,26-69.1,55.9-106.1,79
		c-13.2,8.2-26.1,18.1-38.1,28.1c-4.7,3.9-10.8,7.2-13,13.1c14,2.9,28.2,2,42.5,2c5.7,0,13.3,1.5,18.8,0.1
		c11.2-3,23.5-14.2,33.3-20.3c22.2-14,44.8-27.2,66.7-41.5c92.9-61,186.8-120.9,281.2-179.5c30.8-19.1,60.7-39.9,91.6-58.9
		c11-6.7,32.1-15.3,39.7-26.1c9.5-5.9,18.9-11.8,28.4-17.6c7.3-4.4,15.8-13.1,24.7-13.4c7.4-0.2,14.2,5.8,19.8,10
		c8.4,6.3,17.8,11.8,26.7,17.3c31.6,19.7,62.5,40.6,94,60.7v1.3h2l-0.1-0.1c0.1,0.1,0.2,0.1,0.3,0.2l-0.1,0v1l2.7,0.7
		c7.6,4.9,15.3,9.7,23,14.4c1.1,0.7,2.2,1.4,3.3,2.1l-1.3-0.3v1l4,1v0c7.3,4.5,14.5,9.2,21.8,13.9v2h2l-1.9-1.9
		c1.2,0.8,2.4,1.6,3.6,2.4l-1.7-0.4v1l4,1V243c0.1,0.1,0.2,0.1,0.3,0.2l-0.3-0.1l3,2v-0.1c7.2,4.7,14.5,9.5,21.7,14.2l-0.9-0.2v1
		l3.4,0.9c9.7,6.3,19.4,12.4,29.2,18.4c9.7,5.8,21.2,17.8,31.9,20.8c6.5,1.8,20.5-5.9,27.5-7.1c18.7-3.3,39.5-1.7,55.6,9.8
		c10.5,7.6,20.2,20.1,21.4,33.5c0.6,6.5-3.3,23.1,0.7,27.9c7.4,8.9,22.4,14.8,32,21.2c27.6,18.4,56.3,35.1,84.1,53.1L1182,460
		c5.3,3.4,10.6,8.5,16.8,10c18,4.4,39.7-0.9,58.4,0.5C1250,461.8,1238.6,454.8,1229.5,448.1z"/>
	<g>
		<path class="st1" d="M1236.2,453.1c-17.3-12.8-34.9-24.9-52.1-37.8c-60.4-45.3-120.8-90.5-181.5-135.4
			c-20.5-15.2-40.5-31.2-61.2-46.3c-6.1-4.4-15.2-9.3-21.5-15.3c1.7,1.2,3.5,2.1,5.6,2.9l-11-10c0.1,0.4,0.3,0.7,0.5,1.1
			c-0.2-0.4-0.5-0.7-0.6-1.1c-0.3-0.6-0.6-1.3-0.8-2h0l-1-32.1v28.3c-1.4-7.7,0.2-17.1,0-24.3c-0.5-22.4,0-44.7,0-67.2
			c-21-8-45.8-4-68.2-4V145l-2.3,11.4l-12.7-7.7L791,120.9L700.8,53l1,0.7c-3.3-5.6-10.5-9.1-15.6-13C673.8,31.2,661,22,648.5,12.7
			c-5-3.8-12.1-11.6-18.9-8.4c-18.2,8.6-35.2,25.9-51.3,37.9c-36.5,27.3-73,54.7-109.3,82.2C366.6,202,262.7,278.3,159.4,355.1
			c-35.5,26.4-70,56.7-107.6,80.1c-13.4,8.3-26.5,18.3-38.6,28.5c-4.8,4-11,7.3-13.2,13.3c14.2,2.9,28.6,2,43.1,2
			c5.8,0,13.5,1.5,19,0.1c11.3-3,23.8-14.4,33.8-20.6c22.5-14.2,45.4-27.5,67.6-42.1c94.1-61.8,189.4-122.6,285.1-182
			c31.3-19.4,61.5-40.5,92.9-59.7c11.1-6.8,32.5-15.5,40.3-26.4c9.6-6,19.2-12,28.8-17.9c7.4-4.5,16-13.3,25.1-13.6
			c7.5-0.2,14.4,5.9,20.1,10.1c8.5,6.4,18,11.9,27.1,17.6c32.1,20,63.4,41.2,95.2,61.5v1.3h2l-0.1-0.1c0.1,0.1,0.2,0.1,0.3,0.2
			l-0.1,0v1l2.7,0.7c7.7,4.9,15.5,9.8,23.3,14.6c1.1,0.7,2.2,1.4,3.4,2.1l-1.3-0.3v1l4,1v0c7.4,4.6,14.7,9.3,22.1,14.1v2h2l-2-2
			c1.2,0.8,2.4,1.6,3.7,2.4l-1.7-0.4v1l4,1v-0.1c0.1,0.1,0.2,0.1,0.3,0.2l-0.3-0.1l3,2v-0.1c7.3,4.8,14.7,9.6,22,14.4l-1-0.2v1
			l3.5,0.9c9.8,6.3,19.6,12.6,29.6,18.6c9.8,5.9,21.4,18,32.4,21c6.6,1.8,20.8-6,27.9-7.2c19-3.3,40.1-1.8,56.4,9.9
			c10.7,7.7,20.5,20.4,21.7,34c0.6,6.6-3.4,23.4,0.7,28.3c7.5,9,22.7,15,32.5,21.5c28,18.6,57.1,35.5,85.2,53.8l34.1,22.1
			c5.3,3.5,10.8,8.6,17,10.1c18.3,4.4,40.3-1,59.2,0.5C1256.9,466.9,1245.4,459.9,1236.2,453.1z M471.7,123.7
			c-31.2,23.4-62.5,46.8-93.9,70C409.1,170.3,440.4,147,471.7,123.7z M221.5,310.4c-3,2.4-6.1,4.8-9.1,7.3
			c-4.8,3.8-11.1,7.7-17.2,11.8C203.6,322.8,212.7,316.6,221.5,310.4z M184.1,345.2c0.4-0.4,0.3-1-0.6-1.7l2,1L184.1,345.2z
			 M199.5,341.5l-1-2l2,2H199.5z M231.6,337.5c0-1.4,0.7-2.3,1.8-2.8C232.5,335.3,231.8,336.3,231.6,337.5z M434.4,240.4
			c32.2-21,64.5-41.8,97.2-61.7l-26.3,16.7L434.4,240.4z M601.5,26.7c-12.5,9-24.8,18.1-37.1,27.3c17.2-13.7,34.6-27.6,52.7-39.6
			C611.7,18.6,606.5,23,601.5,26.7z"/>
		<path class="st1" d="M467.1,317.5c-24.1-5.5-49.6-5.7-74.3-4.5c-45.2,2.2-87.2,25.4-123.3,50.4c-14,9.7-29.7,16.7-43.3,27
			c-14.6,11.1-28.3,26.4-39.7,40.7c-49.2,62-55.4,157.1-26.8,228.6c35,87.5,120.3,145.2,194.1,197.7c40.5,28.8,79.4,60.7,117.8,92
			c25.4,20.6,50.6,43.8,71.8,68.9c7.1,8.4,14.1,16.8,20.8,25.7c3.4,4.5,6.8,10.9,11.9,13.5c0.7,5.9,6.8,16.6,11.9,19.8l13.9,29.7
			l5.9,9.9l2,9.9h1c-3.3-27.7-17.8-57.8-30-82.6c-24.2-49.1-59.3-88.1-97.5-126.6c-34.2-34.4-69.3-66.4-108.5-95.1
			c-66.2-48.4-137.2-106.9-160-186.4h-0.4v-1.6c-0.5-1.8-1-3.6-1.4-5.4h-0.6v-2.4c-3.9-16.8-5.7-34.4-4.9-53.1
			c0.5-10.5,3.5-20.6,5.5-30.7c13.4-67.7,48.2-125.7,107.4-163.6c12.7-8.1,26.1-15.1,39.7-21.6c5.4-2.6,11.8-6.8,17.8-7.3
			c20.3-1.7,41.9,3.1,61.5,7.7c88.3,20.4,157.4,91.8,168.3,182.9c4.5,37.9-3.9,74.6-16.7,110c7.5-4.5,8.8-18,11.1-25.8l0.8-4v1.2
			c7.3-25.9,9.8-51.5,7.1-78.5c-8.4-84-64-152.2-142.9-180.4c-15.5-5.5-33.3-10.4-49.6-12.7c-11-1.6-23-0.6-33.7-3.2v-1
			c12.7-1.3,25-7.5,37.7-9.6c15.8-2.6,34.1,1,49.6,4C574,361.3,637.6,465,627.5,565.7c-2.9,29.3-12.1,59.6-26.9,85.2
			c-4.6,7.9-10.3,15.6-16.6,22.4c-3.5,3.8-9.1,7.2-9.9,12.4l-7.9,4c10.2-11,21.5-22.9,25.8-37.7l-12.4,18.6l-31.3,35
			c32.7-14.8,64-38.3,82.6-69.4c1.9-3.2,3.7-6.5,5.3-9.9h-0.6l1-2l0.3,0.6c9.2-20.2,13.2-43.4,14.7-65c3.1-45-4.9-93.4-30.2-131.8
			C585.9,373.8,530.6,332.1,467.1,317.5z M166.8,624.2l1,2.9h-0.5c11.4,65.3,45.1,106.1,45.1,106.1l1,2h-2
			C35.4,511.4,254,375.4,254,375.4C167.8,471.5,156.2,559.5,166.8,624.2z"/>
	</g>
</g>
</svg>
